<ttFont>
    <TTGlyph name=".notdef" xMin="68" yMin="0" xMax="612" yMax="1365">
      <contour>
        <pt x="68" y="0" on="1"/>
        <pt x="68" y="1365" on="1"/>
        <pt x="612" y="1365" on="1"/>
        <pt x="612" y="0" on="1"/>
      </contour>
      <contour>
        <pt x="136" y="68" on="1"/>
        <pt x="544" y="68" on="1"/>
        <pt x="544" y="1297" on="1"/>
        <pt x="136" y="1297" on="1"/>
      </contour>
    </TTGlyph>
    <TTGlyph name="A" xMin="-75" yMin="-226" xMax="839" yMax="1168">
      <contour>
        <pt x="508" y="-163" on="1"/>
        <pt x="508" y="-226" on="0"/>
        <pt x="464" y="-226" on="1"/>
        <pt x="440" y="-226" on="0"/>
        <pt x="421" y="-210" on="1"/>
        <pt x="376" y="-171" on="0"/>
        <pt x="376" y="-6" on="0"/>
        <pt x="399" y="166" on="0"/>
        <pt x="457" y="392" on="1"/>
        <pt x="365" y="381" on="0"/>
        <pt x="317" y="379" on="1"/>
        <pt x="158" y="112" on="0"/>
        <pt x="-11" y="-85" on="1"/>
        <pt x="-24" y="-97" on="0"/>
        <pt x="-73" y="-96" on="0"/>
        <pt x="-75" y="-80" on="1"/>
        <pt x="-75" y="-63" on="0"/>
        <pt x="-17" y="23" on="0"/>
        <pt x="-12" y="29" on="1"/>
        <pt x="211" y="379" on="1"/>
        <pt x="58" y="380" on="0"/>
        <pt x="-12" y="410" on="0"/>
        <pt x="-12" y="443" on="1"/>
        <pt x="-12" y="458" on="0"/>
        <pt x="10" y="462" on="1"/>
        <pt x="174" y="478" on="0"/>
        <pt x="278" y="486" on="1"/>
        <pt x="501" y="856" on="1"/>
        <pt x="565" y="1131" on="1"/>
        <pt x="573" y="1167" on="0"/>
        <pt x="635" y="1168" on="0"/>
        <pt x="658" y="1163" on="1"/>
        <pt x="728" y="1147" on="0"/>
        <pt x="728" y="1099" on="1"/>
        <pt x="728" y="1092" on="0"/>
        <pt x="662" y="798" on="0"/>
        <pt x="582" y="505" on="1"/>
        <pt x="665" y="509" on="0"/>
        <pt x="802" y="509" on="1"/>
        <pt x="812" y="508" on="0"/>
        <pt x="838" y="471" on="0"/>
        <pt x="839" y="440" on="1"/>
        <pt x="838" y="419" on="0"/>
        <pt x="674" y="414" on="0"/>
        <pt x="555" y="403" on="1"/>
        <pt x="447" y="-14" on="0"/>
        <pt x="447" y="-75" on="1"/>
        <pt x="449" y="-91" on="0"/>
        <pt x="478" y="-119" on="1"/>
        <pt x="507" y="-142" on="0"/>
      </contour>
      <contour>
        <pt x="402" y="530" on="1"/>
        <pt x="382" y="493" on="1"/>
        <pt x="484" y="500" on="1"/>
        <pt x="503" y="585" on="0"/>
        <pt x="512" y="648" on="1"/>
        <pt x="509" y="675" on="0"/>
        <pt x="424" y="570" on="0"/>
      </contour>
    </TTGlyph>
    <TTGlyph name="AE" xMin="-22" yMin="-226" xMax="1067" yMax="1168">
      <contour>
        <pt x="561" y="-163" on="1"/>
        <pt x="561" y="-226" on="0"/>
        <pt x="517" y="-226" on="1"/>
        <pt x="493" y="-226" on="0"/>
        <pt x="475" y="-210" on="1"/>
        <pt x="430" y="-171" on="0"/>
        <pt x="429" y="-6" on="0"/>
        <pt x="453" y="166" on="0"/>
        <pt x="510" y="392" on="1"/>
        <pt x="418" y="381" on="0"/>
        <pt x="370" y="379" on="1"/>
        <pt x="211" y="112" on="0"/>
        <pt x="42" y="-85" on="1"/>
        <pt x="29" y="-97" on="0"/>
        <pt x="-20" y="-96" on="0"/>
        <pt x="-22" y="-80" on="1"/>
        <pt x="-22" y="-63" on="0"/>
        <pt x="8" y="-20" on="1"/>
        <pt x="264" y="379" on="1"/>
        <pt x="111" y="380" on="0"/>
        <pt x="41" y="410" on="0"/>
        <pt x="41" y="443" on="1"/>
        <pt x="41" y="458" on="0"/>
        <pt x="63" y="462" on="1"/>
        <pt x="227" y="478" on="0"/>
        <pt x="331" y="486" on="1"/>
        <pt x="554" y="856" on="1"/>
        <pt x="618" y="1131" on="1"/>
        <pt x="626" y="1167" on="0"/>
        <pt x="666" y="1168" on="1"/>
        <pt x="735" y="1166" on="0"/>
        <pt x="768" y="1132" on="1"/>
        <pt x="885" y="1131" on="0"/>
        <pt x="1029" y="1126" on="1"/>
        <pt x="1040" y="1124" on="0"/>
        <pt x="1054" y="1108" on="1"/>
        <pt x="1074" y="1086" on="0"/>
        <pt x="1067" y="1058" on="1"/>
        <pt x="1060" y="1045" on="0"/>
        <pt x="1028" y="1045" on="1"/>
        <pt x="973" y="1045" on="1"/>
        <pt x="948" y="1046" on="0"/>
        <pt x="921" y="1046" on="0"/>
        <pt x="770" y="1043" on="1"/>
        <pt x="712" y="784" on="0"/>
        <pt x="635" y="505" on="1"/>
        <pt x="718" y="509" on="0"/>
        <pt x="855" y="509" on="1"/>
        <pt x="865" y="508" on="0"/>
        <pt x="892" y="471" on="0"/>
        <pt x="892" y="440" on="1"/>
        <pt x="891" y="419" on="0"/>
        <pt x="727" y="414" on="0"/>
        <pt x="608" y="403" on="1"/>
        <pt x="561" y="227" on="0"/>
        <pt x="524" y="64" on="1"/>
        <pt x="603" y="63" on="0"/>
        <pt x="849" y="57" on="1"/>
        <pt x="861" y="57" on="0"/>
        <pt x="888" y="22" on="0"/>
        <pt x="888" y="-7" on="1"/>
        <pt x="887" y="-24" on="0"/>
        <pt x="850" y="-24" on="1"/>
        <pt x="794" y="-24" on="0"/>
        <pt x="685" y="-24" on="0"/>
        <pt x="530" y="-30" on="0"/>
        <pt x="502" y="-31" on="1"/>
        <pt x="500" y="-47" on="0"/>
        <pt x="503" y="-91" on="0"/>
        <pt x="532" y="-119" on="1"/>
        <pt x="561" y="-142" on="0"/>
      </contour>
      <contour>
        <pt x="455" y="530" on="1"/>
        <pt x="435" y="493" on="1"/>
        <pt x="537" y="500" on="1"/>
        <pt x="556" y="585" on="0"/>
        <pt x="565" y="648" on="1"/>
        <pt x="562" y="676" on="0"/>
        <pt x="477" y="570" on="0"/>
      </contour>
    </TTGlyph>
    <TTGlyph name="Aacute" xMin="-75" yMin="-226" xMax="839" yMax="1466">
      <component glyphName="acute" x="450" y="312" flags="0x1004"/>
      <component glyphName="A" x="0" y="0" flags="0x1004"/>
    </TTGlyph>
    <TTGlyph name="Acircumflex" xMin="-75" yMin="-226" xMax="839" yMax="1448">
      <component glyphName="circumflex" x="420" y="304" flags="0x1004"/>
      <component glyphName="A" x="0" y="0" flags="0x1004"/>
    </TTGlyph>
    <TTGlyph name="Adieresis" xMin="-75" yMin="-226" xMax="936" yMax="1556">
      <component glyphName="dieresis" x="205" y="351" flags="0x1004"/>
      <component glyphName="A" x="0" y="0" flags="0x1004"/>
    </TTGlyph>
    <TTGlyph name="Agrave" xMin="-75" yMin="-226" xMax="839" yMax="1490">
      <component glyphName="grave" x="479" y="359" flags="0x1004"/>
      <component glyphName="A" x="0" y="0" flags="0x1004"/>
    </TTGlyph>
    <TTGlyph name="Aring" xMin="-75" yMin="-226" xMax="844" yMax="1428">
      <component glyphName="ring" x="390" y="55" flags="0x1004"/>
      <component glyphName="A" x="0" y="0" flags="0x1004"/>
    </TTGlyph>
    <TTGlyph name="Atilde" xMin="-75" yMin="-226" xMax="848" yMax="1497">
      <component glyphName="tilde" x="320" y="318" flags="0x1004"/>
      <component glyphName="A" x="0" y="0" flags="0x1004"/>
    </TTGlyph>
    <TTGlyph name="B" xMin="64" yMin="-48" xMax="656" yMax="1166">
      <contour>
        <pt x="643" y="1059" on="1"/>
        <pt x="643" y="992" on="0"/>
        <pt x="520" y="874" on="1"/>
        <pt x="517" y="871" on="0"/>
        <pt x="515" y="870" on="1"/>
        <pt x="584" y="870" on="0"/>
        <pt x="628" y="785" on="1"/>
        <pt x="656" y="729" on="0"/>
        <pt x="656" y="675" on="1"/>
        <pt x="656" y="520" on="0"/>
        <pt x="511" y="311" on="1"/>
        <pt x="403" y="157" on="0"/>
        <pt x="241" y="16" on="1"/>
        <pt x="179" y="-38" on="0"/>
        <pt x="144" y="-48" on="0"/>
        <pt x="137" y="-48" on="1"/>
        <pt x="104" y="-48" on="0"/>
        <pt x="65" y="13" on="0"/>
        <pt x="64" y="32" on="1"/>
        <pt x="64" y="111" on="0"/>
        <pt x="283" y="869" on="1"/>
        <pt x="345" y="1083" on="1"/>
        <pt x="363" y="1145" on="0"/>
        <pt x="451" y="1162" on="1"/>
        <pt x="474" y="1166" on="0"/>
        <pt x="497" y="1166" on="1"/>
        <pt x="577" y="1166" on="0"/>
        <pt x="643" y="1095" on="0"/>
      </contour>
      <contour>
        <pt x="414" y="1034" on="1"/>
        <pt x="403" y="957" on="0"/>
        <pt x="382" y="888" on="1"/>
        <pt x="457" y="931" on="0"/>
        <pt x="523" y="1020" on="0"/>
        <pt x="550" y="1078" on="1"/>
        <pt x="489" y="1077" on="0"/>
        <pt x="422" y="1038" on="1"/>
      </contour>
      <contour>
        <pt x="550" y="786" on="1"/>
        <pt x="434" y="737" on="0"/>
        <pt x="323" y="638" on="1"/>
        <pt x="319" y="615" on="0"/>
        <pt x="186" y="142" on="0"/>
        <pt x="181" y="114" on="1"/>
        <pt x="275" y="170" on="0"/>
        <pt x="380" y="299" on="1"/>
        <pt x="576" y="539" on="0"/>
        <pt x="576" y="752" on="1"/>
        <pt x="575" y="788" on="0"/>
        <pt x="561" y="789" on="1"/>
        <pt x="558" y="789" on="0"/>
      </contour>
    </TTGlyph>
    <TTGlyph name="C" xMin="106" yMin="-54" xMax="806" yMax="1117">
      <contour>
        <pt x="467" y="555" on="1"/>
        <pt x="440" y="555" on="0"/>
        <pt x="440" y="578" on="1"/>
        <pt x="441" y="589" on="0"/>
        <pt x="476" y="630" on="0"/>
        <pt x="509" y="697" on="1"/>
        <pt x="581" y="844" on="0"/>
        <pt x="581" y="933" on="1"/>
        <pt x="581" y="949" on="0"/>
        <pt x="572" y="968" on="1"/>
        <pt x="552" y="1010" on="0"/>
        <pt x="522" y="1010" on="1"/>
        <pt x="421" y="1008" on="0"/>
        <pt x="258" y="466" on="1"/>
        <pt x="214" y="323" on="0"/>
        <pt x="214" y="186" on="1"/>
        <pt x="214" y="147" on="0"/>
        <pt x="231" y="106" on="1"/>
        <pt x="265" y="26" on="0"/>
        <pt x="333" y="26" on="1"/>
        <pt x="452" y="26" on="0"/>
        <pt x="576" y="122" on="1"/>
        <pt x="620" y="156" on="0"/>
        <pt x="792" y="302" on="0"/>
        <pt x="800" y="302" on="1"/>
        <pt x="804" y="301" on="0"/>
        <pt x="806" y="293" on="1"/>
        <pt x="805" y="220" on="0"/>
        <pt x="635" y="69" on="1"/>
        <pt x="493" y="-54" on="0"/>
        <pt x="347" y="-54" on="1"/>
        <pt x="244" y="-54" on="0"/>
        <pt x="185" y="-3" on="1"/>
        <pt x="106" y="66" on="0"/>
        <pt x="106" y="442" on="0"/>
        <pt x="292" y="941" on="0"/>
        <pt x="446" y="1085" on="1"/>
        <pt x="481" y="1116" on="0"/>
        <pt x="518" y="1117" on="1"/>
        <pt x="696" y="1117" on="0"/>
        <pt x="696" y="1002" on="1"/>
        <pt x="696" y="940" on="0"/>
        <pt x="505" y="555" on="0"/>
      </contour>
    </TTGlyph>
    <TTGlyph name="Ccedilla" xMin="106" yMin="-266" xMax="806" yMax="1117">
      <contour>
        <pt x="467" y="555" on="1"/>
        <pt x="440" y="555" on="0"/>
        <pt x="440" y="578" on="1"/>
        <pt x="441" y="589" on="0"/>
        <pt x="476" y="631" on="0"/>
        <pt x="509" y="697" on="1"/>
        <pt x="581" y="844" on="0"/>
        <pt x="581" y="933" on="1"/>
        <pt x="580" y="949" on="0"/>
        <pt x="572" y="968" on="1"/>
        <pt x="554" y="1010" on="0"/>
        <pt x="491" y="1010" on="0"/>
        <pt x="454" y="958" on="1"/>
        <pt x="369" y="833" on="0"/>
        <pt x="258" y="466" on="1"/>
        <pt x="214" y="321" on="0"/>
        <pt x="214" y="186" on="1"/>
        <pt x="214" y="147" on="0"/>
        <pt x="231" y="106" on="1"/>
        <pt x="265" y="26" on="0"/>
        <pt x="333" y="26" on="1"/>
        <pt x="452" y="26" on="0"/>
        <pt x="576" y="122" on="1"/>
        <pt x="617" y="153" on="0"/>
        <pt x="791" y="302" on="0"/>
        <pt x="800" y="302" on="1"/>
        <pt x="804" y="301" on="0"/>
        <pt x="806" y="293" on="1"/>
        <pt x="805" y="220" on="0"/>
        <pt x="635" y="69" on="1"/>
        <pt x="487" y="-54" on="0"/>
        <pt x="347" y="-54" on="1"/>
        <pt x="346" y="-54" on="1"/>
        <pt x="341" y="-61" on="0"/>
        <pt x="341" y="-78" on="0"/>
        <pt x="377" y="-87" on="1"/>
        <pt x="403" y="-93" on="1"/>
        <pt x="476" y="-115" on="0"/>
        <pt x="476" y="-179" on="1"/>
        <pt x="476" y="-199" on="0"/>
        <pt x="427" y="-266" on="0"/>
        <pt x="361" y="-266" on="0"/>
        <pt x="359" y="-259" on="1"/>
        <pt x="360" y="-254" on="0"/>
        <pt x="412" y="-209" on="0"/>
        <pt x="411" y="-181" on="0"/>
        <pt x="395" y="-152" on="0"/>
        <pt x="322" y="-131" on="0"/>
        <pt x="314" y="-128" on="1"/>
        <pt x="268" y="-113" on="0"/>
        <pt x="268" y="-83" on="1"/>
        <pt x="268" y="-65" on="0"/>
        <pt x="276" y="-47" on="1"/>
        <pt x="222" y="-35" on="0"/>
        <pt x="185" y="-3" on="1"/>
        <pt x="106" y="65" on="0"/>
        <pt x="106" y="442" on="0"/>
        <pt x="293" y="941" on="0"/>
        <pt x="446" y="1085" on="1"/>
        <pt x="481" y="1116" on="0"/>
        <pt x="518" y="1117" on="1"/>
        <pt x="696" y="1117" on="0"/>
        <pt x="696" y="1002" on="1"/>
        <pt x="696" y="940" on="0"/>
        <pt x="505" y="555" on="0"/>
      </contour>
    </TTGlyph>
    <TTGlyph name="D" xMin="107" yMin="-56" xMax="738" yMax="1131">
      <contour>
        <pt x="402" y="952" on="1"/>
        <pt x="357" y="974" on="1"/>
        <pt x="375" y="1087" on="0"/>
        <pt x="463" y="1121" on="1"/>
        <pt x="491" y="1131" on="0"/>
        <pt x="522" y="1131" on="1"/>
        <pt x="608" y="1131" on="0"/>
        <pt x="673" y="1066" on="1"/>
        <pt x="738" y="1002" on="0"/>
        <pt x="738" y="922" on="1"/>
        <pt x="739" y="818" on="0"/>
        <pt x="694" y="682" on="1"/>
        <pt x="586" y="359" on="0"/>
        <pt x="312" y="54" on="1"/>
        <pt x="243" y="-19" on="1"/>
        <pt x="204" y="-54" on="0"/>
        <pt x="190" y="-56" on="1"/>
        <pt x="147" y="-55" on="0"/>
        <pt x="107" y="27" on="1"/>
        <pt x="120" y="64" on="0"/>
        <pt x="355" y="822" on="0"/>
      </contour>
      <contour>
        <pt x="491" y="1019" on="1"/>
        <pt x="491" y="936" on="0"/>
        <pt x="428" y="727" on="0"/>
        <pt x="401" y="638" on="0"/>
        <pt x="274" y="262" on="0"/>
        <pt x="243" y="139" on="1"/>
        <pt x="320" y="220" on="0"/>
        <pt x="394" y="333" on="1"/>
        <pt x="398" y="339" on="0"/>
        <pt x="401" y="343" on="1"/>
        <pt x="629" y="696" on="0"/>
        <pt x="629" y="1006" on="1"/>
        <pt x="629" y="1041" on="0"/>
        <pt x="610" y="1047" on="1"/>
        <pt x="604" y="1048" on="0"/>
        <pt x="598" y="1048" on="1"/>
        <pt x="535" y="1047" on="0"/>
      </contour>
    </TTGlyph>
    <TTGlyph name="E" xMin="34" yMin="-32" xMax="816" yMax="1133">
      <contour>
        <pt x="335" y="-24" on="1"/>
        <pt x="51" y="-32" on="1"/>
        <pt x="35" y="-31" on="0"/>
        <pt x="34" y="-25" on="1"/>
        <pt x="35" y="-4" on="0"/>
        <pt x="51" y="23" on="1"/>
        <pt x="82" y="168" on="0"/>
        <pt x="279" y="773" on="1"/>
        <pt x="241" y="771" on="0"/>
        <pt x="231" y="771" on="1"/>
        <pt x="229" y="773" on="0"/>
        <pt x="229" y="776" on="1"/>
        <pt x="229" y="820" on="0"/>
        <pt x="271" y="865" on="0"/>
        <pt x="300" y="866" on="0"/>
        <pt x="310" y="866" on="1"/>
        <pt x="369" y="1042" on="1"/>
        <pt x="376" y="1104" on="0"/>
        <pt x="408" y="1126" on="1"/>
        <pt x="419" y="1133" on="0"/>
        <pt x="559" y="1133" on="0"/>
        <pt x="777" y="1126" on="1"/>
        <pt x="802" y="1125" on="0"/>
        <pt x="813" y="1083" on="1"/>
        <pt x="816" y="1073" on="0"/>
        <pt x="816" y="1065" on="1"/>
        <pt x="816" y="1046" on="0"/>
        <pt x="766" y="1045" on="1"/>
        <pt x="743" y="1045" on="0"/>
        <pt x="695" y="1046" on="0"/>
        <pt x="597" y="1046" on="0"/>
        <pt x="479" y="1042" on="1"/>
        <pt x="423" y="865" on="1"/>
        <pt x="524" y="863" on="0"/>
        <pt x="635" y="859" on="1"/>
        <pt x="660" y="858" on="0"/>
        <pt x="671" y="814" on="1"/>
        <pt x="674" y="803" on="0"/>
        <pt x="674" y="796" on="1"/>
        <pt x="670" y="777" on="0"/>
        <pt x="635" y="777" on="1"/>
        <pt x="531" y="779" on="1"/>
        <pt x="469" y="779" on="0"/>
        <pt x="394" y="777" on="1"/>
        <pt x="153" y="63" on="1"/>
        <pt x="210" y="62" on="0"/>
        <pt x="352" y="60" on="0"/>
        <pt x="446" y="57" on="1"/>
        <pt x="485" y="56" on="0"/>
        <pt x="485" y="-7" on="1"/>
        <pt x="483" y="-25" on="0"/>
        <pt x="410" y="-24" on="0"/>
        <pt x="380" y="-24" on="1"/>
      </contour>
    </TTGlyph>
    <TTGlyph name="Eacute" xMin="34" yMin="-32" xMax="816" yMax="1472">
      <component glyphName="acute" x="401" y="318" flags="0x1004"/>
      <component glyphName="E" x="0" y="0" flags="0x1004"/>
    </TTGlyph>
    <TTGlyph name="Ecircumflex" xMin="34" yMin="-32" xMax="816" yMax="1447">
      <component glyphName="circumflex" x="364" y="303" flags="0x1004"/>
      <component glyphName="E" x="0" y="0" flags="0x1004"/>
    </TTGlyph>
    <TTGlyph name="Edieresis" xMin="34" yMin="-32" xMax="874" yMax="1559">
      <component glyphName="dieresis" x="143" y="354" flags="0x1004"/>
      <component glyphName="E" x="0" y="0" flags="0x1004"/>
    </TTGlyph>
    <TTGlyph name="Egrave" xMin="34" yMin="-32" xMax="816" yMax="1491">
      <component glyphName="grave" x="384" y="360" flags="0x1004"/>
      <component glyphName="E" x="0" y="0" flags="0x1004"/>
    </TTGlyph>
    <TTGlyph name="Eth" xMin="110" yMin="-56" xMax="747" yMax="1131">
      <contour>
        <pt x="410" y="952" on="1"/>
        <pt x="365" y="974" on="1"/>
        <pt x="383" y="1087" on="0"/>
        <pt x="471" y="1121" on="1"/>
        <pt x="499" y="1131" on="0"/>
        <pt x="530" y="1131" on="1"/>
        <pt x="616" y="1131" on="0"/>
        <pt x="682" y="1067" on="1"/>
        <pt x="747" y="1002" on="0"/>
        <pt x="747" y="922" on="1"/>
        <pt x="747" y="818" on="0"/>
        <pt x="702" y="682" on="1"/>
        <pt x="594" y="359" on="0"/>
        <pt x="320" y="54" on="1"/>
        <pt x="251" y="-19" on="1"/>
        <pt x="212" y="-54" on="0"/>
        <pt x="198" y="-56" on="1"/>
        <pt x="155" y="-55" on="0"/>
        <pt x="115" y="27" on="1"/>
        <pt x="128" y="64" on="0"/>
        <pt x="194" y="276" on="1"/>
        <pt x="288" y="580" on="1"/>
        <pt x="262" y="578" on="0"/>
        <pt x="159" y="578" on="0"/>
        <pt x="137" y="583" on="1"/>
        <pt x="111" y="599" on="0"/>
        <pt x="110" y="628" on="1"/>
        <pt x="112" y="641" on="0"/>
        <pt x="121" y="644" on="1"/>
        <pt x="232" y="659" on="0"/>
        <pt x="315" y="667" on="1"/>
        <pt x="379" y="869" on="0"/>
      </contour>
      <contour>
        <pt x="513" y="625" on="1"/>
        <pt x="512" y="607" on="0"/>
        <pt x="443" y="604" on="0"/>
        <pt x="395" y="599" on="1"/>
        <pt x="280" y="256" on="0"/>
        <pt x="251" y="139" on="1"/>
        <pt x="328" y="220" on="0"/>
        <pt x="403" y="333" on="1"/>
        <pt x="637" y="684" on="0"/>
        <pt x="637" y="1006" on="1"/>
        <pt x="637" y="1041" on="0"/>
        <pt x="618" y="1047" on="1"/>
        <pt x="612" y="1048" on="0"/>
        <pt x="606" y="1048" on="1"/>
        <pt x="543" y="1047" on="0"/>
        <pt x="499" y="1019" on="1"/>
        <pt x="499" y="936" on="0"/>
        <pt x="436" y="727" on="0"/>
        <pt x="430" y="704" on="1"/>
        <pt x="421" y="675" on="1"/>
        <pt x="473" y="677" on="0"/>
        <pt x="495" y="677" on="1"/>
        <pt x="509" y="668" on="0"/>
      </contour>
    </TTGlyph>
    <TTGlyph name="F" xMin="-158" yMin="-181" xMax="976" yMax="1200">
      <contour>
        <pt x="170" y="27" on="1"/>
        <pt x="106" y="-72" on="0"/>
        <pt x="-56" y="-181" on="0"/>
        <pt x="-158" y="-181" on="0"/>
        <pt x="-158" y="-160" on="1"/>
        <pt x="-158" y="-153" on="0"/>
        <pt x="-133" y="-147" on="0"/>
        <pt x="-132" y="-146" on="1"/>
        <pt x="64" y="-103" on="0"/>
        <pt x="173" y="244" on="1"/>
        <pt x="197" y="320" on="0"/>
        <pt x="232" y="469" on="1"/>
        <pt x="301" y="763" on="1"/>
        <pt x="277" y="763" on="1"/>
        <pt x="262" y="764" on="0"/>
        <pt x="261" y="779" on="1"/>
        <pt x="261" y="822" on="0"/>
        <pt x="296" y="851" on="1"/>
        <pt x="310" y="862" on="0"/>
        <pt x="325" y="865" on="1"/>
        <pt x="387" y="1125" on="0"/>
        <pt x="404" y="1158" on="1"/>
        <pt x="422" y="1192" on="0"/>
        <pt x="466" y="1200" on="0"/>
        <pt x="490" y="1200" on="1"/>
        <pt x="518" y="1200" on="0"/>
        <pt x="517" y="1173" on="1"/>
        <pt x="517" y="1151" on="0"/>
        <pt x="513" y="1137" on="1"/>
        <pt x="715" y="1143" on="0"/>
        <pt x="922" y="1146" on="1"/>
        <pt x="953" y="1146" on="0"/>
        <pt x="970" y="1104" on="1"/>
        <pt x="975" y="1091" on="0"/>
        <pt x="976" y="1082" on="1"/>
        <pt x="975" y="1061" on="0"/>
        <pt x="900" y="1061" on="1"/>
        <pt x="741" y="1059" on="0"/>
        <pt x="486" y="1041" on="1"/>
        <pt x="443" y="869" on="1"/>
        <pt x="659" y="875" on="0"/>
        <pt x="786" y="875" on="1"/>
        <pt x="817" y="875" on="0"/>
        <pt x="833" y="834" on="1"/>
        <pt x="838" y="820" on="0"/>
        <pt x="839" y="811" on="1"/>
        <pt x="838" y="790" on="0"/>
        <pt x="660" y="787" on="0"/>
        <pt x="418" y="770" on="1"/>
        <pt x="370" y="578" on="1"/>
        <pt x="269" y="181" on="0"/>
      </contour>
    </TTGlyph>
    <TTGlyph name="G" xMin="-104" yMin="-765" xMax="849" yMax="1168">
      <contour>
        <pt x="568" y="882" on="1"/>
        <pt x="552" y="882" on="0"/>
        <pt x="542" y="902" on="1"/>
        <pt x="542" y="965" on="0"/>
        <pt x="513" y="1033" on="0"/>
        <pt x="502" y="1034" on="1"/>
        <pt x="422" y="1034" on="0"/>
        <pt x="329" y="726" on="1"/>
        <pt x="257" y="488" on="0"/>
        <pt x="226" y="259" on="1"/>
        <pt x="218" y="199" on="0"/>
        <pt x="218" y="127" on="0"/>
        <pt x="233" y="125" on="1"/>
        <pt x="284" y="128" on="0"/>
        <pt x="440" y="450" on="0"/>
        <pt x="472" y="602" on="1"/>
        <pt x="480" y="642" on="0"/>
        <pt x="481" y="670" on="1"/>
        <pt x="467" y="670" on="0"/>
        <pt x="459" y="674" on="1"/>
        <pt x="432" y="688" on="0"/>
        <pt x="430" y="718" on="1"/>
        <pt x="432" y="732" on="0"/>
        <pt x="441" y="734" on="1"/>
        <pt x="708" y="770" on="0"/>
        <pt x="830" y="770" on="1"/>
        <pt x="845" y="762" on="0"/>
        <pt x="849" y="717" on="1"/>
        <pt x="848" y="700" on="0"/>
        <pt x="822" y="699" on="1"/>
        <pt x="758" y="696" on="0"/>
        <pt x="632" y="674" on="0"/>
        <pt x="625" y="673" on="1"/>
        <pt x="601" y="574" on="0"/>
        <pt x="599" y="550" on="0"/>
        <pt x="592" y="516" on="1"/>
        <pt x="435" y="-288" on="0"/>
        <pt x="233" y="-571" on="1"/>
        <pt x="164" y="-667" on="0"/>
        <pt x="2" y="-765" on="0"/>
        <pt x="-44" y="-765" on="1"/>
        <pt x="-104" y="-765" on="0"/>
        <pt x="-104" y="-742" on="1"/>
        <pt x="-104" y="-735" on="0"/>
        <pt x="-77" y="-729" on="0"/>
        <pt x="-77" y="-728" on="1"/>
        <pt x="0" y="-716" on="0"/>
        <pt x="75" y="-636" on="1"/>
        <pt x="94" y="-615" on="0"/>
        <pt x="108" y="-595" on="1"/>
        <pt x="276" y="-361" on="0"/>
        <pt x="430" y="167" on="1"/>
        <pt x="450" y="234" on="0"/>
        <pt x="459" y="272" on="1"/>
        <pt x="332" y="-42" on="0"/>
        <pt x="204" y="-42" on="1"/>
        <pt x="104" y="-42" on="0"/>
        <pt x="104" y="220" on="0"/>
        <pt x="284" y="871" on="0"/>
        <pt x="363" y="1043" on="1"/>
        <pt x="394" y="1110" on="0"/>
        <pt x="441" y="1167" on="0"/>
        <pt x="484" y="1168" on="1"/>
        <pt x="577" y="1168" on="0"/>
        <pt x="592" y="1037" on="1"/>
        <pt x="596" y="1003" on="0"/>
        <pt x="592" y="883" on="0"/>
      </contour>
    </TTGlyph>
    <TTGlyph name="H" xMin="-44" yMin="-397" xMax="807" yMax="1253">
      <contour>
        <pt x="803" y="1208" on="1"/>
        <pt x="669" y="684" on="1"/>
        <pt x="718" y="684" on="1"/>
        <pt x="753" y="685" on="0"/>
        <pt x="771" y="685" on="1"/>
        <pt x="794" y="685" on="0"/>
        <pt x="805" y="636" on="1"/>
        <pt x="807" y="624" on="0"/>
        <pt x="807" y="616" on="1"/>
        <pt x="806" y="594" on="0"/>
        <pt x="706" y="593" on="0"/>
        <pt x="643" y="589" on="1"/>
        <pt x="601" y="435" on="1"/>
        <pt x="511" y="122" on="0"/>
        <pt x="512" y="-289" on="0"/>
        <pt x="599" y="-366" on="1"/>
        <pt x="616" y="-378" on="0"/>
        <pt x="617" y="-386" on="1"/>
        <pt x="615" y="-396" on="0"/>
        <pt x="585" y="-397" on="0"/>
        <pt x="569" y="-387" on="1"/>
        <pt x="483" y="-340" on="0"/>
        <pt x="441" y="-186" on="1"/>
        <pt x="420" y="-108" on="0"/>
        <pt x="420" y="-37" on="1"/>
        <pt x="420" y="147" on="0"/>
        <pt x="507" y="485" on="1"/>
        <pt x="531" y="580" on="1"/>
        <pt x="367" y="562" on="1"/>
        <pt x="248" y="86" on="0"/>
        <pt x="194" y="-48" on="0"/>
        <pt x="146" y="-136" on="0"/>
        <pt x="37" y="-232" on="0"/>
        <pt x="-11" y="-230" on="0"/>
        <pt x="-12" y="-221" on="1"/>
        <pt x="-12" y="-212" on="0"/>
        <pt x="0" y="-194" on="1"/>
        <pt x="134" y="10" on="0"/>
        <pt x="217" y="392" on="1"/>
        <pt x="257" y="555" on="1"/>
        <pt x="254" y="555" on="1"/>
        <pt x="48" y="555" on="0"/>
        <pt x="-19" y="567" on="0"/>
        <pt x="-43" y="606" on="0"/>
        <pt x="-44" y="619" on="1"/>
        <pt x="-44" y="634" on="0"/>
        <pt x="-25" y="637" on="1"/>
        <pt x="-22" y="637" on="0"/>
        <pt x="-21" y="638" on="1"/>
        <pt x="284" y="665" on="1"/>
        <pt x="385" y="1075" on="1"/>
        <pt x="389" y="1090" on="0"/>
        <pt x="402" y="1158" on="0"/>
        <pt x="432" y="1182" on="0"/>
        <pt x="481" y="1182" on="1"/>
        <pt x="510" y="1180" on="0"/>
        <pt x="511" y="1155" on="1"/>
        <pt x="511" y="1144" on="0"/>
        <pt x="510" y="1138" on="1"/>
        <pt x="394" y="673" on="1"/>
        <pt x="506" y="679" on="0"/>
        <pt x="558" y="681" on="1"/>
        <pt x="678" y="1146" on="1"/>
        <pt x="682" y="1161" on="0"/>
        <pt x="693" y="1230" on="0"/>
        <pt x="724" y="1253" on="0"/>
        <pt x="774" y="1253" on="1"/>
        <pt x="803" y="1251" on="0"/>
        <pt x="804" y="1224" on="1"/>
        <pt x="804" y="1214" on="0"/>
      </contour>
    </TTGlyph>
    <TTGlyph name="I" xMin="-18" yMin="-231" xMax="506" yMax="1181">
      <contour>
        <pt x="379" y="1075" on="1"/>
        <pt x="383" y="1090" on="0"/>
        <pt x="396" y="1158" on="0"/>
        <pt x="426" y="1182" on="0"/>
        <pt x="505" y="1180" on="0"/>
        <pt x="506" y="1144" on="0"/>
        <pt x="281" y="234" on="0"/>
        <pt x="204" y="-20" on="0"/>
        <pt x="140" y="-136" on="0"/>
        <pt x="31" y="-232" on="0"/>
        <pt x="-17" y="-230" on="0"/>
        <pt x="-18" y="-221" on="1"/>
        <pt x="-18" y="-212" on="0"/>
        <pt x="-6" y="-194" on="1"/>
        <pt x="109" y="-19" on="0"/>
        <pt x="198" y="339" on="1"/>
      </contour>
    </TTGlyph>
    <TTGlyph name="Iacute" xMin="-18" yMin="-231" xMax="599" yMax="1466">
      <component glyphName="acute" x="225" y="312" flags="0x1004"/>
      <component glyphName="I" x="0" y="0" flags="0x1004"/>
    </TTGlyph>
    <TTGlyph name="Icircumflex" xMin="-18" yMin="-231" xMax="608" yMax="1450">
      <component glyphName="circumflex" x="205" y="306" flags="0x1004"/>
      <component glyphName="I" x="0" y="0" flags="0x1004"/>
    </TTGlyph>
    <TTGlyph name="Idieresis" xMin="-18" yMin="-231" xMax="720" yMax="1556">
      <component glyphName="dieresis" x="-11" y="351" flags="0x1004"/>
      <component glyphName="I" x="0" y="0" flags="0x1004"/>
    </TTGlyph>
    <TTGlyph name="Igrave" xMin="-18" yMin="-231" xMax="624" yMax="1494">
      <component glyphName="grave" x="278" y="363" flags="0x1004"/>
      <component glyphName="I" x="0" y="0" flags="0x1004"/>
    </TTGlyph>
    <TTGlyph name="J" xMin="-279" yMin="-782" xMax="506" yMax="1182">
      <contour>
        <pt x="198" y="-168" on="1"/>
        <pt x="63" y="-579" on="0"/>
        <pt x="-99" y="-718" on="1"/>
        <pt x="-172" y="-782" on="0"/>
        <pt x="-222" y="-782" on="1"/>
        <pt x="-278" y="-783" on="0"/>
        <pt x="-279" y="-755" on="1"/>
        <pt x="-279" y="-747" on="0"/>
        <pt x="-252" y="-739" on="0"/>
        <pt x="-252" y="-738" on="1"/>
        <pt x="-180" y="-714" on="0"/>
        <pt x="-111" y="-621" on="1"/>
        <pt x="-87" y="-588" on="0"/>
        <pt x="-70" y="-555" on="1"/>
        <pt x="37" y="-336" on="0"/>
        <pt x="199" y="220" on="0"/>
        <pt x="326" y="814" on="1"/>
        <pt x="332" y="841" on="0"/>
        <pt x="365" y="1013" on="0"/>
        <pt x="384" y="1090" on="0"/>
        <pt x="394" y="1158" on="0"/>
        <pt x="425" y="1182" on="0"/>
        <pt x="476" y="1182" on="1"/>
        <pt x="505" y="1180" on="0"/>
        <pt x="506" y="1155" on="1"/>
        <pt x="506" y="1144" on="0"/>
        <pt x="457" y="945" on="0"/>
        <pt x="273" y="56" on="0"/>
      </contour>
    </TTGlyph>
    <TTGlyph name="K" xMin="112" yMin="-155" xMax="851" yMax="1186">
      <contour>
        <pt x="508" y="1186" on="1"/>
        <pt x="518" y="1184" on="0"/>
        <pt x="519" y="1160" on="0"/>
        <pt x="405" y="758" on="1"/>
        <pt x="714" y="1123" on="1"/>
        <pt x="723" y="1134" on="0"/>
        <pt x="758" y="1134" on="0"/>
        <pt x="787" y="1100" on="0"/>
        <pt x="786" y="1084" on="1"/>
        <pt x="786" y="1066" on="0"/>
        <pt x="706" y="974" on="1"/>
        <pt x="540" y="773" on="1"/>
        <pt x="592" y="313" on="0"/>
        <pt x="649" y="98" on="0"/>
        <pt x="710" y="-46" on="0"/>
        <pt x="773" y="-95" on="1"/>
        <pt x="800" y="-116" on="0"/>
        <pt x="850" y="-133" on="0"/>
        <pt x="851" y="-142" on="1"/>
        <pt x="850" y="-155" on="0"/>
        <pt x="815" y="-155" on="1"/>
        <pt x="709" y="-155" on="0"/>
        <pt x="617" y="-21" on="1"/>
        <pt x="569" y="50" on="0"/>
        <pt x="497" y="280" on="0"/>
        <pt x="456" y="589" on="0"/>
        <pt x="448" y="655" on="1"/>
        <pt x="339" y="513" on="1"/>
        <pt x="323" y="453" on="0"/>
        <pt x="215" y="74" on="0"/>
        <pt x="205" y="36" on="1"/>
        <pt x="191" y="-17" on="1"/>
        <pt x="183" y="-48" on="0"/>
        <pt x="175" y="-48" on="1"/>
        <pt x="147" y="-48" on="0"/>
        <pt x="113" y="16" on="0"/>
        <pt x="112" y="30" on="1"/>
        <pt x="112" y="106" on="0"/>
        <pt x="322" y="854" on="1"/>
        <pt x="397" y="1117" on="1"/>
        <pt x="405" y="1141" on="0"/>
        <pt x="428" y="1155" on="1"/>
        <pt x="484" y="1186" on="0"/>
      </contour>
    </TTGlyph>
    <TTGlyph name="L" xMin="41" yMin="-48" xMax="717" yMax="1333">
      <contour>
        <pt x="389" y="1125" on="1"/>
        <pt x="452" y="1223" on="0"/>
        <pt x="613" y="1333" on="0"/>
        <pt x="717" y="1333" on="0"/>
        <pt x="717" y="1312" on="1"/>
        <pt x="717" y="1304" on="0"/>
        <pt x="693" y="1298" on="1"/>
        <pt x="691" y="1298" on="1"/>
        <pt x="498" y="1254" on="0"/>
        <pt x="388" y="915" on="1"/>
        <pt x="364" y="839" on="0"/>
        <pt x="191" y="116" on="0"/>
        <pt x="184" y="91" on="1"/>
        <pt x="174" y="54" on="1"/>
        <pt x="387" y="62" on="0"/>
        <pt x="592" y="62" on="1"/>
        <pt x="624" y="62" on="0"/>
        <pt x="641" y="21" on="1"/>
        <pt x="646" y="8" on="0"/>
        <pt x="646" y="-2" on="1"/>
        <pt x="645" y="-22" on="0"/>
        <pt x="450" y="-24" on="0"/>
        <pt x="82" y="-48" on="0"/>
        <pt x="77" y="-48" on="1"/>
        <pt x="41" y="-48" on="0"/>
        <pt x="41" y="2" on="0"/>
        <pt x="88" y="153" on="0"/>
        <pt x="158" y="447" on="1"/>
        <pt x="189" y="574" on="1"/>
        <pt x="284" y="959" on="0"/>
      </contour>
    </TTGlyph>
    <TTGlyph name="M" xMin="10" yMin="-221" xMax="811" yMax="1229">
      <contour>
        <pt x="19" y="-61" on="1"/>
        <pt x="-43" y="-59" on="0"/>
        <pt x="10" y="-15" on="1"/>
        <pt x="19" y="-8" on="0"/>
        <pt x="23" y="-3" on="1"/>
        <pt x="106" y="73" on="0"/>
        <pt x="137" y="141" on="1"/>
        <pt x="150" y="173" on="0"/>
        <pt x="385" y="939" on="1"/>
        <pt x="386" y="940" on="1"/>
        <pt x="386" y="942" on="1"/>
        <pt x="389" y="953" on="0"/>
        <pt x="399" y="995" on="1"/>
        <pt x="435" y="1163" on="0"/>
        <pt x="490" y="1229" on="0"/>
        <pt x="510" y="1229" on="1"/>
        <pt x="558" y="1225" on="0"/>
        <pt x="562" y="1200" on="1"/>
        <pt x="562" y="1195" on="0"/>
        <pt x="553" y="1161" on="1"/>
        <pt x="476" y="903" on="0"/>
        <pt x="476" y="768" on="1"/>
        <pt x="476" y="750" on="0"/>
        <pt x="508" y="716" on="0"/>
        <pt x="511" y="716" on="1"/>
        <pt x="538" y="718" on="0"/>
        <pt x="689" y="1071" on="0"/>
        <pt x="729" y="1150" on="0"/>
        <pt x="743" y="1150" on="1"/>
        <pt x="783" y="1150" on="0"/>
        <pt x="810" y="1127" on="0"/>
        <pt x="811" y="1118" on="0"/>
        <pt x="769" y="1007" on="0"/>
        <pt x="534" y="234" on="0"/>
        <pt x="479" y="-12" on="0"/>
        <pt x="479" y="-71" on="1"/>
        <pt x="480" y="-90" on="0"/>
        <pt x="510" y="-110" on="1"/>
        <pt x="546" y="-134" on="0"/>
        <pt x="545" y="-155" on="1"/>
        <pt x="544" y="-220" on="0"/>
        <pt x="506" y="-221" on="1"/>
        <pt x="412" y="-220" on="0"/>
        <pt x="412" y="-45" on="1"/>
        <pt x="412" y="96" on="0"/>
        <pt x="473" y="302" on="1"/>
        <pt x="545" y="545" on="0"/>
        <pt x="545" y="561" on="1"/>
        <pt x="531" y="525" on="0"/>
        <pt x="474" y="477" on="0"/>
        <pt x="433" y="477" on="0"/>
        <pt x="380" y="543" on="0"/>
        <pt x="378" y="585" on="0"/>
        <pt x="379" y="592" on="1"/>
        <pt x="360" y="552" on="0"/>
        <pt x="250" y="152" on="0"/>
        <pt x="191" y="57" on="1"/>
        <pt x="118" y="-61" on="0"/>
      </contour>
    </TTGlyph>
    <TTGlyph name="N" xMin="-18" yMin="-380" xMax="825" yMax="1374">
      <contour>
        <pt x="352" y="-79" on="1"/>
        <pt x="362" y="391" on="1"/>
        <pt x="362" y="427" on="0"/>
        <pt x="360" y="475" on="1"/>
        <pt x="136" y="-171" on="0"/>
        <pt x="83" y="-298" on="1"/>
        <pt x="42" y="-376" on="0"/>
        <pt x="-12" y="-380" on="1"/>
        <pt x="-18" y="-378" on="0"/>
        <pt x="-18" y="-368" on="0"/>
        <pt x="2" y="-326" on="1"/>
        <pt x="35" y="-259" on="0"/>
        <pt x="194" y="270" on="1"/>
        <pt x="436" y="1079" on="0"/>
        <pt x="445" y="1153" on="1"/>
        <pt x="455" y="1205" on="0"/>
        <pt x="489" y="1205" on="1"/>
        <pt x="562" y="1205" on="0"/>
        <pt x="567" y="1168" on="1"/>
        <pt x="564" y="1136" on="0"/>
        <pt x="480" y="767" on="0"/>
        <pt x="473" y="708" on="0"/>
        <pt x="446" y="529" on="0"/>
        <pt x="446" y="468" on="0"/>
        <pt x="448" y="460" on="1"/>
        <pt x="473" y="543" on="0"/>
        <pt x="583" y="975" on="0"/>
        <pt x="634" y="1116" on="0"/>
        <pt x="638" y="1130" on="1"/>
        <pt x="719" y="1374" on="0"/>
        <pt x="766" y="1374" on="1"/>
        <pt x="779" y="1374" on="0"/>
        <pt x="825" y="1341" on="0"/>
        <pt x="825" y="1295" on="0"/>
        <pt x="805" y="1261" on="1"/>
        <pt x="737" y="1145" on="0"/>
        <pt x="639" y="882" on="1"/>
        <pt x="448" y="368" on="0"/>
        <pt x="438" y="15" on="1"/>
        <pt x="438" y="14" on="1"/>
        <pt x="434" y="-120" on="0"/>
        <pt x="400" y="-120" on="1"/>
        <pt x="386" y="-120" on="0"/>
        <pt x="376" y="-118" on="1"/>
        <pt x="352" y="-112" on="0"/>
      </contour>
    </TTGlyph>
    <TTGlyph name="Ntilde" xMin="-18" yMin="-380" xMax="826" yMax="1613">
      <component glyphName="tilde" x="298" y="434" flags="0x1004"/>
      <component glyphName="N" x="0" y="0" flags="0x1004"/>
    </TTGlyph>
    <TTGlyph name="O" xMin="119" yMin="-42" xMax="627" yMax="1152">
      <contour>
        <pt x="219" y="-42" on="1"/>
        <pt x="119" y="-42" on="0"/>
        <pt x="119" y="200" on="0"/>
        <pt x="280" y="810" on="0"/>
        <pt x="378" y="1027" on="1"/>
        <pt x="398" y="1070" on="0"/>
        <pt x="401" y="1078" on="1"/>
        <pt x="439" y="1152" on="0"/>
        <pt x="549" y="1152" on="0"/>
        <pt x="570" y="1123" on="1"/>
        <pt x="621" y="1062" on="0"/>
        <pt x="633" y="844" on="0"/>
        <pt x="623" y="770" on="1"/>
        <pt x="570" y="365" on="0"/>
        <pt x="427" y="160" on="1"/>
        <pt x="407" y="130" on="1"/>
        <pt x="292" y="-42" on="0"/>
      </contour>
      <contour>
        <pt x="554" y="924" on="1"/>
        <pt x="543" y="1018" on="0"/>
        <pt x="524" y="1017" on="1"/>
        <pt x="451" y="1013" on="0"/>
        <pt x="311" y="512" on="1"/>
        <pt x="234" y="235" on="0"/>
        <pt x="234" y="162" on="1"/>
        <pt x="235" y="160" on="0"/>
        <pt x="238" y="133" on="0"/>
        <pt x="248" y="133" on="1"/>
        <pt x="261" y="134" on="0"/>
        <pt x="286" y="161" on="1"/>
        <pt x="355" y="240" on="0"/>
        <pt x="436" y="424" on="1"/>
        <pt x="557" y="697" on="0"/>
        <pt x="557" y="886" on="1"/>
        <pt x="557" y="901" on="0"/>
      </contour>
    </TTGlyph>
    <TTGlyph name="O.alt1" xMin="98" yMin="-42" xMax="633" yMax="1141">
      <contour>
        <pt x="522" y="1016" on="1"/>
        <pt x="433" y="1016" on="0"/>
        <pt x="293" y="591" on="1"/>
        <pt x="260" y="491" on="0"/>
        <pt x="204" y="205" on="0"/>
        <pt x="204" y="129" on="1"/>
        <pt x="204" y="100" on="0"/>
        <pt x="228" y="97" on="1"/>
        <pt x="273" y="101" on="0"/>
        <pt x="382" y="376" on="1"/>
        <pt x="541" y="777" on="0"/>
        <pt x="541" y="955" on="1"/>
        <pt x="542" y="1016" on="0"/>
      </contour>
      <contour>
        <pt x="563" y="1128" on="1"/>
        <pt x="633" y="1093" on="0"/>
        <pt x="633" y="981" on="1"/>
        <pt x="633" y="895" on="0"/>
        <pt x="499" y="370" on="0"/>
        <pt x="396" y="160" on="1"/>
        <pt x="383" y="133" on="0"/>
        <pt x="367" y="107" on="1"/>
        <pt x="278" y="-42" on="0"/>
        <pt x="198" y="-42" on="1"/>
        <pt x="98" y="-41" on="0"/>
        <pt x="98" y="88" on="1"/>
        <pt x="98" y="107" on="1"/>
        <pt x="105" y="257" on="0"/>
        <pt x="177" y="523" on="1"/>
        <pt x="275" y="890" on="0"/>
        <pt x="388" y="1042" on="1"/>
        <pt x="420" y="1085" on="1"/>
        <pt x="465" y="1141" on="0"/>
        <pt x="514" y="1141" on="1"/>
        <pt x="537" y="1141" on="0"/>
      </contour>
    </TTGlyph>
    <TTGlyph name="Oacute" xMin="119" yMin="-42" xMax="693" yMax="1466">
      <component glyphName="acute" x="319" y="312" flags="0x1004"/>
      <component glyphName="O" x="0" y="0" flags="0x1004"/>
    </TTGlyph>
    <TTGlyph name="Ocircumflex" xMin="119" yMin="-42" xMax="690" yMax="1447">
      <component glyphName="circumflex" x="287" y="303" flags="0x1004"/>
      <component glyphName="O" x="0" y="0" flags="0x1004"/>
    </TTGlyph>
    <TTGlyph name="Odieresis" xMin="119" yMin="-42" xMax="806" yMax="1556">
      <component glyphName="dieresis" x="75" y="351" flags="0x1004"/>
      <component glyphName="O" x="0" y="0" flags="0x1004"/>
    </TTGlyph>
    <TTGlyph name="Ograve" xMin="119" yMin="-42" xMax="702" yMax="1490">
      <component glyphName="grave" x="356" y="359" flags="0x1004"/>
      <component glyphName="O" x="0" y="0" flags="0x1004"/>
    </TTGlyph>
    <TTGlyph name="Oslash" xMin="10" yMin="-42" xMax="750" yMax="1152">
      <contour>
        <pt x="554" y="924" on="1"/>
        <pt x="543" y="1018" on="0"/>
        <pt x="524" y="1017" on="1"/>
        <pt x="455" y="1013" on="0"/>
        <pt x="329" y="574" on="1"/>
        <pt x="555" y="918" on="1"/>
      </contour>
      <contour>
        <pt x="219" y="-42" on="1"/>
        <pt x="119" y="-42" on="0"/>
        <pt x="119" y="88" on="1"/>
        <pt x="65" y="15" on="0"/>
        <pt x="27" y="17" on="1"/>
        <pt x="22" y="18" on="0"/>
        <pt x="10" y="23" on="1"/>
        <pt x="-16" y="33" on="0"/>
        <pt x="11" y="76" on="1"/>
        <pt x="147" y="290" on="1"/>
        <pt x="164" y="372" on="0"/>
        <pt x="192" y="479" on="1"/>
        <pt x="280" y="810" on="0"/>
        <pt x="378" y="1027" on="1"/>
        <pt x="398" y="1070" on="0"/>
        <pt x="401" y="1078" on="1"/>
        <pt x="439" y="1152" on="0"/>
        <pt x="549" y="1152" on="0"/>
        <pt x="604" y="1082" on="0"/>
        <pt x="619" y="1013" on="1"/>
        <pt x="676" y="1096" on="1"/>
        <pt x="685" y="1109" on="0"/>
        <pt x="712" y="1106" on="0"/>
        <pt x="721" y="1103" on="1"/>
        <pt x="753" y="1088" on="0"/>
        <pt x="747" y="1041" on="0"/>
        <pt x="712" y="990" on="1"/>
        <pt x="629" y="867" on="1"/>
        <pt x="628" y="814" on="0"/>
        <pt x="623" y="770" on="1"/>
        <pt x="570" y="365" on="0"/>
        <pt x="427" y="160" on="1"/>
        <pt x="376" y="86" on="1"/>
        <pt x="285" y="-42" on="0"/>
      </contour>
      <contour>
        <pt x="538" y="722" on="1"/>
        <pt x="467" y="606" on="1"/>
        <pt x="346" y="404" on="0"/>
        <pt x="300" y="338" on="1"/>
        <pt x="249" y="267" on="1"/>
        <pt x="234" y="194" on="0"/>
        <pt x="234" y="177" on="1"/>
        <pt x="235" y="133" on="0"/>
        <pt x="248" y="133" on="1"/>
        <pt x="261" y="134" on="0"/>
        <pt x="286" y="161" on="1"/>
        <pt x="355" y="240" on="0"/>
        <pt x="509" y="588" on="0"/>
      </contour>
    </TTGlyph>
    <TTGlyph name="Otilde" xMin="119" yMin="-42" xMax="746" yMax="1497">
      <component glyphName="tilde" x="218" y="318" flags="0x1004"/>
      <component glyphName="O" x="0" y="0" flags="0x1004"/>
    </TTGlyph>
    <TTGlyph name="P" xMin="-195" yMin="-432" xMax="709" yMax="1154">
      <contour>
        <pt x="332" y="392" on="1"/>
        <pt x="505" y="572" on="0"/>
        <pt x="582" y="786" on="1"/>
        <pt x="611" y="866" on="0"/>
        <pt x="620" y="939" on="1"/>
        <pt x="598" y="971" on="0"/>
        <pt x="503" y="970" on="0"/>
        <pt x="482" y="949" on="1"/>
        <pt x="468" y="897" on="0"/>
        <pt x="374" y="528" on="0"/>
      </contour>
      <contour>
        <pt x="460" y="1149" on="1"/>
        <pt x="498" y="1154" on="1"/>
        <pt x="528" y="1154" on="0"/>
        <pt x="532" y="1136" on="1"/>
        <pt x="533" y="1131" on="0"/>
        <pt x="517" y="1064" on="0"/>
        <pt x="517" y="1054" on="1"/>
        <pt x="529" y="1056" on="0"/>
        <pt x="552" y="1056" on="1"/>
        <pt x="653" y="1056" on="0"/>
        <pt x="692" y="1004" on="1"/>
        <pt x="709" y="980" on="0"/>
        <pt x="709" y="949" on="1"/>
        <pt x="709" y="809" on="0"/>
        <pt x="508" y="430" on="0"/>
        <pt x="409" y="342" on="1"/>
        <pt x="354" y="294" on="0"/>
        <pt x="317" y="293" on="1"/>
        <pt x="227" y="-76" on="0"/>
        <pt x="125" y="-234" on="1"/>
        <pt x="65" y="-327" on="0"/>
        <pt x="-94" y="-432" on="0"/>
        <pt x="-183" y="-432" on="0"/>
        <pt x="-194" y="-414" on="0"/>
        <pt x="-195" y="-405" on="0"/>
        <pt x="-169" y="-399" on="0"/>
        <pt x="-169" y="-398" on="1"/>
        <pt x="-92" y="-379" on="0"/>
        <pt x="-21" y="-297" on="1"/>
        <pt x="105" y="-145" on="0"/>
        <pt x="215" y="293" on="1"/>
        <pt x="330" y="762" on="1"/>
        <pt x="402" y="1061" on="0"/>
        <pt x="436" y="1142" on="0"/>
        <pt x="458" y="1148" on="1"/>
        <pt x="460" y="1148" on="0"/>
      </contour>
    </TTGlyph>
    <TTGlyph name="Q" xMin="109" yMin="-142" xMax="663" yMax="1152">
      <contour>
        <pt x="210" y="-42" on="1"/>
        <pt x="109" y="-42" on="0"/>
        <pt x="109" y="200" on="0"/>
        <pt x="271" y="810" on="0"/>
        <pt x="369" y="1027" on="1"/>
        <pt x="389" y="1070" on="0"/>
        <pt x="392" y="1078" on="1"/>
        <pt x="430" y="1152" on="0"/>
        <pt x="490" y="1152" on="1"/>
        <pt x="530" y="1152" on="0"/>
        <pt x="600" y="1087" on="0"/>
        <pt x="618" y="860" on="0"/>
        <pt x="610" y="780" on="1"/>
        <pt x="563" y="367" on="0"/>
        <pt x="418" y="160" on="1"/>
        <pt x="403" y="138" on="1"/>
        <pt x="389" y="116" on="0"/>
        <pt x="381" y="106" on="1"/>
        <pt x="412" y="12" on="0"/>
        <pt x="440" y="-25" on="1"/>
        <pt x="497" y="-98" on="0"/>
        <pt x="625" y="-99" on="1"/>
        <pt x="661" y="-99" on="0"/>
        <pt x="663" y="-112" on="1"/>
        <pt x="661" y="-142" on="0"/>
        <pt x="573" y="-142" on="1"/>
        <pt x="529" y="-142" on="0"/>
        <pt x="484" y="-131" on="1"/>
        <pt x="359" y="-99" on="0"/>
        <pt x="290" y="-4" on="1"/>
        <pt x="248" y="-42" on="0"/>
      </contour>
      <contour>
        <pt x="545" y="924" on="1"/>
        <pt x="534" y="1018" on="0"/>
        <pt x="515" y="1017" on="1"/>
        <pt x="441" y="1013" on="0"/>
        <pt x="303" y="512" on="1"/>
        <pt x="226" y="235" on="0"/>
        <pt x="225" y="162" on="1"/>
        <pt x="226" y="160" on="0"/>
        <pt x="229" y="133" on="0"/>
        <pt x="239" y="133" on="1"/>
        <pt x="252" y="134" on="0"/>
        <pt x="277" y="161" on="1"/>
        <pt x="346" y="240" on="0"/>
        <pt x="427" y="424" on="1"/>
        <pt x="548" y="697" on="0"/>
        <pt x="548" y="886" on="1"/>
        <pt x="548" y="901" on="0"/>
      </contour>
    </TTGlyph>
    <TTGlyph name="R" xMin="95" yMin="-155" xMax="833" yMax="1166">
      <contour>
        <pt x="708" y="1014" on="1"/>
        <pt x="708" y="855" on="0"/>
        <pt x="524" y="765" on="1"/>
        <pt x="556" y="493" on="0"/>
        <pt x="582" y="323" on="1"/>
        <pt x="618" y="92" on="0"/>
        <pt x="682" y="-7" on="1"/>
        <pt x="738" y="-101" on="0"/>
        <pt x="810" y="-125" on="1"/>
        <pt x="832" y="-130" on="0"/>
        <pt x="833" y="-142" on="1"/>
        <pt x="832" y="-154" on="0"/>
        <pt x="788" y="-155" on="1"/>
        <pt x="712" y="-154" on="0"/>
        <pt x="558" y="27" on="0"/>
        <pt x="529" y="123" on="1"/>
        <pt x="526" y="131" on="0"/>
        <pt x="525" y="138" on="1"/>
        <pt x="468" y="321" on="0"/>
        <pt x="424" y="722" on="1"/>
        <pt x="372" y="704" on="1"/>
        <pt x="224" y="235" on="0"/>
        <pt x="174" y="-24" on="1"/>
        <pt x="166" y="-46" on="0"/>
        <pt x="158" y="-48" on="1"/>
        <pt x="141" y="-47" on="0"/>
        <pt x="96" y="1" on="0"/>
        <pt x="95" y="62" on="0"/>
        <pt x="233" y="604" on="0"/>
        <pt x="377" y="1083" on="1"/>
        <pt x="382" y="1100" on="0"/>
        <pt x="394" y="1115" on="1"/>
        <pt x="435" y="1166" on="0"/>
        <pt x="529" y="1166" on="1"/>
        <pt x="584" y="1166" on="0"/>
        <pt x="708" y="1086" on="0"/>
      </contour>
      <contour>
        <pt x="462" y="1056" on="1"/>
        <pt x="453" y="1007" on="0"/>
        <pt x="393" y="798" on="0"/>
        <pt x="390" y="789" on="1"/>
        <pt x="425" y="796" on="0"/>
        <pt x="460" y="810" on="1"/>
        <pt x="600" y="868" on="0"/>
        <pt x="599" y="990" on="1"/>
        <pt x="599" y="996" on="0"/>
        <pt x="598" y="1006" on="1"/>
        <pt x="587" y="1074" on="0"/>
        <pt x="493" y="1074" on="0"/>
      </contour>
    </TTGlyph>
    <TTGlyph name="S" xMin="-3" yMin="-27" xMax="592" yMax="1201">
      <contour>
        <pt x="107" y="176" on="1"/>
        <pt x="101" y="107" on="1"/>
        <pt x="101" y="68" on="0"/>
        <pt x="128" y="66" on="1"/>
        <pt x="213" y="66" on="0"/>
        <pt x="250" y="350" on="1"/>
        <pt x="349" y="1113" on="1"/>
        <pt x="352" y="1133" on="0"/>
        <pt x="364" y="1153" on="1"/>
        <pt x="394" y="1201" on="0"/>
        <pt x="490" y="1201" on="0"/>
        <pt x="592" y="1125" on="0"/>
        <pt x="592" y="1000" on="0"/>
        <pt x="568" y="933" on="1"/>
        <pt x="529" y="826" on="0"/>
        <pt x="469" y="826" on="1"/>
        <pt x="436" y="826" on="0"/>
        <pt x="421" y="848" on="1"/>
        <pt x="347" y="346" on="1"/>
        <pt x="328" y="225" on="0"/>
        <pt x="292" y="134" on="1"/>
        <pt x="226" y="-27" on="0"/>
        <pt x="130" y="-27" on="1"/>
        <pt x="84" y="-27" on="0"/>
        <pt x="-3" y="52" on="0"/>
        <pt x="-3" y="225" on="0"/>
        <pt x="63" y="226" on="1"/>
        <pt x="105" y="225" on="0"/>
      </contour>
      <contour>
        <pt x="429" y="952" on="1"/>
        <pt x="493" y="959" on="0"/>
        <pt x="496" y="1067" on="1"/>
        <pt x="477" y="1065" on="0"/>
        <pt x="426" y="1022" on="0"/>
        <pt x="426" y="973" on="1"/>
        <pt x="426" y="962" on="0"/>
      </contour>
    </TTGlyph>
    <TTGlyph name="T" xMin="126" yMin="-227" xMax="1045" yMax="1229">
      <contour>
        <pt x="965" y="1038" on="1"/>
        <pt x="798" y="1036" on="0"/>
        <pt x="622" y="1024" on="1"/>
        <pt x="422" y="215" on="0"/>
        <pt x="349" y="-15" on="0"/>
        <pt x="287" y="-128" on="0"/>
        <pt x="175" y="-226" on="0"/>
        <pt x="139" y="-227" on="1"/>
        <pt x="126" y="-225" on="0"/>
        <pt x="126" y="-203" on="0"/>
        <pt x="149" y="-168" on="1"/>
        <pt x="271" y="23" on="0"/>
        <pt x="360" y="414" on="1"/>
        <pt x="508" y="1016" on="1"/>
        <pt x="506" y="1016" on="0"/>
        <pt x="244" y="999" on="0"/>
        <pt x="187" y="1014" on="1"/>
        <pt x="138" y="1037" on="0"/>
        <pt x="130" y="1065" on="1"/>
        <pt x="125" y="1087" on="0"/>
        <pt x="197" y="1096" on="1"/>
        <pt x="262" y="1102" on="1"/>
        <pt x="348" y="1108" on="1"/>
        <pt x="440" y="1112" on="0"/>
        <pt x="532" y="1117" on="1"/>
        <pt x="533" y="1118" on="1"/>
        <pt x="537" y="1135" on="0"/>
        <pt x="550" y="1205" on="0"/>
        <pt x="581" y="1229" on="0"/>
        <pt x="632" y="1229" on="1"/>
        <pt x="662" y="1227" on="0"/>
        <pt x="662" y="1200" on="1"/>
        <pt x="662" y="1185" on="0"/>
        <pt x="661" y="1182" on="1"/>
        <pt x="645" y="1120" on="1"/>
        <pt x="990" y="1125" on="1"/>
        <pt x="1023" y="1125" on="0"/>
        <pt x="1040" y="1082" on="1"/>
        <pt x="1045" y="1069" on="0"/>
        <pt x="1045" y="1059" on="1"/>
        <pt x="1044" y="1038" on="0"/>
      </contour>
    </TTGlyph>
    <TTGlyph name="T.alt1" xMin="-240" yMin="-227" xMax="989" yMax="1229">
      <contour>
        <pt x="477" y="1117" on="1"/>
        <pt x="477" y="1118" on="1"/>
        <pt x="481" y="1135" on="0"/>
        <pt x="494" y="1205" on="0"/>
        <pt x="525" y="1229" on="0"/>
        <pt x="576" y="1229" on="1"/>
        <pt x="605" y="1227" on="0"/>
        <pt x="606" y="1200" on="1"/>
        <pt x="606" y="1189" on="0"/>
        <pt x="605" y="1182" on="1"/>
        <pt x="590" y="1120" on="1"/>
        <pt x="721" y="1123" on="0"/>
        <pt x="934" y="1125" on="1"/>
        <pt x="967" y="1125" on="0"/>
        <pt x="984" y="1082" on="1"/>
        <pt x="989" y="1069" on="0"/>
        <pt x="989" y="1059" on="1"/>
        <pt x="988" y="1038" on="0"/>
        <pt x="909" y="1038" on="1"/>
        <pt x="733" y="1035" on="0"/>
        <pt x="566" y="1024" on="1"/>
        <pt x="366" y="213" on="0"/>
        <pt x="293" y="-15" on="0"/>
        <pt x="231" y="-128" on="0"/>
        <pt x="118" y="-226" on="0"/>
        <pt x="83" y="-227" on="1"/>
        <pt x="70" y="-225" on="0"/>
        <pt x="70" y="-201" on="0"/>
        <pt x="93" y="-168" on="1"/>
        <pt x="195" y="-8" on="0"/>
        <pt x="281" y="323" on="1"/>
        <pt x="452" y="1016" on="1"/>
        <pt x="272" y="1002" on="0"/>
        <pt x="-118" y="1002" on="0"/>
        <pt x="-218" y="1018" on="0"/>
        <pt x="-235" y="1046" on="1"/>
        <pt x="-240" y="1054" on="0"/>
        <pt x="-240" y="1061" on="1"/>
        <pt x="-240" y="1076" on="0"/>
        <pt x="-210" y="1078" on="1"/>
        <pt x="-209" y="1078" on="0"/>
        <pt x="-208" y="1078" on="1"/>
        <pt x="246" y="1106" on="1"/>
        <pt x="361" y="1113" on="0"/>
      </contour>
    </TTGlyph>
    <TTGlyph name="Thorn" xMin="-200" yMin="-461" xMax="646" yMax="1200">
      <contour>
        <pt x="231" y="-29" on="1"/>
        <pt x="180" y="-171" on="0"/>
        <pt x="66" y="-350" on="0"/>
        <pt x="-97" y="-461" on="0"/>
        <pt x="-190" y="-461" on="0"/>
        <pt x="-200" y="-440" on="1"/>
        <pt x="-200" y="-431" on="0"/>
        <pt x="-176" y="-426" on="1"/>
        <pt x="-174" y="-426" on="1"/>
        <pt x="-94" y="-408" on="0"/>
        <pt x="-22" y="-321" on="1"/>
        <pt x="-6" y="-302" on="0"/>
        <pt x="5" y="-283" on="1"/>
        <pt x="126" y="-91" on="0"/>
        <pt x="221" y="298" on="1"/>
        <pt x="333" y="770" on="1"/>
        <pt x="410" y="1098" on="0"/>
        <pt x="446" y="1188" on="0"/>
        <pt x="468" y="1194" on="1"/>
        <pt x="486" y="1200" on="0"/>
        <pt x="542" y="1200" on="0"/>
        <pt x="546" y="1184" on="1"/>
        <pt x="547" y="1179" on="0"/>
        <pt x="547" y="1142" on="0"/>
        <pt x="533" y="1102" on="1"/>
        <pt x="533" y="1100" on="1"/>
        <pt x="525" y="1075" on="0"/>
        <pt x="451" y="776" on="1"/>
        <pt x="462" y="778" on="0"/>
        <pt x="485" y="778" on="1"/>
        <pt x="595" y="778" on="0"/>
        <pt x="632" y="720" on="1"/>
        <pt x="646" y="696" on="0"/>
        <pt x="646" y="666" on="1"/>
        <pt x="646" y="521" on="0"/>
        <pt x="441" y="126" on="0"/>
        <pt x="337" y="30" on="1"/>
        <pt x="275" y="-27" on="0"/>
      </contour>
      <contour>
        <pt x="326" y="298" on="1"/>
        <pt x="308" y="224" on="0"/>
        <pt x="272" y="97" on="1"/>
        <pt x="450" y="293" on="0"/>
        <pt x="523" y="517" on="1"/>
        <pt x="546" y="589" on="0"/>
        <pt x="554" y="656" on="1"/>
        <pt x="530" y="689" on="0"/>
        <pt x="449" y="689" on="0"/>
        <pt x="427" y="677" on="1"/>
        <pt x="359" y="405" on="0"/>
      </contour>
    </TTGlyph>
    <TTGlyph name="U" xMin="175" yMin="-21" xMax="872" yMax="1111">
      <contour>
        <pt x="285" y="145" on="1"/>
        <pt x="297" y="146" on="0"/>
        <pt x="313" y="163" on="1"/>
        <pt x="473" y="348" on="0"/>
        <pt x="651" y="766" on="1"/>
        <pt x="659" y="784" on="0"/>
        <pt x="783" y="1085" on="0"/>
        <pt x="804" y="1097" on="1"/>
        <pt x="810" y="1100" on="0"/>
        <pt x="854" y="1101" on="0"/>
        <pt x="872" y="1078" on="0"/>
        <pt x="872" y="1028" on="0"/>
        <pt x="856" y="987" on="1"/>
        <pt x="756" y="739" on="0"/>
        <pt x="683" y="459" on="1"/>
        <pt x="648" y="320" on="0"/>
        <pt x="648" y="82" on="0"/>
        <pt x="656" y="40" on="0"/>
        <pt x="623" y="2" on="0"/>
        <pt x="598" y="-13" on="0"/>
        <pt x="576" y="-4" on="1"/>
        <pt x="554" y="4" on="0"/>
        <pt x="544" y="26" on="1"/>
        <pt x="533" y="50" on="0"/>
        <pt x="558" y="276" on="0"/>
        <pt x="580" y="374" on="1"/>
        <pt x="605" y="482" on="1"/>
        <pt x="489" y="228" on="0"/>
        <pt x="311" y="-20" on="0"/>
        <pt x="227" y="-21" on="1"/>
        <pt x="175" y="-19" on="0"/>
        <pt x="175" y="75" on="1"/>
        <pt x="175" y="216" on="0"/>
        <pt x="345" y="826" on="0"/>
        <pt x="424" y="1029" on="0"/>
        <pt x="432" y="1054" on="1"/>
        <pt x="453" y="1111" on="0"/>
        <pt x="539" y="1110" on="0"/>
        <pt x="540" y="1069" on="1"/>
        <pt x="540" y="1039" on="0"/>
        <pt x="517" y="979" on="1"/>
        <pt x="328" y="475" on="0"/>
      </contour>
    </TTGlyph>
    <TTGlyph name="Uacute" xMin="175" yMin="-21" xMax="872" yMax="1467">
      <component glyphName="acute" x="390" y="313" flags="0x1004"/>
      <component glyphName="U" x="0" y="0" flags="0x1004"/>
    </TTGlyph>
    <TTGlyph name="Ucircumflex" xMin="175" yMin="-21" xMax="872" yMax="1451">
      <component glyphName="circumflex" x="334" y="307" flags="0x1004"/>
      <component glyphName="U" x="0" y="0" flags="0x1004"/>
    </TTGlyph>
    <TTGlyph name="Udieresis" xMin="175" yMin="-21" xMax="872" yMax="1556">
      <component glyphName="dieresis" x="124" y="351" flags="0x1004"/>
      <component glyphName="U" x="0" y="0" flags="0x1004"/>
    </TTGlyph>
    <TTGlyph name="Ugrave" xMin="175" yMin="-21" xMax="872" yMax="1490">
      <component glyphName="grave" x="339" y="359" flags="0x1004"/>
      <component glyphName="U" x="0" y="0" flags="0x1004"/>
    </TTGlyph>
    <TTGlyph name="V" xMin="24" yMin="-110" xMax="883" yMax="1168">
      <contour>
        <pt x="206" y="1105" on="1"/>
        <pt x="206" y="1168" on="0"/>
        <pt x="250" y="1168" on="1"/>
        <pt x="297" y="1168" on="0"/>
        <pt x="338" y="1077" on="0"/>
        <pt x="338" y="1026" on="1"/>
        <pt x="338" y="871" on="0"/>
        <pt x="229" y="394" on="0"/>
        <pt x="213" y="271" on="0"/>
        <pt x="206" y="231" on="1"/>
        <pt x="779" y="1041" on="1"/>
        <pt x="804" y="1065" on="0"/>
        <pt x="865" y="1064" on="1"/>
        <pt x="898" y="1063" on="0"/>
        <pt x="883" y="1037" on="1"/>
        <pt x="878" y="1029" on="0"/>
        <pt x="878" y="1013" on="0"/>
        <pt x="844" y="966" on="1"/>
        <pt x="223" y="111" on="0"/>
        <pt x="177" y="41" on="0"/>
        <pt x="159" y="23" on="1"/>
        <pt x="137" y="-73" on="1"/>
        <pt x="134" y="-84" on="0"/>
        <pt x="133" y="-88" on="1"/>
        <pt x="126" y="-110" on="0"/>
        <pt x="99" y="-110" on="1"/>
        <pt x="24" y="-109" on="0"/>
        <pt x="24" y="-41" on="1"/>
        <pt x="24" y="-30" on="0"/>
        <pt x="87" y="243" on="0"/>
        <pt x="127" y="445" on="0"/>
        <pt x="259" y="948" on="1"/>
        <pt x="267" y="977" on="0"/>
        <pt x="267" y="1017" on="1"/>
        <pt x="265" y="1033" on="0"/>
        <pt x="235" y="1061" on="1"/>
        <pt x="206" y="1084" on="0"/>
      </contour>
    </TTGlyph>
    <TTGlyph name="W" xMin="175" yMin="-21" xMax="1206" yMax="1111">
      <contour>
        <pt x="939" y="482" on="1"/>
        <pt x="823" y="228" on="0"/>
        <pt x="645" y="-20" on="0"/>
        <pt x="561" y="-21" on="1"/>
        <pt x="509" y="-19" on="0"/>
        <pt x="509" y="167" on="0"/>
        <pt x="561" y="386" on="1"/>
        <pt x="399" y="43" on="0"/>
        <pt x="275" y="-10" on="1"/>
        <pt x="250" y="-20" on="0"/>
        <pt x="227" y="-21" on="1"/>
        <pt x="175" y="-19" on="0"/>
        <pt x="175" y="75" on="1"/>
        <pt x="175" y="216" on="0"/>
        <pt x="345" y="826" on="0"/>
        <pt x="424" y="1029" on="0"/>
        <pt x="432" y="1054" on="1"/>
        <pt x="453" y="1111" on="0"/>
        <pt x="539" y="1110" on="0"/>
        <pt x="540" y="1069" on="1"/>
        <pt x="540" y="1039" on="0"/>
        <pt x="517" y="979" on="1"/>
        <pt x="328" y="475" on="0"/>
        <pt x="285" y="145" on="1"/>
        <pt x="297" y="146" on="0"/>
        <pt x="313" y="163" on="1"/>
        <pt x="472" y="348" on="0"/>
        <pt x="650" y="765" on="1"/>
        <pt x="727" y="950" on="1"/>
        <pt x="739" y="981" on="1"/>
        <pt x="758" y="1029" on="0"/>
        <pt x="766" y="1054" on="1"/>
        <pt x="787" y="1111" on="0"/>
        <pt x="873" y="1110" on="0"/>
        <pt x="874" y="1069" on="1"/>
        <pt x="874" y="1056" on="0"/>
        <pt x="872" y="1040" on="1"/>
        <pt x="869" y="1012" on="0"/>
        <pt x="833" y="930" on="0"/>
        <pt x="832" y="926" on="1"/>
        <pt x="659" y="450" on="0"/>
        <pt x="619" y="145" on="1"/>
        <pt x="631" y="146" on="0"/>
        <pt x="647" y="163" on="1"/>
        <pt x="807" y="348" on="0"/>
        <pt x="985" y="766" on="1"/>
        <pt x="993" y="784" on="0"/>
        <pt x="1117" y="1085" on="0"/>
        <pt x="1138" y="1097" on="1"/>
        <pt x="1144" y="1100" on="0"/>
        <pt x="1188" y="1101" on="0"/>
        <pt x="1206" y="1078" on="0"/>
        <pt x="1206" y="1028" on="0"/>
        <pt x="1173" y="945" on="0"/>
        <pt x="1167" y="930" on="0"/>
        <pt x="987" y="613" on="0"/>
      </contour>
    </TTGlyph>
    <TTGlyph name="W.alt1" xMin="8" yMin="-40" xMax="730" yMax="1181">
      <contour>
        <pt x="730" y="1049" on="1"/>
        <pt x="696" y="819" on="0"/>
        <pt x="568" y="421" on="1"/>
        <pt x="520" y="269" on="1"/>
        <pt x="502" y="213" on="0"/>
        <pt x="449" y="119" on="1"/>
        <pt x="359" y="-40" on="0"/>
        <pt x="307" y="-40" on="1"/>
        <pt x="234" y="-35" on="0"/>
        <pt x="234" y="146" on="1"/>
        <pt x="234" y="158" on="0"/>
        <pt x="251" y="381" on="1"/>
        <pt x="230" y="369" on="0"/>
        <pt x="167" y="262" on="0"/>
        <pt x="159" y="250" on="1"/>
        <pt x="107" y="164" on="0"/>
        <pt x="75" y="165" on="1"/>
        <pt x="54" y="166" on="0"/>
        <pt x="34" y="192" on="1"/>
        <pt x="8" y="232" on="0"/>
        <pt x="8" y="286" on="1"/>
        <pt x="8" y="397" on="0"/>
        <pt x="199" y="891" on="0"/>
        <pt x="210" y="933" on="1"/>
        <pt x="194" y="941" on="0"/>
        <pt x="152" y="941" on="0"/>
        <pt x="69" y="910" on="0"/>
        <pt x="61" y="910" on="1"/>
        <pt x="34" y="913" on="0"/>
        <pt x="32" y="954" on="1"/>
        <pt x="32" y="981" on="1"/>
        <pt x="32" y="1012" on="0"/>
        <pt x="39" y="1010" on="0"/>
        <pt x="64" y="995" on="0"/>
        <pt x="117" y="995" on="0"/>
        <pt x="152" y="1008" on="1"/>
        <pt x="247" y="1045" on="0"/>
        <pt x="288" y="1162" on="1"/>
        <pt x="295" y="1181" on="0"/>
        <pt x="319" y="1180" on="0"/>
        <pt x="333" y="1176" on="1"/>
        <pt x="390" y="1160" on="0"/>
        <pt x="390" y="1117" on="1"/>
        <pt x="386" y="1021" on="1"/>
        <pt x="273" y="929" on="0"/>
        <pt x="171" y="474" on="1"/>
        <pt x="165" y="445" on="1"/>
        <pt x="222" y="538" on="1"/>
        <pt x="379" y="802" on="0"/>
        <pt x="429" y="952" on="1"/>
        <pt x="489" y="927" on="0"/>
        <pt x="529" y="917" on="1"/>
        <pt x="526" y="883" on="1"/>
        <pt x="514" y="873" on="0"/>
        <pt x="487" y="809" on="0"/>
        <pt x="437" y="700" on="0"/>
        <pt x="330" y="326" on="0"/>
        <pt x="323" y="216" on="1"/>
        <pt x="325" y="187" on="0"/>
        <pt x="332" y="187" on="1"/>
        <pt x="376" y="187" on="0"/>
        <pt x="458" y="388" on="1"/>
        <pt x="594" y="721" on="0"/>
        <pt x="625" y="968" on="1"/>
        <pt x="641" y="1047" on="1"/>
        <pt x="642" y="1047" on="1"/>
        <pt x="706" y="1047" on="0"/>
      </contour>
    </TTGlyph>
    <TTGlyph name="X" xMin="-118" yMin="-220" xMax="612" yMax="1187">
      <contour>
        <pt x="612" y="929" on="1"/>
        <pt x="611" y="927" on="0"/>
        <pt x="606" y="911" on="1"/>
        <pt x="311" y="388" on="1"/>
        <pt x="321" y="166" on="0"/>
        <pt x="372" y="15" on="1"/>
        <pt x="388" y="-17" on="0"/>
        <pt x="384" y="-37" on="1"/>
        <pt x="380" y="-46" on="0"/>
        <pt x="336" y="-35" on="0"/>
        <pt x="253" y="79" on="0"/>
        <pt x="233" y="152" on="1"/>
        <pt x="233" y="154" on="0"/>
        <pt x="218" y="210" on="0"/>
        <pt x="217" y="220" on="1"/>
        <pt x="91" y="-3" on="1"/>
        <pt x="54" y="-66" on="0"/>
        <pt x="36" y="-102" on="1"/>
        <pt x="11" y="-151" on="0"/>
        <pt x="-15" y="-178" on="1"/>
        <pt x="-45" y="-214" on="0"/>
        <pt x="-100" y="-220" on="1"/>
        <pt x="-103" y="-220" on="0"/>
        <pt x="-123" y="-195" on="0"/>
        <pt x="-118" y="-185" on="1"/>
        <pt x="-114" y="-175" on="0"/>
        <pt x="-98" y="-157" on="1"/>
        <pt x="-77" y="-132" on="0"/>
        <pt x="-48" y="-76" on="0"/>
        <pt x="-20" y="-28" on="1"/>
        <pt x="214" y="393" on="1"/>
        <pt x="217" y="809" on="0"/>
        <pt x="217" y="1097" on="1"/>
        <pt x="217" y="1137" on="0"/>
        <pt x="256" y="1163" on="1"/>
        <pt x="294" y="1186" on="1"/>
        <pt x="306" y="1193" on="0"/>
        <pt x="329" y="1180" on="0"/>
        <pt x="326" y="1087" on="1"/>
        <pt x="310" y="613" on="1"/>
        <pt x="309" y="588" on="0"/>
        <pt x="309" y="562" on="1"/>
        <pt x="472" y="856" on="1"/>
        <pt x="501" y="913" on="0"/>
        <pt x="508" y="922" on="1"/>
        <pt x="529" y="947" on="0"/>
        <pt x="591" y="954" on="1"/>
        <pt x="594" y="954" on="0"/>
        <pt x="597" y="954" on="1"/>
        <pt x="620" y="955" on="0"/>
      </contour>
    </TTGlyph>
    <TTGlyph name="Y" xMin="15" yMin="-231" xMax="756" yMax="1182">
      <contour>
        <pt x="756" y="1161" on="1"/>
        <pt x="755" y="1158" on="0"/>
        <pt x="755" y="1156" on="1"/>
        <pt x="755" y="1150" on="0"/>
        <pt x="752" y="1138" on="1"/>
        <pt x="345" y="167" on="1"/>
        <pt x="272" y="-2" on="0"/>
        <pt x="167" y="-150" on="0"/>
        <pt x="57" y="-232" on="0"/>
        <pt x="14" y="-230" on="0"/>
        <pt x="16" y="-211" on="0"/>
        <pt x="30" y="-194" on="1"/>
        <pt x="131" y="-72" on="0"/>
        <pt x="235" y="154" on="1"/>
        <pt x="367" y="455" on="1"/>
        <pt x="295" y="906" on="0"/>
        <pt x="250" y="1113" on="0"/>
        <pt x="253" y="1140" on="1"/>
        <pt x="257" y="1163" on="0"/>
        <pt x="295" y="1176" on="1"/>
        <pt x="310" y="1181" on="0"/>
        <pt x="345" y="1180" on="0"/>
        <pt x="350" y="1162" on="1"/>
        <pt x="360" y="1114" on="0"/>
        <pt x="426" y="712" on="0"/>
        <pt x="441" y="634" on="1"/>
        <pt x="617" y="1075" on="1"/>
        <pt x="624" y="1091" on="0"/>
        <pt x="646" y="1159" on="0"/>
        <pt x="679" y="1181" on="0"/>
        <pt x="756" y="1182" on="0"/>
      </contour>
    </TTGlyph>
    <TTGlyph name="Yacute" xMin="-81" yMin="-231" xMax="660" yMax="1462">
      <component glyphName="acute" x="251" y="308" flags="0x1004"/>
      <component glyphName="Y" x="-96" y="0" flags="0x1004"/>
    </TTGlyph>
    <TTGlyph name="Z" xMin="-39" yMin="-12" xMax="988" yMax="1125">
      <contour>
        <pt x="826" y="1036" on="1"/>
        <pt x="398" y="1020" on="1"/>
        <pt x="371" y="1020" on="0"/>
        <pt x="340" y="1024" on="1"/>
        <pt x="224" y="1041" on="0"/>
        <pt x="224" y="1083" on="1"/>
        <pt x="224" y="1098" on="0"/>
        <pt x="254" y="1100" on="1"/>
        <pt x="256" y="1100" on="1"/>
        <pt x="455" y="1116" on="1"/>
        <pt x="613" y="1125" on="0"/>
        <pt x="738" y="1125" on="1"/>
        <pt x="934" y="1125" on="1"/>
        <pt x="967" y="1125" on="0"/>
        <pt x="984" y="1082" on="1"/>
        <pt x="989" y="1069" on="0"/>
        <pt x="987" y="1044" on="0"/>
        <pt x="947" y="1040" on="1"/>
        <pt x="935" y="1023" on="0"/>
        <pt x="916" y="1002" on="1"/>
        <pt x="133" y="104" on="1"/>
        <pt x="191" y="108" on="0"/>
        <pt x="339" y="121" on="1"/>
        <pt x="486" y="134" on="0"/>
        <pt x="520" y="135" on="1"/>
        <pt x="654" y="139" on="0"/>
        <pt x="677" y="93" on="1"/>
        <pt x="682" y="85" on="0"/>
        <pt x="682" y="78" on="1"/>
        <pt x="683" y="66" on="0"/>
        <pt x="659" y="61" on="0"/>
        <pt x="651" y="60" on="1"/>
        <pt x="483" y="37" on="1"/>
        <pt x="329" y="22" on="0"/>
        <pt x="119" y="15" on="0"/>
        <pt x="57" y="12" on="1"/>
        <pt x="35" y="-12" on="0"/>
        <pt x="-35" y="-12" on="0"/>
        <pt x="-42" y="38" on="0"/>
        <pt x="-28" y="73" on="0"/>
        <pt x="17" y="124" on="1"/>
      </contour>
    </TTGlyph>
    <TTGlyph name="a" xMin="-2" yMin="-40" xMax="894" yMax="762">
      <contour>
        <pt x="527" y="653" on="1"/>
        <pt x="367" y="626" on="0"/>
        <pt x="248" y="443" on="1"/>
        <pt x="132" y="265" on="0"/>
        <pt x="126" y="91" on="1"/>
        <pt x="355" y="393" on="0"/>
      </contour>
      <contour>
        <pt x="481" y="738" on="1"/>
        <pt x="540" y="730" on="1"/>
        <pt x="554" y="730" on="0"/>
        <pt x="585" y="762" on="0"/>
        <pt x="634" y="762" on="0"/>
        <pt x="663" y="736" on="0"/>
        <pt x="663" y="717" on="0"/>
        <pt x="643" y="673" on="0"/>
        <pt x="641" y="666" on="1"/>
        <pt x="508" y="249" on="0"/>
        <pt x="508" y="134" on="1"/>
        <pt x="509" y="94" on="0"/>
        <pt x="526" y="93" on="1"/>
        <pt x="587" y="93" on="0"/>
        <pt x="717" y="253" on="1"/>
        <pt x="804" y="360" on="0"/>
        <pt x="855" y="460" on="0"/>
        <pt x="870" y="463" on="1"/>
        <pt x="873" y="463" on="0"/>
        <pt x="875" y="464" on="1"/>
        <pt x="893" y="462" on="0"/>
        <pt x="894" y="443" on="1"/>
        <pt x="894" y="407" on="0"/>
        <pt x="811" y="281" on="1"/>
        <pt x="634" y="11" on="0"/>
        <pt x="505" y="11" on="1"/>
        <pt x="412" y="11" on="0"/>
        <pt x="412" y="141" on="1"/>
        <pt x="412" y="203" on="0"/>
        <pt x="462" y="388" on="0"/>
        <pt x="467" y="411" on="1"/>
        <pt x="444" y="381" on="0"/>
        <pt x="182" y="5" on="0"/>
        <pt x="125" y="-29" on="1"/>
        <pt x="107" y="-39" on="0"/>
        <pt x="94" y="-40" on="1"/>
        <pt x="37" y="-40" on="0"/>
        <pt x="11" y="5" on="1"/>
        <pt x="-1" y="27" on="0"/>
        <pt x="-2" y="110" on="0"/>
        <pt x="60" y="260" on="1"/>
        <pt x="160" y="502" on="0"/>
        <pt x="287" y="633" on="1"/>
        <pt x="387" y="735" on="0"/>
      </contour>
    </TTGlyph>
    <TTGlyph name="aacute" xMin="-2" yMin="-40" xMax="894" yMax="1154">
      <component glyphName="acute" x="383" y="0" flags="0x1004"/>
      <component glyphName="a" x="0" y="0" flags="0x1004"/>
    </TTGlyph>
    <TTGlyph name="acircumflex" xMin="-2" yMin="-40" xMax="894" yMax="1144">
      <component glyphName="circumflex" x="321" y="0" flags="0x1004"/>
      <component glyphName="a" x="0" y="0" flags="0x1004"/>
    </TTGlyph>
    <TTGlyph name="acute" xMin="67" yMin="872" xMax="374" yMax="1154">
      <contour>
        <pt x="156" y="953" on="1"/>
        <pt x="201" y="980" on="0"/>
        <pt x="299" y="1138" on="1"/>
        <pt x="312" y="1153" on="0"/>
        <pt x="323" y="1154" on="1"/>
        <pt x="350" y="1154" on="0"/>
        <pt x="367" y="1109" on="1"/>
        <pt x="373" y="1091" on="0"/>
        <pt x="374" y="1078" on="1"/>
        <pt x="374" y="1026" on="0"/>
        <pt x="230" y="934" on="1"/>
        <pt x="131" y="872" on="0"/>
        <pt x="94" y="872" on="0"/>
        <pt x="77" y="887" on="1"/>
        <pt x="66" y="898" on="0"/>
        <pt x="68" y="916" on="0"/>
        <pt x="74" y="918" on="1"/>
        <pt x="118" y="922" on="0"/>
      </contour>
    </TTGlyph>
    <TTGlyph name="adieresis" xMin="-2" yMin="-40" xMax="894" yMax="1205">
      <component glyphName="dieresis" x="43" y="0" flags="0x1004"/>
      <component glyphName="a" x="0" y="0" flags="0x1004"/>
    </TTGlyph>
    <TTGlyph name="ae" xMin="-6" yMin="-40" xMax="1051" yMax="821">
      <contour>
        <pt x="523" y="653" on="1"/>
        <pt x="324" y="617" on="0"/>
        <pt x="198" y="363" on="1"/>
        <pt x="126" y="216" on="0"/>
        <pt x="122" y="91" on="1"/>
        <pt x="350" y="393" on="0"/>
      </contour>
      <contour>
        <pt x="597" y="490" on="1"/>
        <pt x="617" y="493" on="0"/>
        <pt x="749" y="659" on="0"/>
        <pt x="749" y="706" on="1"/>
        <pt x="749" y="713" on="0"/>
        <pt x="744" y="722" on="1"/>
        <pt x="724" y="702" on="0"/>
        <pt x="597" y="514" on="0"/>
      </contour>
      <contour>
        <pt x="477" y="738" on="1"/>
        <pt x="536" y="730" on="1"/>
        <pt x="549" y="730" on="0"/>
        <pt x="580" y="762" on="0"/>
        <pt x="624" y="762" on="0"/>
        <pt x="648" y="747" on="1"/>
        <pt x="650" y="749" on="0"/>
        <pt x="713" y="821" on="0"/>
        <pt x="779" y="821" on="0"/>
        <pt x="806" y="810" on="1"/>
        <pt x="872" y="783" on="0"/>
        <pt x="872" y="723" on="1"/>
        <pt x="872" y="714" on="0"/>
        <pt x="866" y="694" on="1"/>
        <pt x="825" y="613" on="0"/>
        <pt x="643" y="401" on="0"/>
        <pt x="549" y="338" on="1"/>
        <pt x="517" y="222" on="0"/>
        <pt x="517" y="92" on="0"/>
        <pt x="520" y="74" on="1"/>
        <pt x="529" y="32" on="0"/>
        <pt x="645" y="32" on="0"/>
        <pt x="797" y="139" on="0"/>
        <pt x="969" y="315" on="0"/>
        <pt x="992" y="337" on="0"/>
        <pt x="1024" y="373" on="0"/>
        <pt x="1049" y="372" on="0"/>
        <pt x="1051" y="360" on="1"/>
        <pt x="1051" y="347" on="0"/>
        <pt x="1035" y="317" on="1"/>
        <pt x="986" y="226" on="0"/>
        <pt x="885" y="124" on="1"/>
        <pt x="725" y="-38" on="0"/>
        <pt x="602" y="-38" on="1"/>
        <pt x="544" y="-38" on="0"/>
        <pt x="503" y="-5" on="1"/>
        <pt x="426" y="58" on="0"/>
        <pt x="426" y="214" on="1"/>
        <pt x="426" y="300" on="0"/>
        <pt x="466" y="419" on="1"/>
        <pt x="460" y="411" on="0"/>
        <pt x="374" y="287" on="1"/>
        <pt x="288" y="164" on="0"/>
        <pt x="258" y="126" on="1"/>
        <pt x="210" y="63" on="1"/>
        <pt x="187" y="32" on="0"/>
        <pt x="176" y="19" on="1"/>
        <pt x="128" y="-40" on="0"/>
        <pt x="66" y="-40" on="0"/>
        <pt x="45" y="-30" on="1"/>
        <pt x="-6" y="-6" on="0"/>
        <pt x="-6" y="54" on="1"/>
        <pt x="-6" y="82" on="0"/>
        <pt x="15" y="147" on="1"/>
        <pt x="72" y="327" on="0"/>
        <pt x="174" y="490" on="1"/>
        <pt x="327" y="733" on="0"/>
      </contour>
    </TTGlyph>
    <TTGlyph name="agrave" xMin="-2" yMin="-40" xMax="894" yMax="1131">
      <component glyphName="grave" x="348" y="0" flags="0x1004"/>
      <component glyphName="a" x="0" y="0" flags="0x1004"/>
    </TTGlyph>
    <TTGlyph name="ampersand" xMin="67" yMin="-24" xMax="949" yMax="1168">
      <contour>
        <pt x="163" y="189" on="1"/>
        <pt x="163" y="59" on="0"/>
        <pt x="320" y="59" on="1"/>
        <pt x="427" y="59" on="0"/>
        <pt x="550" y="147" on="1"/>
        <pt x="596" y="182" on="1"/>
        <pt x="675" y="242" on="0"/>
        <pt x="724" y="256" on="0"/>
        <pt x="749" y="255" on="0"/>
        <pt x="749" y="230" on="1"/>
        <pt x="749" y="158" on="0"/>
        <pt x="629" y="82" on="1"/>
        <pt x="461" y="-24" on="0"/>
        <pt x="301" y="-24" on="1"/>
        <pt x="181" y="-24" on="0"/>
        <pt x="114" y="57" on="1"/>
        <pt x="67" y="115" on="0"/>
        <pt x="67" y="194" on="1"/>
        <pt x="67" y="434" on="0"/>
        <pt x="303" y="658" on="1"/>
        <pt x="383" y="734" on="0"/>
        <pt x="527" y="840" on="1"/>
        <pt x="523" y="866" on="0"/>
        <pt x="523" y="878" on="1"/>
        <pt x="523" y="988" on="0"/>
        <pt x="652" y="1168" on="0"/>
        <pt x="827" y="1168" on="0"/>
        <pt x="859" y="1107" on="0"/>
        <pt x="859" y="1062" on="1"/>
        <pt x="859" y="972" on="0"/>
        <pt x="763" y="884" on="1"/>
        <pt x="743" y="866" on="0"/>
        <pt x="652" y="792" on="0"/>
        <pt x="632" y="773" on="1"/>
        <pt x="656" y="687" on="1"/>
        <pt x="723" y="441" on="0"/>
        <pt x="802" y="285" on="0"/>
        <pt x="849" y="235" on="0"/>
        <pt x="938" y="202" on="0"/>
        <pt x="949" y="173" on="0"/>
        <pt x="949" y="163" on="1"/>
        <pt x="949" y="129" on="0"/>
        <pt x="919" y="118" on="1"/>
        <pt x="911" y="115" on="0"/>
        <pt x="903" y="115" on="1"/>
        <pt x="859" y="115" on="0"/>
        <pt x="797" y="201" on="1"/>
        <pt x="795" y="204" on="0"/>
        <pt x="794" y="205" on="1"/>
        <pt x="626" y="430" on="0"/>
        <pt x="549" y="726" on="1"/>
        <pt x="429" y="670" on="0"/>
        <pt x="321" y="547" on="1"/>
        <pt x="163" y="367" on="0"/>
      </contour>
      <contour>
        <pt x="621" y="867" on="1"/>
        <pt x="632" y="882" on="0"/>
        <pt x="699" y="954" on="1"/>
        <pt x="773" y="1034" on="0"/>
        <pt x="773" y="1094" on="1"/>
        <pt x="773" y="1095" on="0"/>
        <pt x="770" y="1122" on="1"/>
        <pt x="701" y="1076" on="0"/>
        <pt x="621" y="923" on="0"/>
      </contour>
    </TTGlyph>
    <TTGlyph name="aring" xMin="-2" yMin="-40" xMax="894" yMax="1054">
      <component glyphName="ring" x="272" y="-319" flags="0x1004"/>
      <component glyphName="a" x="0" y="0" flags="0x1004"/>
    </TTGlyph>
    <TTGlyph name="asciicircum" xMin="77" yMin="624" xMax="613" yMax="1089">
      <contour>
        <pt x="425" y="1089" on="1"/>
        <pt x="449" y="1113" on="0"/>
        <pt x="483" y="1083" on="1"/>
        <pt x="493" y="1077" on="0"/>
        <pt x="493" y="1068" on="1"/>
        <pt x="529" y="936" on="0"/>
        <pt x="613" y="681" on="0"/>
        <pt x="613" y="624" on="0"/>
        <pt x="552" y="624" on="0"/>
        <pt x="542" y="646" on="1"/>
        <pt x="540" y="650" on="0"/>
        <pt x="536" y="668" on="0"/>
        <pt x="507" y="754" on="1"/>
        <pt x="467" y="873" on="0"/>
        <pt x="443" y="997" on="1"/>
        <pt x="404" y="951" on="0"/>
        <pt x="285" y="787" on="0"/>
        <pt x="261" y="760" on="1"/>
        <pt x="244" y="741" on="1"/>
        <pt x="153" y="640" on="0"/>
        <pt x="132" y="633" on="1"/>
        <pt x="127" y="632" on="0"/>
        <pt x="80" y="634" on="0"/>
        <pt x="77" y="653" on="1"/>
        <pt x="78" y="658" on="0"/>
        <pt x="84" y="664" on="1"/>
        <pt x="278" y="920" on="0"/>
        <pt x="346" y="998" on="1"/>
        <pt x="422" y="1085" on="1"/>
        <pt x="425" y="1088" on="1"/>
      </contour>
    </TTGlyph>
    <TTGlyph name="asciitilde" xMin="126" yMin="278" xMax="933" yMax="491">
      <contour>
        <pt x="126" y="341" on="1"/>
        <pt x="126" y="480" on="0"/>
        <pt x="315" y="483" on="1"/>
        <pt x="392" y="483" on="0"/>
        <pt x="596" y="370" on="0"/>
        <pt x="656" y="347" on="0"/>
        <pt x="685" y="347" on="1"/>
        <pt x="746" y="347" on="0"/>
        <pt x="790" y="396" on="1"/>
        <pt x="797" y="404" on="0"/>
        <pt x="831" y="447" on="0"/>
        <pt x="873" y="489" on="0"/>
        <pt x="902" y="491" on="1"/>
        <pt x="932" y="489" on="0"/>
        <pt x="933" y="431" on="0"/>
        <pt x="898" y="387" on="0"/>
        <pt x="898" y="386" on="1"/>
        <pt x="815" y="279" on="0"/>
        <pt x="690" y="278" on="1"/>
        <pt x="633" y="278" on="0"/>
        <pt x="412" y="387" on="0"/>
        <pt x="339" y="405" on="0"/>
        <pt x="315" y="405" on="1"/>
        <pt x="244" y="404" on="0"/>
        <pt x="205" y="342" on="1"/>
        <pt x="202" y="338" on="0"/>
        <pt x="192" y="307" on="1"/>
        <pt x="183" y="284" on="0"/>
        <pt x="126" y="285" on="0"/>
      </contour>
    </TTGlyph>
    <TTGlyph name="asterisk" xMin="259" yMin="450" xMax="742" yMax="1045">
      <contour>
        <pt x="261" y="923" on="1"/>
        <pt x="261" y="954" on="0"/>
        <pt x="287" y="963" on="1"/>
        <pt x="297" y="962" on="0"/>
        <pt x="311" y="950" on="1"/>
        <pt x="376" y="884" on="0"/>
        <pt x="458" y="818" on="1"/>
        <pt x="453" y="922" on="0"/>
        <pt x="453" y="1018" on="1"/>
        <pt x="453" y="1036" on="0"/>
        <pt x="487" y="1044" on="1"/>
        <pt x="494" y="1045" on="0"/>
        <pt x="498" y="1045" on="1"/>
        <pt x="514" y="1044" on="0"/>
        <pt x="516" y="922" on="0"/>
        <pt x="527" y="813" on="1"/>
        <pt x="547" y="829" on="1"/>
        <pt x="670" y="919" on="0"/>
        <pt x="699" y="930" on="0"/>
        <pt x="737" y="930" on="0"/>
        <pt x="742" y="914" on="1"/>
        <pt x="744" y="907" on="0"/>
        <pt x="735" y="898" on="1"/>
        <pt x="555" y="741" on="1"/>
        <pt x="581" y="717" on="1"/>
        <pt x="678" y="620" on="0"/>
        <pt x="704" y="579" on="0"/>
        <pt x="704" y="537" on="0"/>
        <pt x="690" y="534" on="1"/>
        <pt x="683" y="535" on="0"/>
        <pt x="677" y="541" on="1"/>
        <pt x="539" y="666" on="1"/>
        <pt x="539" y="658" on="1"/>
        <pt x="539" y="509" on="0"/>
        <pt x="533" y="483" on="1"/>
        <pt x="525" y="450" on="0"/>
        <pt x="496" y="450" on="1"/>
        <pt x="484" y="453" on="0"/>
        <pt x="483" y="466" on="1"/>
        <pt x="474" y="565" on="0"/>
        <pt x="467" y="668" on="1"/>
        <pt x="341" y="568" on="1"/>
        <pt x="314" y="541" on="0"/>
        <pt x="279" y="541" on="0"/>
        <pt x="259" y="567" on="0"/>
        <pt x="260" y="583" on="0"/>
        <pt x="362" y="664" on="0"/>
        <pt x="449" y="745" on="1"/>
        <pt x="299" y="877" on="0"/>
        <pt x="266" y="910" on="1"/>
        <pt x="261" y="917" on="0"/>
      </contour>
    </TTGlyph>
    <TTGlyph name="at" xMin="77" yMin="-66" xMax="964" yMax="814">
      <contour>
        <pt x="682" y="597" on="1"/>
        <pt x="560" y="577" on="0"/>
        <pt x="474" y="431" on="1"/>
        <pt x="410" y="323" on="0"/>
        <pt x="400" y="217" on="1"/>
        <pt x="399" y="210" on="0"/>
        <pt x="400" y="205" on="1"/>
        <pt x="558" y="413" on="0"/>
      </contour>
      <contour>
        <pt x="690" y="651" on="1"/>
        <pt x="700" y="651" on="0"/>
        <pt x="722" y="674" on="0"/>
        <pt x="771" y="674" on="0"/>
        <pt x="776" y="650" on="1"/>
        <pt x="776" y="643" on="0"/>
        <pt x="761" y="610" on="0"/>
        <pt x="757" y="595" on="0"/>
        <pt x="668" y="299" on="0"/>
        <pt x="669" y="206" on="0"/>
        <pt x="680" y="205" on="1"/>
        <pt x="731" y="204" on="0"/>
        <pt x="801" y="286" on="1"/>
        <pt x="890" y="390" on="0"/>
        <pt x="890" y="652" on="0"/>
        <pt x="765" y="705" on="1"/>
        <pt x="705" y="730" on="0"/>
        <pt x="629" y="730" on="1"/>
        <pt x="339" y="730" on="0"/>
        <pt x="215" y="580" on="1"/>
        <pt x="151" y="501" on="0"/>
        <pt x="151" y="410" on="1"/>
        <pt x="151" y="219" on="0"/>
        <pt x="371" y="0" on="0"/>
        <pt x="568" y="0" on="1"/>
        <pt x="691" y="0" on="0"/>
        <pt x="801" y="66" on="0"/>
        <pt x="833" y="75" on="0"/>
        <pt x="879" y="73" on="0"/>
        <pt x="880" y="54" on="1"/>
        <pt x="880" y="-40" on="0"/>
        <pt x="679" y="-61" on="1"/>
        <pt x="633" y="-66" on="0"/>
        <pt x="584" y="-66" on="1"/>
        <pt x="279" y="-66" on="0"/>
        <pt x="151" y="142" on="1"/>
        <pt x="77" y="264" on="0"/>
        <pt x="77" y="430" on="1"/>
        <pt x="77" y="544" on="0"/>
        <pt x="160" y="640" on="1"/>
        <pt x="306" y="808" on="0"/>
        <pt x="633" y="814" on="1"/>
        <pt x="644" y="814" on="0"/>
        <pt x="655" y="814" on="1"/>
        <pt x="837" y="814" on="0"/>
        <pt x="920" y="699" on="1"/>
        <pt x="964" y="638" on="0"/>
        <pt x="964" y="570" on="1"/>
        <pt x="964" y="429" on="0"/>
        <pt x="880" y="311" on="1"/>
        <pt x="764" y="149" on="0"/>
        <pt x="666" y="149" on="1"/>
        <pt x="614" y="149" on="0"/>
        <pt x="602" y="208" on="1"/>
        <pt x="592" y="253" on="0"/>
        <pt x="629" y="389" on="1"/>
        <pt x="636" y="415" on="0"/>
        <pt x="639" y="429" on="1"/>
        <pt x="622" y="408" on="0"/>
        <pt x="524" y="268" on="1"/>
        <pt x="415" y="112" on="0"/>
        <pt x="337" y="112" on="0"/>
        <pt x="318" y="147" on="1"/>
        <pt x="310" y="162" on="0"/>
        <pt x="311" y="179" on="1"/>
        <pt x="311" y="224" on="0"/>
        <pt x="363" y="343" on="1"/>
        <pt x="448" y="538" on="0"/>
        <pt x="550" y="616" on="1"/>
        <pt x="601" y="654" on="0"/>
        <pt x="648" y="656" on="1"/>
      </contour>
    </TTGlyph>
    <TTGlyph name="atilde" xMin="-2" yMin="-40" xMax="894" yMax="1179">
      <component glyphName="tilde" x="220" y="0" flags="0x1004"/>
      <component glyphName="a" x="0" y="0" flags="0x1004"/>
    </TTGlyph>
    <TTGlyph name="b" xMin="26" yMin="-61" xMax="653" yMax="1283">
      <contour>
        <pt x="282" y="160" on="1"/>
        <pt x="283" y="127" on="0"/>
        <pt x="304" y="125" on="1"/>
        <pt x="319" y="125" on="0"/>
        <pt x="341" y="146" on="1"/>
        <pt x="408" y="211" on="0"/>
        <pt x="571" y="591" on="0"/>
        <pt x="571" y="651" on="1"/>
        <pt x="570" y="667" on="0"/>
        <pt x="554" y="670" on="1"/>
        <pt x="523" y="670" on="0"/>
        <pt x="493" y="654" on="1"/>
        <pt x="395" y="600" on="0"/>
        <pt x="328" y="394" on="1"/>
        <pt x="282" y="253" on="0"/>
      </contour>
      <contour>
        <pt x="250" y="-61" on="1"/>
        <pt x="185" y="-61" on="0"/>
        <pt x="184" y="98" on="1"/>
        <pt x="184" y="165" on="0"/>
        <pt x="232" y="416" on="0"/>
        <pt x="283" y="514" on="1"/>
        <pt x="252" y="472" on="0"/>
        <pt x="128" y="271" on="0"/>
        <pt x="104" y="235" on="1"/>
        <pt x="104" y="234" on="1"/>
        <pt x="76" y="192" on="0"/>
        <pt x="28" y="193" on="0"/>
        <pt x="26" y="216" on="1"/>
        <pt x="26" y="235" on="0"/>
        <pt x="54" y="280" on="1"/>
        <pt x="190" y="492" on="0"/>
        <pt x="475" y="1131" on="0"/>
        <pt x="501" y="1254" on="1"/>
        <pt x="508" y="1282" on="0"/>
        <pt x="554" y="1283" on="1"/>
        <pt x="569" y="1283" on="0"/>
        <pt x="585" y="1279" on="1"/>
        <pt x="626" y="1267" on="0"/>
        <pt x="626" y="1240" on="1"/>
        <pt x="626" y="1231" on="0"/>
        <pt x="619" y="1219" on="1"/>
        <pt x="448" y="924" on="0"/>
        <pt x="413" y="706" on="1"/>
        <pt x="484" y="748" on="0"/>
        <pt x="552" y="749" on="1"/>
        <pt x="576" y="749" on="0"/>
        <pt x="596" y="741" on="1"/>
        <pt x="653" y="719" on="0"/>
        <pt x="653" y="653" on="1"/>
        <pt x="653" y="613" on="0"/>
        <pt x="554" y="322" on="0"/>
        <pt x="327" y="-61" on="0"/>
      </contour>
    </TTGlyph>
    <TTGlyph name="b.alt1" xMin="40" yMin="-61" xMax="509" yMax="1282">
      <contour>
        <pt x="141" y="206" on="1"/>
        <pt x="138" y="179" on="0"/>
        <pt x="138" y="126" on="0"/>
        <pt x="160" y="125" on="1"/>
        <pt x="208" y="125" on="0"/>
        <pt x="383" y="467" on="0"/>
        <pt x="417" y="597" on="1"/>
        <pt x="426" y="633" on="0"/>
        <pt x="426" y="670" on="0"/>
        <pt x="410" y="670" on="1"/>
        <pt x="302" y="670" on="0"/>
        <pt x="219" y="486" on="1"/>
        <pt x="158" y="351" on="0"/>
      </contour>
      <contour>
        <pt x="357" y="1254" on="1"/>
        <pt x="369" y="1280" on="0"/>
        <pt x="455" y="1283" on="0"/>
        <pt x="482" y="1250" on="0"/>
        <pt x="481" y="1230" on="0"/>
        <pt x="475" y="1219" on="1"/>
        <pt x="304" y="923" on="0"/>
        <pt x="269" y="706" on="1"/>
        <pt x="341" y="749" on="0"/>
        <pt x="475" y="749" on="0"/>
        <pt x="500" y="698" on="1"/>
        <pt x="509" y="678" on="0"/>
        <pt x="509" y="653" on="1"/>
        <pt x="509" y="580" on="0"/>
        <pt x="319" y="136" on="0"/>
        <pt x="215" y="14" on="1"/>
        <pt x="151" y="-60" on="0"/>
        <pt x="106" y="-61" on="1"/>
        <pt x="46" y="-61" on="0"/>
        <pt x="41" y="73" on="1"/>
        <pt x="41" y="86" on="0"/>
        <pt x="40" y="98" on="1"/>
        <pt x="40" y="200" on="0"/>
        <pt x="157" y="620" on="0"/>
      </contour>
    </TTGlyph>
    <TTGlyph name="backslash" xMin="157" yMin="-86" xMax="483" yMax="1176">
      <contour>
        <pt x="213" y="1176" on="1"/>
        <pt x="246" y="1176" on="0"/>
        <pt x="261" y="1088" on="1"/>
        <pt x="321" y="764" on="0"/>
        <pt x="367" y="560" on="1"/>
        <pt x="416" y="342" on="1"/>
        <pt x="483" y="42" on="0"/>
        <pt x="482" y="-85" on="0"/>
        <pt x="445" y="-86" on="1"/>
        <pt x="420" y="-84" on="0"/>
        <pt x="411" y="-53" on="1"/>
        <pt x="260" y="507" on="0"/>
        <pt x="194" y="913" on="1"/>
        <pt x="194" y="913" on="0"/>
        <pt x="158" y="1136" on="1"/>
        <pt x="157" y="1142" on="0"/>
        <pt x="157" y="1147" on="1"/>
        <pt x="169" y="1172" on="0"/>
      </contour>
    </TTGlyph>
    <TTGlyph name="bar" xMin="81" yMin="-285" xMax="359" yMax="990">
      <contour>
        <pt x="359" y="956" on="1"/>
        <pt x="364" y="932" on="0"/>
        <pt x="310" y="665" on="0"/>
        <pt x="253" y="202" on="0"/>
        <pt x="175" y="-190" on="0"/>
        <pt x="138" y="-284" on="0"/>
        <pt x="109" y="-285" on="1"/>
        <pt x="81" y="-284" on="0"/>
        <pt x="81" y="-225" on="0"/>
        <pt x="203" y="575" on="0"/>
        <pt x="276" y="966" on="1"/>
        <pt x="281" y="989" on="0"/>
        <pt x="354" y="990" on="0"/>
      </contour>
    </TTGlyph>
    <TTGlyph name="braceleft" xMin="126" yMin="-291" xMax="547" yMax="1072">
      <contour>
        <pt x="366" y="782" on="1"/>
        <pt x="357" y="939" on="1"/>
        <pt x="357" y="1021" on="0"/>
        <pt x="415" y="1057" on="1"/>
        <pt x="440" y="1072" on="0"/>
        <pt x="466" y="1072" on="1"/>
        <pt x="520" y="1072" on="0"/>
        <pt x="539" y="1019" on="1"/>
        <pt x="547" y="997" on="0"/>
        <pt x="546" y="924" on="0"/>
        <pt x="523" y="923" on="1"/>
        <pt x="510" y="923" on="0"/>
        <pt x="486" y="956" on="0"/>
        <pt x="475" y="957" on="1"/>
        <pt x="436" y="957" on="0"/>
        <pt x="419" y="910" on="1"/>
        <pt x="413" y="893" on="0"/>
        <pt x="413" y="877" on="1"/>
        <pt x="435" y="752" on="1"/>
        <pt x="434" y="594" on="0"/>
        <pt x="341" y="438" on="1"/>
        <pt x="363" y="385" on="0"/>
        <pt x="363" y="243" on="0"/>
        <pt x="211" y="-46" on="0"/>
        <pt x="211" y="-176" on="0"/>
        <pt x="235" y="-189" on="0"/>
        <pt x="243" y="-189" on="1"/>
        <pt x="298" y="-174" on="1"/>
        <pt x="342" y="-174" on="0"/>
        <pt x="342" y="-263" on="0"/>
        <pt x="296" y="-282" on="1"/>
        <pt x="272" y="-291" on="0"/>
        <pt x="246" y="-291" on="1"/>
        <pt x="126" y="-291" on="0"/>
        <pt x="126" y="-122" on="1"/>
        <pt x="126" y="-34" on="0"/>
        <pt x="251" y="256" on="0"/>
        <pt x="269" y="323" on="0"/>
        <pt x="269" y="358" on="0"/>
        <pt x="267" y="363" on="1"/>
        <pt x="266" y="355" on="0"/>
        <pt x="238" y="354" on="0"/>
        <pt x="195" y="414" on="0"/>
        <pt x="194" y="459" on="0"/>
        <pt x="258" y="544" on="1"/>
        <pt x="366" y="687" on="0"/>
      </contour>
    </TTGlyph>
    <TTGlyph name="braceright" xMin="85" yMin="-288" xMax="505" yMax="1075">
      <contour>
        <pt x="265" y="2" on="1"/>
        <pt x="275" y="-155" on="1"/>
        <pt x="275" y="-236" on="0"/>
        <pt x="218" y="-272" on="1"/>
        <pt x="193" y="-287" on="0"/>
        <pt x="166" y="-288" on="1"/>
        <pt x="112" y="-288" on="0"/>
        <pt x="93" y="-235" on="1"/>
        <pt x="85" y="-213" on="0"/>
        <pt x="86" y="-140" on="0"/>
        <pt x="109" y="-139" on="1"/>
        <pt x="122" y="-139" on="0"/>
        <pt x="146" y="-172" on="0"/>
        <pt x="157" y="-173" on="1"/>
        <pt x="196" y="-173" on="0"/>
        <pt x="213" y="-126" on="1"/>
        <pt x="219" y="-109" on="0"/>
        <pt x="219" y="-93" on="1"/>
        <pt x="197" y="32" on="1"/>
        <pt x="198" y="190" on="0"/>
        <pt x="291" y="346" on="1"/>
        <pt x="269" y="399" on="0"/>
        <pt x="269" y="538" on="0"/>
        <pt x="386" y="765" on="0"/>
        <pt x="421" y="854" on="0"/>
        <pt x="421" y="960" on="0"/>
        <pt x="397" y="973" on="0"/>
        <pt x="389" y="973" on="1"/>
        <pt x="334" y="958" on="1"/>
        <pt x="298" y="958" on="0"/>
        <pt x="291" y="997" on="1"/>
        <pt x="290" y="1004" on="0"/>
        <pt x="289" y="1011" on="1"/>
        <pt x="289" y="1047" on="0"/>
        <pt x="336" y="1066" on="1"/>
        <pt x="359" y="1075" on="0"/>
        <pt x="385" y="1075" on="1"/>
        <pt x="505" y="1075" on="0"/>
        <pt x="505" y="906" on="1"/>
        <pt x="505" y="818" on="0"/>
        <pt x="443" y="673" on="1"/>
        <pt x="380" y="528" on="0"/>
        <pt x="372" y="494" on="1"/>
        <pt x="358" y="438" on="0"/>
        <pt x="365" y="421" on="1"/>
        <pt x="367" y="429" on="0"/>
        <pt x="392" y="430" on="0"/>
        <pt x="438" y="370" on="0"/>
        <pt x="438" y="348" on="1"/>
        <pt x="438" y="324" on="0"/>
        <pt x="374" y="240" on="1"/>
        <pt x="267" y="100" on="0"/>
      </contour>
    </TTGlyph>
    <TTGlyph name="bracketleft" xMin="174" yMin="-160" xMax="811" yMax="1099">
      <contour>
        <pt x="707" y="1024" on="1"/>
        <pt x="707" y="1024" on="0"/>
        <pt x="570" y="1022" on="1"/>
        <pt x="533" y="899" on="0"/>
        <pt x="315" y="81" on="0"/>
        <pt x="270" y="-70" on="1"/>
        <pt x="310" y="-67" on="0"/>
        <pt x="545" y="-61" on="0"/>
        <pt x="581" y="-53" on="1"/>
        <pt x="657" y="-36" on="0"/>
        <pt x="659" y="-62" on="1"/>
        <pt x="659" y="-119" on="0"/>
        <pt x="549" y="-144" on="1"/>
        <pt x="480" y="-160" on="0"/>
        <pt x="238" y="-160" on="1"/>
        <pt x="174" y="-159" on="0"/>
        <pt x="174" y="-110" on="1"/>
        <pt x="174" y="-85" on="0"/>
        <pt x="254" y="151" on="0"/>
        <pt x="344" y="512" on="1"/>
        <pt x="461" y="976" on="1"/>
        <pt x="467" y="998" on="0"/>
        <pt x="484" y="1083" on="0"/>
        <pt x="504" y="1098" on="0"/>
        <pt x="536" y="1098" on="0"/>
        <pt x="604" y="1099" on="0"/>
        <pt x="770" y="1099" on="0"/>
        <pt x="810" y="1077" on="0"/>
        <pt x="811" y="1069" on="1"/>
        <pt x="811" y="1048" on="0"/>
        <pt x="742" y="1024" on="0"/>
      </contour>
    </TTGlyph>
    <TTGlyph name="bracketright" xMin="58" yMin="-163" xMax="694" yMax="1094">
      <contour>
        <pt x="162" y="-90" on="1"/>
        <pt x="162" y="-90" on="0"/>
        <pt x="299" y="-88" on="1"/>
        <pt x="338" y="42" on="0"/>
        <pt x="554" y="858" on="0"/>
        <pt x="598" y="1005" on="1"/>
        <pt x="582" y="1004" on="0"/>
        <pt x="316" y="994" on="0"/>
        <pt x="284" y="986" on="1"/>
        <pt x="212" y="969" on="0"/>
        <pt x="210" y="997" on="1"/>
        <pt x="210" y="1054" on="0"/>
        <pt x="320" y="1079" on="1"/>
        <pt x="382" y="1094" on="0"/>
        <pt x="630" y="1094" on="1"/>
        <pt x="693" y="1091" on="0"/>
        <pt x="694" y="1045" on="1"/>
        <pt x="694" y="1016" on="0"/>
        <pt x="616" y="783" on="0"/>
        <pt x="526" y="422" on="1"/>
        <pt x="408" y="-42" on="1"/>
        <pt x="402" y="-63" on="0"/>
        <pt x="385" y="-147" on="0"/>
        <pt x="373" y="-156" on="1"/>
        <pt x="364" y="-162" on="0"/>
        <pt x="350" y="-163" on="1"/>
        <pt x="142" y="-163" on="0"/>
        <pt x="59" y="-160" on="0"/>
        <pt x="58" y="-134" on="1"/>
        <pt x="58" y="-114" on="0"/>
        <pt x="126" y="-90" on="0"/>
      </contour>
    </TTGlyph>
    <TTGlyph name="brokenbar" xMin="66" yMin="-285" xMax="344" yMax="990">
      <contour>
        <pt x="294" y="990" on="1"/>
        <pt x="344" y="990" on="0"/>
        <pt x="344" y="946" on="1"/>
        <pt x="344" y="926" on="0"/>
        <pt x="306" y="722" on="0"/>
        <pt x="280" y="530" on="1"/>
        <pt x="278" y="517" on="0"/>
        <pt x="250" y="474" on="0"/>
        <pt x="186" y="477" on="0"/>
        <pt x="181" y="510" on="1"/>
        <pt x="181" y="558" on="0"/>
        <pt x="261" y="966" on="1"/>
        <pt x="266" y="988" on="0"/>
      </contour>
      <contour>
        <pt x="187" y="239" on="1"/>
        <pt x="202" y="246" on="0"/>
        <pt x="236" y="244" on="0"/>
        <pt x="237" y="193" on="0"/>
        <pt x="230" y="159" on="1"/>
        <pt x="193" y="-28" on="1"/>
        <pt x="163" y="-182" on="0"/>
        <pt x="146" y="-228" on="1"/>
        <pt x="125" y="-285" on="0"/>
        <pt x="94" y="-285" on="1"/>
        <pt x="66" y="-284" on="0"/>
        <pt x="66" y="-225" on="0"/>
        <pt x="77" y="-163" on="1"/>
        <pt x="126" y="158" on="1"/>
        <pt x="136" y="215" on="0"/>
      </contour>
    </TTGlyph>
    <TTGlyph name="bullet" xMin="178" yMin="341" xMax="534" yMax="666">
      <contour>
        <pt x="178" y="546" on="1"/>
        <pt x="179" y="665" on="0"/>
        <pt x="378" y="666" on="1"/>
        <pt x="442" y="666" on="0"/>
        <pt x="534" y="581" on="0"/>
        <pt x="534" y="445" on="0"/>
        <pt x="502" y="404" on="1"/>
        <pt x="453" y="341" on="0"/>
        <pt x="281" y="341" on="0"/>
        <pt x="178" y="451" on="0"/>
      </contour>
    </TTGlyph>
    <TTGlyph name="c" xMin="78" yMin="-54" xMax="715" yMax="787">
      <contour>
        <pt x="381" y="787" on="1"/>
        <pt x="509" y="787" on="0"/>
        <pt x="509" y="704" on="1"/>
        <pt x="505" y="661" on="0"/>
        <pt x="375" y="384" on="0"/>
        <pt x="344" y="384" on="1"/>
        <pt x="329" y="387" on="0"/>
        <pt x="325" y="400" on="1"/>
        <pt x="325" y="408" on="0"/>
        <pt x="345" y="430" on="0"/>
        <pt x="359" y="459" on="1"/>
        <pt x="403" y="547" on="0"/>
        <pt x="403" y="667" on="0"/>
        <pt x="386" y="691" on="1"/>
        <pt x="359" y="690" on="0"/>
        <pt x="323" y="636" on="1"/>
        <pt x="258" y="535" on="0"/>
        <pt x="163" y="209" on="0"/>
        <pt x="163" y="114" on="1"/>
        <pt x="163" y="95" on="0"/>
        <pt x="164" y="84" on="1"/>
        <pt x="168" y="16" on="0"/>
        <pt x="221" y="16" on="1"/>
        <pt x="381" y="16" on="0"/>
        <pt x="654" y="294" on="1"/>
        <pt x="709" y="349" on="0"/>
        <pt x="715" y="318" on="1"/>
        <pt x="715" y="301" on="0"/>
        <pt x="695" y="268" on="1"/>
        <pt x="643" y="182" on="0"/>
        <pt x="534" y="87" on="1"/>
        <pt x="373" y="-54" on="0"/>
        <pt x="258" y="-54" on="1"/>
        <pt x="182" y="-53" on="0"/>
        <pt x="136" y="3" on="1"/>
        <pt x="90" y="58" on="0"/>
        <pt x="78" y="114" on="1"/>
        <pt x="49" y="249" on="0"/>
        <pt x="113" y="387" on="1"/>
        <pt x="115" y="391" on="0"/>
        <pt x="133" y="430" on="1"/>
        <pt x="239" y="665" on="0"/>
        <pt x="328" y="765" on="1"/>
        <pt x="348" y="786" on="0"/>
      </contour>
    </TTGlyph>
    <TTGlyph name="ccedilla" xMin="78" yMin="-266" xMax="715" yMax="787">
      <contour>
        <pt x="381" y="787" on="1"/>
        <pt x="509" y="787" on="0"/>
        <pt x="509" y="704" on="1"/>
        <pt x="505" y="661" on="0"/>
        <pt x="375" y="384" on="0"/>
        <pt x="344" y="384" on="1"/>
        <pt x="329" y="387" on="0"/>
        <pt x="325" y="400" on="1"/>
        <pt x="325" y="408" on="0"/>
        <pt x="345" y="430" on="0"/>
        <pt x="359" y="459" on="1"/>
        <pt x="403" y="547" on="0"/>
        <pt x="403" y="667" on="0"/>
        <pt x="386" y="691" on="1"/>
        <pt x="359" y="690" on="0"/>
        <pt x="323" y="636" on="1"/>
        <pt x="258" y="534" on="0"/>
        <pt x="163" y="209" on="0"/>
        <pt x="163" y="114" on="1"/>
        <pt x="163" y="101" on="0"/>
        <pt x="164" y="84" on="1"/>
        <pt x="168" y="16" on="0"/>
        <pt x="221" y="16" on="1"/>
        <pt x="377" y="17" on="0"/>
        <pt x="658" y="298" on="1"/>
        <pt x="709" y="352" on="0"/>
        <pt x="715" y="318" on="1"/>
        <pt x="714" y="300" on="0"/>
        <pt x="695" y="268" on="1"/>
        <pt x="645" y="183" on="0"/>
        <pt x="534" y="87" on="1"/>
        <pt x="371" y="-54" on="0"/>
        <pt x="258" y="-54" on="1"/>
        <pt x="251" y="-54" on="0"/>
        <pt x="241" y="-53" on="1"/>
        <pt x="235" y="-60" on="0"/>
        <pt x="235" y="-78" on="0"/>
        <pt x="271" y="-87" on="1"/>
        <pt x="297" y="-93" on="1"/>
        <pt x="370" y="-115" on="0"/>
        <pt x="370" y="-179" on="1"/>
        <pt x="370" y="-200" on="0"/>
        <pt x="321" y="-266" on="0"/>
        <pt x="255" y="-266" on="0"/>
        <pt x="253" y="-259" on="1"/>
        <pt x="254" y="-254" on="0"/>
        <pt x="306" y="-209" on="0"/>
        <pt x="305" y="-181" on="0"/>
        <pt x="289" y="-152" on="0"/>
        <pt x="216" y="-131" on="0"/>
        <pt x="208" y="-128" on="1"/>
        <pt x="162" y="-113" on="0"/>
        <pt x="162" y="-58" on="0"/>
        <pt x="179" y="-32" on="1"/>
        <pt x="152" y="-16" on="0"/>
        <pt x="122" y="22" on="1"/>
        <pt x="90" y="58" on="0"/>
        <pt x="78" y="114" on="1"/>
        <pt x="47" y="257" on="0"/>
        <pt x="113" y="387" on="1"/>
        <pt x="115" y="391" on="0"/>
        <pt x="133" y="430" on="1"/>
        <pt x="244" y="671" on="0"/>
        <pt x="328" y="765" on="1"/>
        <pt x="348" y="786" on="0"/>
      </contour>
    </TTGlyph>
    <TTGlyph name="cedilla" xMin="234" yMin="-266" xMax="442" yMax="16">
      <contour>
        <pt x="411" y="-38" on="1"/>
        <pt x="365" y="-30" on="1"/>
        <pt x="357" y="-30" on="0"/>
        <pt x="345" y="-34" on="1"/>
        <pt x="307" y="-47" on="0"/>
        <pt x="307" y="-69" on="1"/>
        <pt x="308" y="-79" on="0"/>
        <pt x="369" y="-93" on="1"/>
        <pt x="442" y="-115" on="0"/>
        <pt x="442" y="-179" on="1"/>
        <pt x="442" y="-199" on="0"/>
        <pt x="393" y="-266" on="0"/>
        <pt x="327" y="-266" on="0"/>
        <pt x="325" y="-259" on="1"/>
        <pt x="326" y="-254" on="0"/>
        <pt x="378" y="-209" on="0"/>
        <pt x="378" y="-181" on="0"/>
        <pt x="359" y="-151" on="0"/>
        <pt x="288" y="-131" on="0"/>
        <pt x="280" y="-128" on="1"/>
        <pt x="234" y="-113" on="0"/>
        <pt x="234" y="-83" on="1"/>
        <pt x="234" y="-59" on="0"/>
        <pt x="249" y="-35" on="1"/>
        <pt x="282" y="16" on="0"/>
        <pt x="344" y="16" on="1"/>
        <pt x="356" y="16" on="0"/>
        <pt x="370" y="12" on="1"/>
        <pt x="416" y="-2" on="0"/>
        <pt x="416" y="-35" on="1"/>
        <pt x="415" y="-37" on="0"/>
      </contour>
    </TTGlyph>
    <TTGlyph name="cent" xMin="9" yMin="-146" xMax="711" yMax="898">
      <contour>
        <pt x="177" y="-33" on="1"/>
        <pt x="69" y="31" on="0"/>
        <pt x="59" y="214" on="1"/>
        <pt x="39" y="214" on="0"/>
        <pt x="8" y="220" on="0"/>
        <pt x="11" y="260" on="0"/>
        <pt x="45" y="296" on="1"/>
        <pt x="90" y="336" on="0"/>
        <pt x="102" y="364" on="1"/>
        <pt x="131" y="430" on="1"/>
        <pt x="254" y="693" on="0"/>
        <pt x="325" y="765" on="1"/>
        <pt x="361" y="802" on="0"/>
        <pt x="440" y="779" on="1"/>
        <pt x="474" y="876" on="1"/>
        <pt x="483" y="898" on="0"/>
        <pt x="496" y="898" on="1"/>
        <pt x="547" y="898" on="0"/>
        <pt x="547" y="866" on="1"/>
        <pt x="547" y="842" on="0"/>
        <pt x="533" y="802" on="1"/>
        <pt x="504" y="722" on="1"/>
        <pt x="506" y="712" on="0"/>
        <pt x="506" y="706" on="1"/>
        <pt x="506" y="660" on="0"/>
        <pt x="429" y="505" on="1"/>
        <pt x="276" y="25" on="1"/>
        <pt x="425" y="68" on="0"/>
        <pt x="655" y="298" on="1"/>
        <pt x="685" y="330" on="0"/>
        <pt x="710" y="329" on="0"/>
        <pt x="712" y="301" on="0"/>
        <pt x="692" y="268" on="1"/>
        <pt x="640" y="182" on="0"/>
        <pt x="532" y="87" on="1"/>
        <pt x="371" y="-54" on="0"/>
        <pt x="255" y="-54" on="1"/>
        <pt x="254" y="-54" on="0"/>
        <pt x="249" y="-53" on="0"/>
        <pt x="248" y="-53" on="1"/>
        <pt x="234" y="-87" on="0"/>
        <pt x="202" y="-145" on="0"/>
        <pt x="179" y="-146" on="1"/>
        <pt x="177" y="-146" on="0"/>
        <pt x="173" y="-145" on="1"/>
        <pt x="155" y="-140" on="0"/>
        <pt x="155" y="-110" on="0"/>
        <pt x="157" y="-101" on="1"/>
      </contour>
      <contour>
        <pt x="160" y="114" on="1"/>
        <pt x="160" y="104" on="1"/>
        <pt x="161" y="33" on="0"/>
        <pt x="194" y="20" on="1"/>
        <pt x="321" y="434" on="0"/>
        <pt x="397" y="657" on="1"/>
        <pt x="394" y="674" on="0"/>
        <pt x="383" y="691" on="1"/>
        <pt x="356" y="690" on="0"/>
        <pt x="320" y="636" on="1"/>
        <pt x="255" y="535" on="0"/>
        <pt x="160" y="209" on="0"/>
      </contour>
    </TTGlyph>
    <TTGlyph name="circumflex" xMin="132" yMin="878" xMax="403" yMax="1144">
      <contour>
        <pt x="325" y="1022" on="1"/>
        <pt x="259" y="972" on="0"/>
        <pt x="182" y="898" on="1"/>
        <pt x="159" y="878" on="0"/>
        <pt x="152" y="878" on="1"/>
        <pt x="132" y="880" on="0"/>
        <pt x="132" y="947" on="0"/>
        <pt x="185" y="998" on="0"/>
        <pt x="292" y="1091" on="0"/>
        <pt x="344" y="1144" on="0"/>
        <pt x="383" y="1144" on="0"/>
        <pt x="403" y="1106" on="0"/>
        <pt x="403" y="1088" on="0"/>
        <pt x="389" y="989" on="0"/>
        <pt x="379" y="926" on="0"/>
        <pt x="334" y="890" on="0"/>
        <pt x="320" y="890" on="1"/>
        <pt x="310" y="892" on="0"/>
        <pt x="309" y="936" on="0"/>
      </contour>
    </TTGlyph>
    <TTGlyph name="colon" xMin="267" yMin="13" xMax="483" yMax="691">
      <contour>
        <pt x="299" y="195" on="1"/>
        <pt x="305" y="177" on="0"/>
        <pt x="322" y="154" on="0"/>
        <pt x="380" y="154" on="0"/>
        <pt x="390" y="151" on="1"/>
        <pt x="435" y="139" on="0"/>
        <pt x="435" y="85" on="1"/>
        <pt x="435" y="67" on="0"/>
        <pt x="428" y="52" on="1"/>
        <pt x="408" y="13" on="0"/>
        <pt x="326" y="13" on="0"/>
        <pt x="267" y="57" on="0"/>
        <pt x="267" y="102" on="1"/>
        <pt x="267" y="117" on="0"/>
        <pt x="269" y="129" on="0"/>
      </contour>
      <contour>
        <pt x="347" y="691" on="1"/>
        <pt x="353" y="673" on="0"/>
        <pt x="370" y="650" on="0"/>
        <pt x="428" y="650" on="0"/>
        <pt x="438" y="647" on="1"/>
        <pt x="483" y="635" on="0"/>
        <pt x="483" y="581" on="1"/>
        <pt x="483" y="563" on="0"/>
        <pt x="476" y="548" on="1"/>
        <pt x="456" y="509" on="0"/>
        <pt x="374" y="509" on="0"/>
        <pt x="315" y="553" on="0"/>
        <pt x="315" y="598" on="1"/>
        <pt x="315" y="613" on="0"/>
        <pt x="317" y="625" on="0"/>
      </contour>
    </TTGlyph>
    <TTGlyph name="comma" xMin="134" yMin="-139" xMax="294" yMax="195">
      <contour>
        <pt x="219" y="195" on="1"/>
        <pt x="272" y="195" on="0"/>
        <pt x="289" y="133" on="1"/>
        <pt x="294" y="113" on="0"/>
        <pt x="294" y="90" on="1"/>
        <pt x="294" y="15" on="0"/>
        <pt x="190" y="-138" on="0"/>
        <pt x="145" y="-139" on="1"/>
        <pt x="135" y="-138" on="0"/>
        <pt x="134" y="-131" on="1"/>
        <pt x="135" y="-125" on="0"/>
        <pt x="148" y="-109" on="1"/>
        <pt x="274" y="-5" on="0"/>
        <pt x="172" y="86" on="1"/>
        <pt x="140" y="113" on="0"/>
        <pt x="140" y="125" on="1"/>
        <pt x="140" y="164" on="0"/>
        <pt x="182" y="186" on="1"/>
        <pt x="200" y="195" on="0"/>
      </contour>
    </TTGlyph>
    <TTGlyph name="copyright" xMin="94" yMin="125" xMax="1091" yMax="1005">
      <contour>
        <pt x="94" y="621" on="1"/>
        <pt x="96" y="736" on="0"/>
        <pt x="183" y="837" on="1"/>
        <pt x="336" y="1005" on="0"/>
        <pt x="672" y="1005" on="1"/>
        <pt x="877" y="1005" on="0"/>
        <pt x="1091" y="766" on="0"/>
        <pt x="1091" y="573" on="1"/>
        <pt x="1091" y="560" on="1"/>
        <pt x="1086" y="355" on="0"/>
        <pt x="799" y="125" on="0"/>
        <pt x="601" y="125" on="1"/>
        <pt x="349" y="125" on="0"/>
        <pt x="94" y="403" on="0"/>
      </contour>
      <contour>
        <pt x="246" y="786" on="1"/>
        <pt x="168" y="703" on="0"/>
        <pt x="168" y="472" on="0"/>
        <pt x="221" y="375" on="1"/>
        <pt x="323" y="190" on="0"/>
        <pt x="585" y="190" on="1"/>
        <pt x="745" y="190" on="0"/>
        <pt x="857" y="277" on="1"/>
        <pt x="990" y="381" on="0"/>
        <pt x="990" y="563" on="1"/>
        <pt x="990" y="667" on="0"/>
        <pt x="950" y="750" on="1"/>
        <pt x="866" y="920" on="0"/>
        <pt x="646" y="920" on="1"/>
        <pt x="374" y="920" on="0"/>
      </contour>
      <contour>
        <pt x="573" y="854" on="1"/>
        <pt x="680" y="854" on="0"/>
        <pt x="685" y="803" on="1"/>
        <pt x="684" y="775" on="0"/>
        <pt x="588" y="573" on="0"/>
        <pt x="561" y="570" on="1"/>
        <pt x="549" y="572" on="0"/>
        <pt x="547" y="579" on="1"/>
        <pt x="547" y="584" on="0"/>
        <pt x="551" y="590" on="1"/>
        <pt x="599" y="656" on="0"/>
        <pt x="598" y="742" on="1"/>
        <pt x="598" y="774" on="0"/>
        <pt x="577" y="787" on="1"/>
        <pt x="544" y="783" on="0"/>
        <pt x="457" y="601" on="0"/>
        <pt x="419" y="437" on="0"/>
        <pt x="419" y="420" on="1"/>
        <pt x="419" y="402" on="1"/>
        <pt x="419" y="305" on="0"/>
        <pt x="469" y="302" on="1"/>
        <pt x="528" y="302" on="0"/>
        <pt x="691" y="396" on="0"/>
        <pt x="829" y="525" on="1"/>
        <pt x="850" y="553" on="0"/>
        <pt x="875" y="555" on="0"/>
        <pt x="877" y="544" on="1"/>
        <pt x="877" y="537" on="0"/>
        <pt x="869" y="522" on="1"/>
        <pt x="838" y="463" on="0"/>
        <pt x="754" y="386" on="1"/>
        <pt x="612" y="256" on="0"/>
        <pt x="499" y="256" on="1"/>
        <pt x="443" y="256" on="0"/>
        <pt x="344" y="341" on="0"/>
        <pt x="333" y="434" on="1"/>
        <pt x="310" y="434" on="1"/>
        <pt x="299" y="435" on="0"/>
        <pt x="289" y="451" on="1"/>
        <pt x="290" y="466" on="0"/>
        <pt x="351" y="521" on="0"/>
        <pt x="368" y="562" on="0"/>
        <pt x="383" y="592" on="1"/>
        <pt x="473" y="780" on="0"/>
        <pt x="531" y="838" on="1"/>
        <pt x="544" y="853" on="0"/>
      </contour>
    </TTGlyph>
    <TTGlyph name="currency" xMin="2" yMin="-82" xMax="731" yMax="1173">
      <contour>
        <pt x="163" y="166" on="1"/>
        <pt x="126" y="100" on="0"/>
        <pt x="96" y="-48" on="1"/>
        <pt x="96" y="-49" on="0"/>
        <pt x="95" y="-53" on="1"/>
        <pt x="89" y="-82" on="0"/>
        <pt x="59" y="-82" on="0"/>
        <pt x="2" y="-45" on="0"/>
        <pt x="3" y="22" on="0"/>
        <pt x="54" y="104" on="1"/>
        <pt x="123" y="215" on="0"/>
        <pt x="171" y="251" on="1"/>
        <pt x="182" y="312" on="0"/>
        <pt x="274" y="654" on="0"/>
        <pt x="359" y="842" on="1"/>
        <pt x="339" y="858" on="0"/>
        <pt x="194" y="1051" on="0"/>
        <pt x="194" y="1102" on="1"/>
        <pt x="194" y="1123" on="0"/>
        <pt x="238" y="1173" on="0"/>
        <pt x="268" y="1173" on="0"/>
        <pt x="283" y="1167" on="0"/>
        <pt x="318" y="993" on="0"/>
        <pt x="368" y="904" on="0"/>
        <pt x="382" y="890" on="1"/>
        <pt x="404" y="933" on="0"/>
        <pt x="431" y="963" on="0"/>
        <pt x="474" y="963" on="0"/>
        <pt x="479" y="962" on="1"/>
        <pt x="499" y="959" on="0"/>
        <pt x="500" y="886" on="0"/>
        <pt x="534" y="885" on="1"/>
        <pt x="536" y="881" on="1"/>
        <pt x="596" y="934" on="0"/>
        <pt x="637" y="1136" on="1"/>
        <pt x="637" y="1137" on="0"/>
        <pt x="638" y="1141" on="1"/>
        <pt x="644" y="1170" on="0"/>
        <pt x="674" y="1170" on="0"/>
        <pt x="731" y="1133" on="0"/>
        <pt x="730" y="1066" on="0"/>
        <pt x="627" y="901" on="0"/>
        <pt x="582" y="856" on="1"/>
        <pt x="564" y="838" on="1"/>
        <pt x="565" y="837" on="1"/>
        <pt x="563" y="836" on="0"/>
        <pt x="557" y="832" on="0"/>
        <pt x="551" y="830" on="1"/>
        <pt x="533" y="812" on="0"/>
        <pt x="507" y="617" on="0"/>
        <pt x="503" y="593" on="1"/>
        <pt x="467" y="347" on="0"/>
        <pt x="390" y="240" on="1"/>
        <pt x="387" y="235" on="1"/>
        <pt x="406" y="216" on="0"/>
        <pt x="439" y="172" on="1"/>
        <pt x="539" y="40" on="0"/>
        <pt x="539" y="-11" on="1"/>
        <pt x="539" y="-32" on="0"/>
        <pt x="495" y="-82" on="0"/>
        <pt x="465" y="-82" on="0"/>
        <pt x="451" y="-76" on="0"/>
        <pt x="418" y="85" on="0"/>
        <pt x="370" y="179" on="0"/>
        <pt x="357" y="193" on="1"/>
        <pt x="285" y="94" on="0"/>
        <pt x="172" y="94" on="0"/>
      </contour>
      <contour>
        <pt x="478" y="837" on="1"/>
        <pt x="437" y="837" on="0"/>
        <pt x="277" y="336" on="0"/>
        <pt x="274" y="263" on="0"/>
        <pt x="281" y="263" on="1"/>
        <pt x="317" y="263" on="0"/>
        <pt x="501" y="625" on="0"/>
        <pt x="501" y="754" on="1"/>
        <pt x="495" y="829" on="0"/>
      </contour>
    </TTGlyph>
    <TTGlyph name="d" xMin="-58" yMin="-226" xMax="1122" yMax="1541">
      <contour>
        <pt x="982" y="1310" on="1"/>
        <pt x="796" y="1004" on="0"/>
        <pt x="603" y="429" on="1"/>
        <pt x="603" y="429" on="0"/>
        <pt x="562" y="313" on="1"/>
        <pt x="455" y="18" on="0"/>
        <pt x="454" y="-75" on="1"/>
        <pt x="456" y="-91" on="0"/>
        <pt x="486" y="-119" on="1"/>
        <pt x="515" y="-142" on="0"/>
        <pt x="515" y="-163" on="1"/>
        <pt x="513" y="-220" on="0"/>
        <pt x="472" y="-226" on="1"/>
        <pt x="447" y="-226" on="0"/>
        <pt x="427" y="-208" on="1"/>
        <pt x="387" y="-171" on="0"/>
        <pt x="387" y="-88" on="1"/>
        <pt x="387" y="66" on="0"/>
        <pt x="518" y="435" on="0"/>
        <pt x="530" y="480" on="1"/>
        <pt x="427" y="345" on="1"/>
        <pt x="289" y="164" on="0"/>
        <pt x="176" y="54" on="1"/>
        <pt x="167" y="49" on="0"/>
        <pt x="82" y="-22" on="0"/>
        <pt x="22" y="-22" on="1"/>
        <pt x="5" y="-22" on="0"/>
        <pt x="-9" y="-16" on="1"/>
        <pt x="-58" y="4" on="0"/>
        <pt x="-58" y="74" on="1"/>
        <pt x="-58" y="110" on="0"/>
        <pt x="74" y="350" on="0"/>
        <pt x="395" y="734" on="0"/>
        <pt x="512" y="782" on="0"/>
        <pt x="578" y="782" on="1"/>
        <pt x="604" y="800" on="0"/>
        <pt x="662" y="868" on="0"/>
        <pt x="702" y="952" on="1"/>
        <pt x="754" y="1062" on="1"/>
        <pt x="771" y="1096" on="0"/>
        <pt x="857" y="1285" on="0"/>
        <pt x="882" y="1335" on="1"/>
        <pt x="985" y="1541" on="0"/>
        <pt x="1053" y="1541" on="1"/>
        <pt x="1120" y="1540" on="0"/>
        <pt x="1122" y="1475" on="1"/>
        <pt x="1122" y="1426" on="0"/>
        <pt x="1040" y="1310" on="0"/>
      </contour>
      <contour>
        <pt x="490" y="619" on="1"/>
        <pt x="500" y="649" on="0"/>
        <pt x="500" y="670" on="0"/>
        <pt x="496" y="672" on="1"/>
        <pt x="489" y="672" on="0"/>
        <pt x="434" y="619" on="1"/>
        <pt x="216" y="415" on="0"/>
        <pt x="78" y="178" on="1"/>
        <pt x="46" y="122" on="0"/>
        <pt x="46" y="92" on="0"/>
        <pt x="53" y="90" on="1"/>
        <pt x="62" y="90" on="0"/>
        <pt x="81" y="103" on="1"/>
        <pt x="152" y="151" on="0"/>
        <pt x="446" y="493" on="0"/>
      </contour>
    </TTGlyph>
    <TTGlyph name="degree" xMin="273" yMin="746" xMax="523" yMax="1058">
      <contour>
        <pt x="318" y="765" on="1"/>
        <pt x="273" y="799" on="0"/>
        <pt x="273" y="916" on="0"/>
        <pt x="292" y="964" on="1"/>
        <pt x="330" y="1058" on="0"/>
        <pt x="414" y="1058" on="1"/>
        <pt x="440" y="1058" on="0"/>
        <pt x="463" y="1049" on="1"/>
        <pt x="523" y="1024" on="0"/>
        <pt x="523" y="898" on="0"/>
        <pt x="496" y="841" on="1"/>
        <pt x="452" y="746" on="0"/>
        <pt x="374" y="746" on="1"/>
        <pt x="343" y="746" on="0"/>
      </contour>
      <contour>
        <pt x="406" y="1002" on="1"/>
        <pt x="372" y="1001" on="0"/>
        <pt x="318" y="904" on="0"/>
        <pt x="318" y="846" on="1"/>
        <pt x="322" y="802" on="0"/>
        <pt x="352" y="795" on="1"/>
        <pt x="386" y="796" on="0"/>
        <pt x="442" y="910" on="0"/>
        <pt x="442" y="1000" on="0"/>
      </contour>
    </TTGlyph>
    <TTGlyph name="dieresis" xMin="347" yMin="840" xMax="731" yMax="1205">
      <contour>
        <pt x="504" y="899" on="1"/>
        <pt x="548" y="922" on="0"/>
        <pt x="580" y="983" on="1"/>
        <pt x="590" y="1001" on="0"/>
        <pt x="616" y="1147" on="0"/>
        <pt x="630" y="1204" on="0"/>
        <pt x="687" y="1206" on="0"/>
        <pt x="731" y="1154" on="0"/>
        <pt x="731" y="1138" on="1"/>
        <pt x="731" y="1088" on="0"/>
        <pt x="634" y="958" on="1"/>
        <pt x="601" y="914" on="0"/>
        <pt x="577" y="890" on="1"/>
        <pt x="536" y="850" on="0"/>
        <pt x="503" y="880" on="1"/>
        <pt x="493" y="890" on="0"/>
      </contour>
      <contour>
        <pt x="401" y="926" on="1"/>
        <pt x="419" y="950" on="0"/>
        <pt x="448" y="1113" on="0"/>
        <pt x="462" y="1169" on="0"/>
        <pt x="519" y="1170" on="0"/>
        <pt x="563" y="1119" on="0"/>
        <pt x="563" y="1102" on="1"/>
        <pt x="563" y="1060" on="0"/>
        <pt x="466" y="922" on="1"/>
        <pt x="440" y="886" on="0"/>
        <pt x="418" y="866" on="1"/>
        <pt x="392" y="842" on="0"/>
        <pt x="363" y="839" on="0"/>
        <pt x="352" y="849" on="1"/>
        <pt x="334" y="865" on="0"/>
        <pt x="347" y="873" on="1"/>
        <pt x="380" y="894" on="0"/>
      </contour>
    </TTGlyph>
    <TTGlyph name="divide" xMin="124" yMin="203" xMax="804" yMax="810">
      <contour>
        <pt x="506" y="778" on="1"/>
        <pt x="559" y="778" on="0"/>
        <pt x="559" y="723" on="1"/>
        <pt x="559" y="710" on="0"/>
        <pt x="553" y="698" on="1"/>
        <pt x="538" y="667" on="0"/>
        <pt x="508" y="667" on="1"/>
        <pt x="428" y="667" on="0"/>
        <pt x="428" y="738" on="1"/>
        <pt x="428" y="755" on="0"/>
        <pt x="438" y="775" on="1"/>
        <pt x="454" y="810" on="1"/>
        <pt x="458" y="796" on="0"/>
        <pt x="470" y="778" on="0"/>
      </contour>
      <contour>
        <pt x="804" y="507" on="1"/>
        <pt x="803" y="490" on="0"/>
        <pt x="657" y="487" on="0"/>
        <pt x="404" y="459" on="0"/>
        <pt x="191" y="459" on="0"/>
        <pt x="163" y="466" on="1"/>
        <pt x="124" y="476" on="0"/>
        <pt x="124" y="510" on="1"/>
        <pt x="124" y="524" on="0"/>
        <pt x="139" y="526" on="1"/>
        <pt x="142" y="526" on="1"/>
        <pt x="564" y="562" on="0"/>
        <pt x="763" y="562" on="1"/>
        <pt x="774" y="562" on="1"/>
        <pt x="793" y="562" on="0"/>
        <pt x="802" y="523" on="1"/>
        <pt x="804" y="514" on="0"/>
      </contour>
      <contour>
        <pt x="426" y="314" on="1"/>
        <pt x="479" y="314" on="0"/>
        <pt x="479" y="259" on="1"/>
        <pt x="479" y="246" on="0"/>
        <pt x="473" y="234" on="1"/>
        <pt x="457" y="203" on="0"/>
        <pt x="397" y="203" on="0"/>
        <pt x="381" y="213" on="1"/>
        <pt x="348" y="233" on="0"/>
        <pt x="348" y="291" on="0"/>
        <pt x="358" y="311" on="1"/>
        <pt x="374" y="346" on="1"/>
        <pt x="378" y="332" on="0"/>
        <pt x="390" y="314" on="0"/>
      </contour>
    </TTGlyph>
    <TTGlyph name="dollar" xMin="18" yMin="-120" xMax="786" yMax="1312">
      <contour>
        <pt x="157" y="-118" on="1"/>
        <pt x="141" y="-110" on="0"/>
        <pt x="141" y="-62" on="0"/>
        <pt x="162" y="11" on="1"/>
        <pt x="137" y="24" on="0"/>
        <pt x="114" y="42" on="1"/>
        <pt x="18" y="116" on="0"/>
        <pt x="18" y="216" on="1"/>
        <pt x="19" y="254" on="0"/>
        <pt x="46" y="256" on="1"/>
        <pt x="58" y="256" on="0"/>
        <pt x="85" y="244" on="0"/>
        <pt x="96" y="218" on="1"/>
        <pt x="110" y="184" on="1"/>
        <pt x="140" y="123" on="0"/>
        <pt x="187" y="94" on="1"/>
        <pt x="320" y="555" on="1"/>
        <pt x="319" y="557" on="0"/>
        <pt x="318" y="561" on="1"/>
        <pt x="256" y="734" on="0"/>
        <pt x="256" y="940" on="0"/>
        <pt x="294" y="1018" on="1"/>
        <pt x="359" y="1149" on="0"/>
        <pt x="506" y="1176" on="1"/>
        <pt x="544" y="1293" on="1"/>
        <pt x="550" y="1310" on="0"/>
        <pt x="566" y="1312" on="1"/>
        <pt x="574" y="1312" on="0"/>
        <pt x="610" y="1293" on="0"/>
        <pt x="610" y="1231" on="0"/>
        <pt x="590" y="1181" on="1"/>
        <pt x="639" y="1179" on="0"/>
        <pt x="679" y="1164" on="1"/>
        <pt x="786" y="1122" on="0"/>
        <pt x="786" y="1005" on="1"/>
        <pt x="786" y="970" on="0"/>
        <pt x="779" y="941" on="1"/>
        <pt x="763" y="875" on="0"/>
        <pt x="723" y="875" on="1"/>
        <pt x="715" y="875" on="0"/>
        <pt x="708" y="878" on="1"/>
        <pt x="677" y="889" on="0"/>
        <pt x="677" y="926" on="1"/>
        <pt x="677" y="938" on="0"/>
        <pt x="701" y="1007" on="0"/>
        <pt x="701" y="1041" on="0"/>
        <pt x="688" y="1060" on="1"/>
        <pt x="655" y="1108" on="0"/>
        <pt x="569" y="1116" on="1"/>
        <pt x="510" y="924" on="0"/>
        <pt x="410" y="552" on="1"/>
        <pt x="438" y="443" on="1"/>
        <pt x="486" y="258" on="0"/>
        <pt x="486" y="115" on="0"/>
        <pt x="452" y="59" on="1"/>
        <pt x="400" y="-24" on="0"/>
        <pt x="293" y="-24" on="1"/>
        <pt x="261" y="-24" on="0"/>
        <pt x="230" y="-15" on="1"/>
        <pt x="192" y="-120" on="0"/>
        <pt x="163" y="-120" on="1"/>
        <pt x="160" y="-120" on="0"/>
      </contour>
      <contour>
        <pt x="370" y="407" on="1"/>
        <pt x="348" y="335" on="0"/>
        <pt x="262" y="78" on="1"/>
        <pt x="307" y="83" on="0"/>
        <pt x="394" y="174" on="0"/>
        <pt x="394" y="321" on="0"/>
      </contour>
      <contour>
        <pt x="375" y="742" on="1"/>
        <pt x="482" y="1100" on="1"/>
        <pt x="448" y="1081" on="0"/>
        <pt x="423" y="1042" on="1"/>
        <pt x="370" y="959" on="0"/>
        <pt x="370" y="830" on="1"/>
        <pt x="370" y="792" on="0"/>
      </contour>
    </TTGlyph>
    <TTGlyph name="dotlessi" xMin="74" yMin="-46" xMax="600" yMax="795">
      <contour>
        <pt x="597" y="294" on="1"/>
        <pt x="560" y="190" on="0"/>
        <pt x="450" y="82" on="1"/>
        <pt x="320" y="-46" on="0"/>
        <pt x="232" y="-46" on="1"/>
        <pt x="113" y="-46" on="0"/>
        <pt x="83" y="89" on="1"/>
        <pt x="74" y="130" on="0"/>
        <pt x="74" y="178" on="1"/>
        <pt x="74" y="333" on="0"/>
        <pt x="134" y="537" on="1"/>
        <pt x="209" y="795" on="0"/>
        <pt x="275" y="795" on="1"/>
        <pt x="308" y="795" on="0"/>
        <pt x="339" y="764" on="0"/>
        <pt x="339" y="757" on="1"/>
        <pt x="339" y="725" on="0"/>
        <pt x="209" y="474" on="0"/>
        <pt x="178" y="361" on="0"/>
        <pt x="163" y="180" on="0"/>
        <pt x="163" y="154" on="1"/>
        <pt x="163" y="66" on="0"/>
        <pt x="206" y="22" on="0"/>
        <pt x="237" y="21" on="1"/>
        <pt x="325" y="21" on="0"/>
        <pt x="447" y="174" on="1"/>
        <pt x="506" y="249" on="0"/>
        <pt x="539" y="312" on="1"/>
        <pt x="554" y="336" on="0"/>
        <pt x="570" y="336" on="1"/>
        <pt x="597" y="332" on="0"/>
        <pt x="600" y="309" on="1"/>
        <pt x="600" y="306" on="0"/>
      </contour>
    </TTGlyph>
    <TTGlyph name="e" xMin="79" yMin="-38" xMax="704" yMax="821">
      <contour>
        <pt x="250" y="490" on="1"/>
        <pt x="270" y="493" on="0"/>
        <pt x="402" y="659" on="0"/>
        <pt x="402" y="706" on="1"/>
        <pt x="402" y="713" on="0"/>
        <pt x="397" y="722" on="1"/>
        <pt x="377" y="702" on="0"/>
        <pt x="250" y="514" on="0"/>
      </contour>
      <contour>
        <pt x="648" y="341" on="1"/>
        <pt x="698" y="395" on="0"/>
        <pt x="704" y="360" on="1"/>
        <pt x="704" y="347" on="0"/>
        <pt x="688" y="317" on="1"/>
        <pt x="639" y="226" on="0"/>
        <pt x="538" y="124" on="1"/>
        <pt x="378" y="-38" on="0"/>
        <pt x="255" y="-38" on="1"/>
        <pt x="197" y="-38" on="0"/>
        <pt x="156" y="-5" on="1"/>
        <pt x="79" y="58" on="0"/>
        <pt x="79" y="214" on="1"/>
        <pt x="79" y="303" on="0"/>
        <pt x="188" y="626" on="0"/>
        <pt x="301" y="757" on="1"/>
        <pt x="351" y="821" on="0"/>
        <pt x="405" y="821" on="1"/>
        <pt x="431" y="821" on="0"/>
        <pt x="459" y="810" on="1"/>
        <pt x="525" y="783" on="0"/>
        <pt x="525" y="723" on="1"/>
        <pt x="525" y="714" on="0"/>
        <pt x="519" y="694" on="1"/>
        <pt x="478" y="613" on="0"/>
        <pt x="296" y="401" on="0"/>
        <pt x="202" y="338" on="1"/>
        <pt x="170" y="222" on="0"/>
        <pt x="170" y="92" on="0"/>
        <pt x="173" y="74" on="1"/>
        <pt x="182" y="32" on="0"/>
        <pt x="298" y="32" on="0"/>
        <pt x="450" y="139" on="0"/>
        <pt x="622" y="315" on="0"/>
        <pt x="645" y="337" on="0"/>
      </contour>
    </TTGlyph>
    <TTGlyph name="e.alt1" xMin="-33" yMin="-54" xMax="643" yMax="789">
      <contour>
        <pt x="197" y="464" on="1"/>
        <pt x="216" y="467" on="0"/>
        <pt x="346" y="630" on="0"/>
        <pt x="346" y="675" on="1"/>
        <pt x="346" y="682" on="0"/>
        <pt x="341" y="691" on="1"/>
        <pt x="330" y="667" on="0"/>
        <pt x="197" y="476" on="0"/>
      </contour>
      <contour>
        <pt x="591" y="322" on="1"/>
        <pt x="638" y="369" on="0"/>
        <pt x="643" y="336" on="1"/>
        <pt x="643" y="325" on="0"/>
        <pt x="629" y="299" on="1"/>
        <pt x="583" y="211" on="0"/>
        <pt x="485" y="111" on="1"/>
        <pt x="326" y="-54" on="0"/>
        <pt x="203" y="-54" on="1"/>
        <pt x="131" y="-53" on="0"/>
        <pt x="24" y="91" on="0"/>
        <pt x="18" y="214" on="1"/>
        <pt x="-2" y="214" on="0"/>
        <pt x="-34" y="220" on="0"/>
        <pt x="-31" y="259" on="0"/>
        <pt x="4" y="297" on="1"/>
        <pt x="48" y="337" on="0"/>
        <pt x="57" y="358" on="1"/>
        <pt x="72" y="393" on="1"/>
        <pt x="181" y="639" on="0"/>
        <pt x="256" y="733" on="1"/>
        <pt x="297" y="789" on="0"/>
        <pt x="379" y="789" on="0"/>
        <pt x="409" y="775" on="1"/>
        <pt x="467" y="747" on="0"/>
        <pt x="467" y="693" on="1"/>
        <pt x="467" y="684" on="0"/>
        <pt x="461" y="664" on="1"/>
        <pt x="422" y="585" on="0"/>
        <pt x="243" y="377" on="0"/>
        <pt x="149" y="315" on="1"/>
        <pt x="118" y="194" on="0"/>
        <pt x="118" y="70" on="0"/>
        <pt x="122" y="55" on="1"/>
        <pt x="132" y="16" on="0"/>
        <pt x="245" y="16" on="0"/>
        <pt x="400" y="124" on="0"/>
        <pt x="484" y="212" on="1"/>
        <pt x="582" y="314" on="1"/>
        <pt x="585" y="316" on="0"/>
      </contour>
    </TTGlyph>
    <TTGlyph name="eacute" xMin="79" yMin="-38" xMax="704" yMax="1154">
      <component glyphName="acute" x="230" y="0" flags="0x1004"/>
      <component glyphName="e" x="0" y="0" flags="0x1004"/>
    </TTGlyph>
    <TTGlyph name="ecircumflex" xMin="79" yMin="-38" xMax="704" yMax="1144">
      <component glyphName="circumflex" x="184" y="0" flags="0x1004"/>
      <component glyphName="e" x="0" y="0" flags="0x1004"/>
    </TTGlyph>
    <TTGlyph name="edieresis" xMin="79" yMin="-38" xMax="704" yMax="1205">
      <component glyphName="dieresis" x="-62" y="0" flags="0x1004"/>
      <component glyphName="e" x="0" y="0" flags="0x1004"/>
    </TTGlyph>
    <TTGlyph name="egrave" xMin="79" yMin="-38" xMax="704" yMax="1131">
      <component glyphName="grave" x="227" y="0" flags="0x1004"/>
      <component glyphName="e" x="0" y="0" flags="0x1004"/>
    </TTGlyph>
    <TTGlyph name="eight" xMin="92" yMin="-98" xMax="672" yMax="1147">
      <contour>
        <pt x="351" y="770" on="1"/>
        <pt x="351" y="931" on="0"/>
        <pt x="427" y="1106" on="0"/>
        <pt x="488" y="1147" on="0"/>
        <pt x="512" y="1147" on="1"/>
        <pt x="577" y="1147" on="0"/>
        <pt x="671" y="1076" on="0"/>
        <pt x="672" y="1038" on="1"/>
        <pt x="672" y="967" on="0"/>
        <pt x="588" y="885" on="1"/>
        <pt x="536" y="837" on="1"/>
        <pt x="454" y="764" on="0"/>
        <pt x="426" y="723" on="1"/>
        <pt x="461" y="668" on="0"/>
        <pt x="461" y="272" on="0"/>
        <pt x="400" y="94" on="1"/>
        <pt x="334" y="-98" on="0"/>
        <pt x="223" y="-98" on="1"/>
        <pt x="96" y="-98" on="0"/>
        <pt x="93" y="87" on="1"/>
        <pt x="93" y="93" on="0"/>
        <pt x="92" y="98" on="1"/>
        <pt x="92" y="398" on="0"/>
        <pt x="345" y="729" on="1"/>
        <pt x="352" y="738" on="0"/>
        <pt x="351" y="764" on="0"/>
      </contour>
      <contour>
        <pt x="247" y="24" on="1"/>
        <pt x="252" y="24" on="1"/>
        <pt x="304" y="24" on="0"/>
        <pt x="344" y="146" on="1"/>
        <pt x="415" y="362" on="0"/>
        <pt x="360" y="605" on="1"/>
        <pt x="325" y="582" on="0"/>
        <pt x="186" y="269" on="0"/>
        <pt x="182" y="143" on="1"/>
        <pt x="182" y="137" on="0"/>
        <pt x="181" y="133" on="1"/>
        <pt x="182" y="33" on="0"/>
      </contour>
      <contour>
        <pt x="416" y="822" on="1"/>
        <pt x="431" y="844" on="0"/>
        <pt x="554" y="997" on="0"/>
        <pt x="575" y="1064" on="1"/>
        <pt x="505" y="1042" on="0"/>
        <pt x="416" y="895" on="0"/>
      </contour>
    </TTGlyph>
    <TTGlyph name="ellipsis" xMin="144" yMin="-3" xMax="947" yMax="179">
      <contour>
        <pt x="176" y="179" on="1"/>
        <pt x="182" y="161" on="0"/>
        <pt x="199" y="138" on="0"/>
        <pt x="257" y="138" on="0"/>
        <pt x="267" y="135" on="1"/>
        <pt x="312" y="123" on="0"/>
        <pt x="312" y="69" on="1"/>
        <pt x="312" y="51" on="0"/>
        <pt x="305" y="36" on="1"/>
        <pt x="285" y="-3" on="0"/>
        <pt x="203" y="-3" on="0"/>
        <pt x="144" y="41" on="0"/>
        <pt x="144" y="86" on="1"/>
        <pt x="144" y="101" on="0"/>
        <pt x="146" y="113" on="0"/>
      </contour>
      <contour>
        <pt x="491" y="179" on="1"/>
        <pt x="497" y="161" on="0"/>
        <pt x="514" y="138" on="0"/>
        <pt x="572" y="138" on="0"/>
        <pt x="582" y="135" on="1"/>
        <pt x="627" y="123" on="0"/>
        <pt x="627" y="69" on="1"/>
        <pt x="627" y="51" on="0"/>
        <pt x="620" y="36" on="1"/>
        <pt x="600" y="-3" on="0"/>
        <pt x="518" y="-3" on="0"/>
        <pt x="459" y="41" on="0"/>
        <pt x="459" y="86" on="1"/>
        <pt x="459" y="101" on="0"/>
        <pt x="461" y="113" on="0"/>
      </contour>
      <contour>
        <pt x="811" y="179" on="1"/>
        <pt x="817" y="161" on="0"/>
        <pt x="834" y="138" on="0"/>
        <pt x="892" y="138" on="0"/>
        <pt x="902" y="135" on="1"/>
        <pt x="947" y="123" on="0"/>
        <pt x="947" y="69" on="1"/>
        <pt x="947" y="51" on="0"/>
        <pt x="940" y="36" on="1"/>
        <pt x="920" y="-3" on="0"/>
        <pt x="838" y="-3" on="0"/>
        <pt x="779" y="41" on="0"/>
        <pt x="779" y="86" on="1"/>
        <pt x="779" y="101" on="0"/>
        <pt x="781" y="113" on="0"/>
      </contour>
    </TTGlyph>
    <TTGlyph name="emdash" xMin="56" yMin="379" xMax="926" yMax="494">
      <contour>
        <pt x="56" y="437" on="1"/>
        <pt x="56" y="454" on="0"/>
        <pt x="78" y="454" on="1"/>
        <pt x="625" y="493" on="0"/>
        <pt x="861" y="494" on="1"/>
        <pt x="886" y="494" on="1"/>
        <pt x="911" y="494" on="0"/>
        <pt x="923" y="453" on="1"/>
        <pt x="926" y="441" on="0"/>
        <pt x="926" y="432" on="1"/>
        <pt x="925" y="413" on="0"/>
        <pt x="869" y="413" on="1"/>
        <pt x="725" y="410" on="0"/>
        <pt x="415" y="379" on="0"/>
        <pt x="155" y="379" on="0"/>
        <pt x="117" y="386" on="1"/>
        <pt x="61" y="403" on="0"/>
      </contour>
    </TTGlyph>
    <TTGlyph name="endash" xMin="184" yMin="379" xMax="781" yMax="482">
      <contour>
        <pt x="781" y="427" on="1"/>
        <pt x="780" y="410" on="0"/>
        <pt x="652" y="407" on="0"/>
        <pt x="429" y="379" on="0"/>
        <pt x="256" y="379" on="0"/>
        <pt x="224" y="384" on="1"/>
        <pt x="184" y="398" on="0"/>
        <pt x="184" y="430" on="1"/>
        <pt x="184" y="444" on="0"/>
        <pt x="198" y="446" on="1"/>
        <pt x="200" y="446" on="1"/>
        <pt x="581" y="482" on="0"/>
        <pt x="754" y="482" on="1"/>
        <pt x="771" y="482" on="0"/>
        <pt x="779" y="441" on="1"/>
        <pt x="781" y="432" on="0"/>
      </contour>
    </TTGlyph>
    <TTGlyph name="equal" xMin="194" yMin="381" xMax="947" yMax="750">
      <contour>
        <pt x="909" y="750" on="1"/>
        <pt x="917" y="750" on="1"/>
        <pt x="936" y="750" on="0"/>
        <pt x="945" y="713" on="1"/>
        <pt x="947" y="704" on="0"/>
        <pt x="947" y="698" on="1"/>
        <pt x="946" y="680" on="0"/>
        <pt x="904" y="680" on="1"/>
        <pt x="795" y="677" on="0"/>
        <pt x="544" y="651" on="0"/>
        <pt x="438" y="651" on="1"/>
        <pt x="331" y="652" on="0"/>
        <pt x="303" y="658" on="1"/>
        <pt x="264" y="666" on="0"/>
        <pt x="264" y="701" on="1"/>
        <pt x="264" y="715" on="0"/>
        <pt x="279" y="717" on="1"/>
        <pt x="282" y="717" on="1"/>
        <pt x="666" y="748" on="0"/>
      </contour>
      <contour>
        <pt x="877" y="427" on="1"/>
        <pt x="876" y="410" on="0"/>
        <pt x="725" y="407" on="0"/>
        <pt x="474" y="381" on="0"/>
        <pt x="368" y="381" on="1"/>
        <pt x="261" y="380" on="0"/>
        <pt x="234" y="386" on="1"/>
        <pt x="200" y="394" on="0"/>
        <pt x="194" y="430" on="1"/>
        <pt x="194" y="444" on="0"/>
        <pt x="208" y="446" on="1"/>
        <pt x="211" y="446" on="1"/>
        <pt x="636" y="480" on="0"/>
        <pt x="846" y="480" on="1"/>
        <pt x="866" y="480" on="0"/>
        <pt x="875" y="442" on="1"/>
        <pt x="877" y="433" on="0"/>
      </contour>
    </TTGlyph>
    <TTGlyph name="eth" xMin="22" yMin="-141" xMax="696" yMax="1224">
      <contour>
        <pt x="429" y="682" on="1"/>
        <pt x="448" y="680" on="1"/>
        <pt x="461" y="680" on="0"/>
        <pt x="469" y="682" on="1"/>
        <pt x="482" y="729" on="0"/>
        <pt x="494" y="794" on="1"/>
        <pt x="462" y="788" on="0"/>
        <pt x="342" y="788" on="0"/>
        <pt x="320" y="793" on="1"/>
        <pt x="294" y="809" on="0"/>
        <pt x="293" y="838" on="1"/>
        <pt x="295" y="851" on="0"/>
        <pt x="304" y="854" on="1"/>
        <pt x="416" y="869" on="0"/>
        <pt x="505" y="878" on="1"/>
        <pt x="517" y="986" on="0"/>
        <pt x="517" y="1158" on="0"/>
        <pt x="515" y="1187" on="1"/>
        <pt x="520" y="1221" on="0"/>
        <pt x="555" y="1224" on="1"/>
        <pt x="603" y="1224" on="0"/>
        <pt x="636" y="1179" on="0"/>
        <pt x="637" y="1162" on="1"/>
        <pt x="584" y="884" on="1"/>
        <pt x="637" y="887" on="0"/>
        <pt x="678" y="887" on="1"/>
        <pt x="692" y="878" on="0"/>
        <pt x="696" y="835" on="1"/>
        <pt x="695" y="817" on="0"/>
        <pt x="622" y="815" on="0"/>
        <pt x="569" y="807" on="1"/>
        <pt x="460" y="246" on="0"/>
        <pt x="392" y="38" on="0"/>
        <pt x="368" y="-8" on="1"/>
        <pt x="295" y="-141" on="0"/>
        <pt x="173" y="-141" on="1"/>
        <pt x="23" y="-139" on="0"/>
        <pt x="22" y="-14" on="1"/>
        <pt x="22" y="86" on="0"/>
        <pt x="131" y="302" on="1"/>
        <pt x="170" y="380" on="0"/>
        <pt x="182" y="402" on="1"/>
        <pt x="261" y="557" on="0"/>
        <pt x="348" y="637" on="1"/>
        <pt x="396" y="681" on="0"/>
      </contour>
      <contour>
        <pt x="366" y="491" on="1"/>
        <pt x="333" y="491" on="0"/>
        <pt x="260" y="366" on="1"/>
        <pt x="244" y="338" on="1"/>
        <pt x="114" y="85" on="0"/>
        <pt x="110" y="0" on="1"/>
        <pt x="112" y="-50" on="0"/>
        <pt x="154" y="-51" on="1"/>
        <pt x="284" y="-51" on="0"/>
        <pt x="348" y="144" on="1"/>
        <pt x="389" y="271" on="0"/>
        <pt x="389" y="413" on="1"/>
        <pt x="388" y="490" on="0"/>
      </contour>
    </TTGlyph>
    <TTGlyph name="exclam" xMin="48" yMin="-3" xMax="336" yMax="998">
      <contour>
        <pt x="275" y="998" on="1"/>
        <pt x="336" y="998" on="0"/>
        <pt x="336" y="954" on="1"/>
        <pt x="336" y="946" on="0"/>
        <pt x="306" y="811" on="0"/>
        <pt x="290" y="678" on="1"/>
        <pt x="260" y="434" on="0"/>
        <pt x="203" y="312" on="1"/>
        <pt x="189" y="287" on="0"/>
        <pt x="135" y="286" on="0"/>
        <pt x="131" y="312" on="1"/>
        <pt x="131" y="316" on="0"/>
        <pt x="130" y="344" on="0"/>
        <pt x="139" y="384" on="1"/>
        <pt x="154" y="451" on="0"/>
        <pt x="224" y="852" on="0"/>
        <pt x="243" y="929" on="0"/>
        <pt x="257" y="994" on="0"/>
      </contour>
      <contour>
        <pt x="138" y="123" on="1"/>
        <pt x="198" y="123" on="0"/>
        <pt x="198" y="61" on="1"/>
        <pt x="198" y="47" on="0"/>
        <pt x="193" y="34" on="1"/>
        <pt x="177" y="-3" on="0"/>
        <pt x="102" y="-3" on="0"/>
        <pt x="48" y="35" on="0"/>
        <pt x="48" y="94" on="0"/>
        <pt x="69" y="143" on="0"/>
        <pt x="77" y="160" on="1"/>
        <pt x="81" y="144" on="0"/>
        <pt x="97" y="123" on="0"/>
      </contour>
    </TTGlyph>
    <TTGlyph name="exclamdown" xMin="58" yMin="-178" xMax="346" yMax="823">
      <component glyphName="exclam" x="394" y="820" scale="-1.0" flags="0x1004"/>
    </TTGlyph>
    <TTGlyph name="f" xMin="-374" yMin="-579" xMax="662" yMax="1264">
      <contour>
        <pt x="524" y="685" on="1"/>
        <pt x="421" y="690" on="1"/>
        <pt x="330" y="689" on="0"/>
        <pt x="218" y="491" on="0"/>
        <pt x="52" y="-96" on="0"/>
        <pt x="22" y="-174" on="1"/>
        <pt x="-123" y="-545" on="0"/>
        <pt x="-284" y="-576" on="1"/>
        <pt x="-299" y="-579" on="0"/>
        <pt x="-312" y="-579" on="1"/>
        <pt x="-369" y="-579" on="0"/>
        <pt x="-374" y="-526" on="1"/>
        <pt x="-374" y="-497" on="0"/>
        <pt x="-342" y="-486" on="1"/>
        <pt x="-218" y="-450" on="0"/>
        <pt x="-123" y="-350" on="0"/>
        <pt x="-90" y="-280" on="1"/>
        <pt x="0" y="-88" on="0"/>
        <pt x="200" y="786" on="0"/>
        <pt x="302" y="1107" on="1"/>
        <pt x="327" y="1185" on="0"/>
        <pt x="406" y="1263" on="0"/>
        <pt x="437" y="1264" on="1"/>
        <pt x="510" y="1264" on="0"/>
        <pt x="510" y="1146" on="1"/>
        <pt x="510" y="1104" on="0"/>
        <pt x="462" y="1061" on="0"/>
        <pt x="406" y="1062" on="0"/>
        <pt x="387" y="1080" on="1"/>
        <pt x="369" y="1014" on="0"/>
        <pt x="321" y="856" on="0"/>
        <pt x="298" y="763" on="1"/>
        <pt x="326" y="793" on="0"/>
        <pt x="397" y="794" on="0"/>
        <pt x="527" y="747" on="0"/>
        <pt x="560" y="747" on="1"/>
        <pt x="646" y="768" on="1"/>
        <pt x="661" y="766" on="0"/>
        <pt x="662" y="755" on="1"/>
        <pt x="662" y="701" on="0"/>
        <pt x="565" y="688" on="1"/>
        <pt x="544" y="685" on="0"/>
      </contour>
    </TTGlyph>
    <TTGlyph name="five" xMin="-78" yMin="-42" xMax="662" yMax="1099">
      <contour>
        <pt x="406" y="723" on="1"/>
        <pt x="234" y="701" on="1"/>
        <pt x="233" y="701" on="0"/>
        <pt x="230" y="702" on="1"/>
        <pt x="209" y="708" on="0"/>
        <pt x="209" y="742" on="1"/>
        <pt x="209" y="886" on="0"/>
        <pt x="232" y="1011" on="0"/>
        <pt x="249" y="1038" on="1"/>
        <pt x="289" y="1099" on="0"/>
        <pt x="366" y="1099" on="1"/>
        <pt x="605" y="1096" on="1"/>
        <pt x="661" y="1096" on="0"/>
        <pt x="662" y="1067" on="1"/>
        <pt x="662" y="1056" on="0"/>
        <pt x="654" y="1044" on="1"/>
        <pt x="630" y="1008" on="0"/>
        <pt x="574" y="1008" on="1"/>
        <pt x="358" y="1010" on="1"/>
        <pt x="350" y="1010" on="0"/>
        <pt x="333" y="1006" on="0"/>
        <pt x="319" y="872" on="0"/>
        <pt x="310" y="822" on="1"/>
        <pt x="337" y="827" on="0"/>
        <pt x="359" y="827" on="1"/>
        <pt x="386" y="827" on="1"/>
        <pt x="517" y="821" on="0"/>
        <pt x="517" y="675" on="1"/>
        <pt x="517" y="461" on="0"/>
        <pt x="323" y="231" on="1"/>
        <pt x="184" y="66" on="0"/>
        <pt x="19" y="-18" on="1"/>
        <pt x="-29" y="-42" on="0"/>
        <pt x="-76" y="-42" on="0"/>
        <pt x="-78" y="-22" on="1"/>
        <pt x="-78" y="2" on="0"/>
        <pt x="-53" y="48" on="0"/>
        <pt x="1" y="48" on="0"/>
        <pt x="66" y="101" on="1"/>
        <pt x="178" y="193" on="0"/>
        <pt x="286" y="348" on="1"/>
        <pt x="432" y="558" on="0"/>
        <pt x="432" y="694" on="1"/>
        <pt x="431" y="721" on="0"/>
      </contour>
    </TTGlyph>
    <TTGlyph name="four" xMin="26" yMin="-48" xMax="653" yMax="1125">
      <contour>
        <pt x="362" y="582" on="1"/>
        <pt x="113" y="475" on="0"/>
        <pt x="58" y="475" on="1"/>
        <pt x="27" y="476" on="0"/>
        <pt x="26" y="537" on="0"/>
        <pt x="78" y="606" on="1"/>
        <pt x="79" y="608" on="1"/>
        <pt x="254" y="843" on="0"/>
        <pt x="496" y="1101" on="1"/>
        <pt x="515" y="1121" on="0"/>
        <pt x="528" y="1125" on="0"/>
        <pt x="540" y="1125" on="1"/>
        <pt x="606" y="1125" on="0"/>
        <pt x="630" y="1105" on="1"/>
        <pt x="663" y="1078" on="0"/>
        <pt x="653" y="1054" on="1"/>
        <pt x="600" y="913" on="0"/>
        <pt x="452" y="555" on="1"/>
        <pt x="252" y="64" on="1"/>
        <pt x="210" y="-43" on="0"/>
        <pt x="191" y="-48" on="1"/>
        <pt x="183" y="-46" on="0"/>
        <pt x="183" y="-19" on="1"/>
        <pt x="183" y="131" on="0"/>
        <pt x="316" y="465" on="1"/>
        <pt x="337" y="518" on="1"/>
        <pt x="355" y="563" on="0"/>
      </contour>
      <contour>
        <pt x="400" y="698" on="1"/>
        <pt x="450" y="812" on="1"/>
        <pt x="502" y="927" on="0"/>
        <pt x="517" y="971" on="1"/>
        <pt x="208" y="621" on="1"/>
      </contour>
    </TTGlyph>
    <TTGlyph name="g" xMin="10" yMin="-781" xMax="748" yMax="753">
      <contour>
        <pt x="675" y="611" on="1"/>
        <pt x="660" y="645" on="0"/>
        <pt x="636" y="645" on="1"/>
        <pt x="629" y="645" on="0"/>
        <pt x="625" y="643" on="1"/>
        <pt x="538" y="609" on="0"/>
        <pt x="229" y="403" on="0"/>
        <pt x="224" y="357" on="1"/>
        <pt x="225" y="348" on="0"/>
        <pt x="236" y="346" on="1"/>
        <pt x="266" y="346" on="0"/>
        <pt x="435" y="443" on="0"/>
        <pt x="443" y="447" on="1"/>
        <pt x="451" y="450" on="0"/>
        <pt x="471" y="462" on="1"/>
        <pt x="500" y="479" on="1"/>
        <pt x="667" y="572" on="0"/>
      </contour>
      <contour>
        <pt x="492" y="269" on="1"/>
        <pt x="492" y="272" on="1"/>
        <pt x="500" y="322" on="0"/>
        <pt x="500" y="326" on="1"/>
        <pt x="499" y="342" on="0"/>
        <pt x="443" y="343" on="0"/>
        <pt x="376" y="313" on="0"/>
        <pt x="148" y="184" on="0"/>
        <pt x="72" y="184" on="1"/>
        <pt x="48" y="184" on="0"/>
        <pt x="13" y="206" on="1"/>
        <pt x="-55" y="250" on="0"/>
        <pt x="10" y="329" on="1"/>
        <pt x="60" y="386" on="0"/>
        <pt x="179" y="474" on="1"/>
        <pt x="361" y="610" on="1"/>
        <pt x="556" y="754" on="0"/>
        <pt x="678" y="752" on="0"/>
        <pt x="737" y="682" on="1"/>
        <pt x="712" y="668" on="0"/>
        <pt x="704" y="610" on="1"/>
        <pt x="705" y="611" on="0"/>
        <pt x="727" y="611" on="0"/>
        <pt x="748" y="600" on="0"/>
        <pt x="748" y="519" on="0"/>
        <pt x="740" y="518" on="1"/>
        <pt x="726" y="518" on="0"/>
        <pt x="640" y="441" on="0"/>
        <pt x="619" y="408" on="1"/>
        <pt x="600" y="253" on="0"/>
        <pt x="553" y="44" on="1"/>
        <pt x="453" y="-399" on="0"/>
        <pt x="341" y="-574" on="1"/>
        <pt x="307" y="-626" on="0"/>
        <pt x="258" y="-675" on="1"/>
        <pt x="148" y="-781" on="0"/>
        <pt x="56" y="-781" on="1"/>
        <pt x="12" y="-781" on="0"/>
        <pt x="12" y="-760" on="1"/>
        <pt x="13" y="-752" on="0"/>
        <pt x="68" y="-739" on="0"/>
        <pt x="102" y="-719" on="1"/>
        <pt x="173" y="-676" on="0"/>
        <pt x="218" y="-604" on="1"/>
        <pt x="301" y="-472" on="0"/>
        <pt x="420" y="-90" on="0"/>
      </contour>
    </TTGlyph>
    <TTGlyph name="germandbls" xMin="-31" yMin="-288" xMax="622" yMax="1166">
      <contour>
        <pt x="266" y="184" on="1"/>
        <pt x="223" y="184" on="0"/>
        <pt x="223" y="214" on="1"/>
        <pt x="224" y="229" on="0"/>
        <pt x="258" y="255" on="0"/>
        <pt x="258" y="256" on="1"/>
        <pt x="346" y="308" on="0"/>
        <pt x="412" y="387" on="1"/>
        <pt x="546" y="547" on="0"/>
        <pt x="546" y="752" on="1"/>
        <pt x="546" y="787" on="0"/>
        <pt x="532" y="789" on="1"/>
        <pt x="494" y="789" on="0"/>
        <pt x="357" y="694" on="0"/>
        <pt x="339" y="695" on="0"/>
        <pt x="338" y="702" on="1"/>
        <pt x="338" y="706" on="1"/>
        <pt x="338" y="710" on="0"/>
        <pt x="341" y="723" on="0"/>
        <pt x="343" y="739" on="0"/>
        <pt x="347" y="759" on="0"/>
        <pt x="352" y="779" on="0"/>
        <pt x="359" y="800" on="0"/>
        <pt x="363" y="809" on="1"/>
        <pt x="371" y="827" on="0"/>
        <pt x="403" y="857" on="0"/>
        <pt x="433" y="895" on="1"/>
        <pt x="523" y="1005" on="0"/>
        <pt x="524" y="1056" on="1"/>
        <pt x="523" y="1075" on="0"/>
        <pt x="497" y="1077" on="1"/>
        <pt x="453" y="1076" on="0"/>
        <pt x="385" y="1034" on="1"/>
        <pt x="372" y="970" on="0"/>
        <pt x="254" y="526" on="1"/>
        <pt x="82" y="-121" on="0"/>
        <pt x="55" y="-185" on="1"/>
        <pt x="23" y="-288" on="0"/>
        <pt x="-2" y="-288" on="1"/>
        <pt x="-30" y="-287" on="0"/>
        <pt x="-31" y="-213" on="1"/>
        <pt x="-31" y="-173" on="0"/>
        <pt x="211" y="739" on="0"/>
        <pt x="316" y="1083" on="1"/>
        <pt x="344" y="1166" on="0"/>
        <pt x="468" y="1166" on="1"/>
        <pt x="505" y="1166" on="0"/>
        <pt x="538" y="1154" on="1"/>
        <pt x="613" y="1126" on="0"/>
        <pt x="613" y="986" on="0"/>
        <pt x="489" y="854" on="1"/>
        <pt x="505" y="854" on="1"/>
        <pt x="547" y="853" on="0"/>
        <pt x="622" y="765" on="0"/>
        <pt x="622" y="652" on="0"/>
        <pt x="603" y="590" on="1"/>
        <pt x="560" y="448" on="0"/>
        <pt x="357" y="184" on="0"/>
      </contour>
    </TTGlyph>
    <TTGlyph name="grave" xMin="69" yMin="821" xMax="346" yMax="1131">
      <contour>
        <pt x="130" y="1131" on="1"/>
        <pt x="139" y="1130" on="0"/>
        <pt x="153" y="1106" on="0"/>
        <pt x="222" y="958" on="0"/>
        <pt x="289" y="874" on="0"/>
        <pt x="339" y="861" on="1"/>
        <pt x="340" y="860" on="1"/>
        <pt x="346" y="857" on="0"/>
        <pt x="346" y="845" on="0"/>
        <pt x="336" y="833" on="1"/>
        <pt x="328" y="821" on="0"/>
        <pt x="310" y="821" on="1"/>
        <pt x="280" y="821" on="0"/>
        <pt x="69" y="1006" on="0"/>
        <pt x="69" y="1058" on="1"/>
        <pt x="69" y="1075" on="0"/>
        <pt x="79" y="1093" on="1"/>
        <pt x="99" y="1131" on="0"/>
      </contour>
    </TTGlyph>
    <TTGlyph name="greater" xMin="115" yMin="230" xMax="635" yMax="755">
      <contour>
        <pt x="226" y="755" on="1"/>
        <pt x="256" y="753" on="0"/>
        <pt x="324" y="716" on="1"/>
        <pt x="486" y="620" on="0"/>
        <pt x="615" y="559" on="0"/>
        <pt x="616" y="558" on="1"/>
        <pt x="635" y="549" on="0"/>
        <pt x="635" y="501" on="0"/>
        <pt x="626" y="491" on="0"/>
        <pt x="585" y="470" on="0"/>
        <pt x="345" y="333" on="0"/>
        <pt x="137" y="230" on="0"/>
        <pt x="116" y="230" on="0"/>
        <pt x="115" y="272" on="0"/>
        <pt x="148" y="319" on="0"/>
        <pt x="237" y="370" on="0"/>
        <pt x="286" y="400" on="0"/>
        <pt x="487" y="496" on="0"/>
        <pt x="533" y="522" on="1"/>
        <pt x="482" y="539" on="0"/>
        <pt x="290" y="646" on="0"/>
        <pt x="268" y="656" on="1"/>
        <pt x="210" y="681" on="0"/>
        <pt x="211" y="736" on="1"/>
        <pt x="212" y="753" on="0"/>
      </contour>
    </TTGlyph>
    <TTGlyph name="guillemotleft" xMin="93" yMin="117" xMax="907" yMax="643">
      <contour>
        <pt x="493" y="117" on="1"/>
        <pt x="462" y="119" on="0"/>
        <pt x="391" y="156" on="1"/>
        <pt x="226" y="252" on="0"/>
        <pt x="163" y="283" on="1"/>
        <pt x="98" y="315" on="0"/>
        <pt x="93" y="320" on="1"/>
        <pt x="63" y="367" on="0"/>
        <pt x="105" y="387" on="1"/>
        <pt x="112" y="390" on="0"/>
        <pt x="124" y="397" on="1"/>
        <pt x="169" y="423" on="1"/>
        <pt x="376" y="542" on="0"/>
        <pt x="585" y="643" on="0"/>
        <pt x="589" y="643" on="1"/>
        <pt x="602" y="642" on="0"/>
        <pt x="603" y="600" on="0"/>
        <pt x="570" y="553" on="0"/>
        <pt x="481" y="502" on="0"/>
        <pt x="431" y="470" on="0"/>
        <pt x="226" y="372" on="0"/>
        <pt x="185" y="349" on="1"/>
        <pt x="234" y="332" on="0"/>
        <pt x="423" y="227" on="0"/>
        <pt x="447" y="217" on="1"/>
        <pt x="507" y="192" on="0"/>
        <pt x="507" y="136" on="1"/>
        <pt x="506" y="119" on="0"/>
      </contour>
      <contour>
        <pt x="797" y="117" on="1"/>
        <pt x="766" y="119" on="0"/>
        <pt x="695" y="156" on="1"/>
        <pt x="530" y="252" on="0"/>
        <pt x="467" y="283" on="1"/>
        <pt x="402" y="315" on="0"/>
        <pt x="397" y="320" on="1"/>
        <pt x="367" y="367" on="0"/>
        <pt x="409" y="387" on="1"/>
        <pt x="416" y="390" on="0"/>
        <pt x="428" y="397" on="1"/>
        <pt x="471" y="421" on="1"/>
        <pt x="687" y="544" on="0"/>
        <pt x="889" y="643" on="0"/>
        <pt x="893" y="643" on="1"/>
        <pt x="906" y="642" on="0"/>
        <pt x="907" y="600" on="0"/>
        <pt x="874" y="553" on="0"/>
        <pt x="785" y="502" on="0"/>
        <pt x="735" y="470" on="0"/>
        <pt x="530" y="372" on="0"/>
        <pt x="489" y="349" on="1"/>
        <pt x="538" y="332" on="0"/>
        <pt x="727" y="227" on="0"/>
        <pt x="751" y="217" on="1"/>
        <pt x="811" y="192" on="0"/>
        <pt x="811" y="136" on="1"/>
        <pt x="810" y="119" on="0"/>
      </contour>
    </TTGlyph>
    <TTGlyph name="guillemotright" xMin="112" yMin="118" xMax="936" yMax="643">
      <contour>
        <pt x="527" y="643" on="1"/>
        <pt x="557" y="641" on="0"/>
        <pt x="625" y="604" on="1"/>
        <pt x="787" y="508" on="0"/>
        <pt x="916" y="447" on="0"/>
        <pt x="917" y="446" on="1"/>
        <pt x="936" y="437" on="0"/>
        <pt x="936" y="389" on="0"/>
        <pt x="927" y="379" on="0"/>
        <pt x="886" y="358" on="0"/>
        <pt x="646" y="221" on="0"/>
        <pt x="438" y="118" on="0"/>
        <pt x="417" y="118" on="0"/>
        <pt x="416" y="160" on="0"/>
        <pt x="429" y="180" on="1"/>
        <pt x="448" y="207" on="0"/>
        <pt x="538" y="258" on="0"/>
        <pt x="587" y="288" on="0"/>
        <pt x="787" y="384" on="0"/>
        <pt x="834" y="410" on="1"/>
        <pt x="783" y="427" on="0"/>
        <pt x="687" y="480" on="1"/>
        <pt x="592" y="534" on="0"/>
        <pt x="570" y="544" on="1"/>
        <pt x="512" y="570" on="0"/>
        <pt x="512" y="624" on="1"/>
        <pt x="513" y="641" on="0"/>
      </contour>
      <contour>
        <pt x="615" y="446" on="1"/>
        <pt x="631" y="430" on="0"/>
        <pt x="632" y="389" on="0"/>
        <pt x="623" y="379" on="0"/>
        <pt x="582" y="358" on="0"/>
        <pt x="342" y="221" on="0"/>
        <pt x="134" y="118" on="0"/>
        <pt x="113" y="118" on="0"/>
        <pt x="112" y="160" on="0"/>
        <pt x="125" y="180" on="1"/>
        <pt x="144" y="207" on="0"/>
        <pt x="234" y="258" on="0"/>
        <pt x="283" y="288" on="0"/>
        <pt x="483" y="384" on="0"/>
        <pt x="530" y="410" on="1"/>
        <pt x="479" y="427" on="0"/>
        <pt x="383" y="480" on="1"/>
        <pt x="288" y="534" on="0"/>
        <pt x="266" y="544" on="1"/>
        <pt x="208" y="570" on="0"/>
        <pt x="208" y="624" on="1"/>
        <pt x="209" y="641" on="0"/>
        <pt x="223" y="643" on="1"/>
        <pt x="253" y="641" on="0"/>
        <pt x="321" y="604" on="1"/>
        <pt x="451" y="527" on="0"/>
        <pt x="613" y="446" on="1"/>
      </contour>
    </TTGlyph>
    <TTGlyph name="h" xMin="-39" yMin="-29" xMax="746" yMax="1283">
      <contour>
        <pt x="288" y="594" on="1"/>
        <pt x="289" y="595" on="0"/>
        <pt x="326" y="640" on="1"/>
        <pt x="363" y="684" on="0"/>
        <pt x="378" y="700" on="1"/>
        <pt x="397" y="720" on="1"/>
        <pt x="417" y="739" on="0"/>
        <pt x="497" y="738" on="0"/>
        <pt x="499" y="698" on="1"/>
        <pt x="499" y="687" on="0"/>
        <pt x="471" y="611" on="0"/>
        <pt x="447" y="507" on="1"/>
        <pt x="387" y="255" on="0"/>
        <pt x="387" y="99" on="1"/>
        <pt x="387" y="36" on="0"/>
        <pt x="405" y="34" on="1"/>
        <pt x="436" y="34" on="0"/>
        <pt x="501" y="113" on="1"/>
        <pt x="560" y="184" on="0"/>
        <pt x="687" y="439" on="1"/>
        <pt x="706" y="472" on="0"/>
        <pt x="731" y="472" on="1"/>
        <pt x="744" y="469" on="0"/>
        <pt x="746" y="450" on="1"/>
        <pt x="746" y="400" on="0"/>
        <pt x="719" y="332" on="1"/>
        <pt x="668" y="201" on="0"/>
        <pt x="463" y="-29" on="0"/>
        <pt x="397" y="-29" on="1"/>
        <pt x="300" y="-28" on="0"/>
        <pt x="298" y="130" on="1"/>
        <pt x="298" y="260" on="0"/>
        <pt x="341" y="499" on="1"/>
        <pt x="277" y="478" on="0"/>
        <pt x="226" y="398" on="1"/>
        <pt x="176" y="318" on="0"/>
        <pt x="122" y="166" on="1"/>
        <pt x="66" y="9" on="0"/>
        <pt x="45" y="-11" on="1"/>
        <pt x="21" y="-29" on="0"/>
        <pt x="-38" y="-28" on="0"/>
        <pt x="-40" y="14" on="0"/>
        <pt x="168" y="570" on="0"/>
        <pt x="431" y="1162" on="0"/>
        <pt x="450" y="1254" on="1"/>
        <pt x="457" y="1282" on="0"/>
        <pt x="502" y="1283" on="1"/>
        <pt x="517" y="1283" on="0"/>
        <pt x="532" y="1279" on="1"/>
        <pt x="574" y="1268" on="0"/>
        <pt x="574" y="1240" on="1"/>
        <pt x="574" y="1230" on="0"/>
        <pt x="568" y="1218" on="1"/>
        <pt x="554" y="1194" on="1"/>
        <pt x="478" y="1059" on="0"/>
      </contour>
    </TTGlyph>
    <TTGlyph name="hyphen" xMin="133" yMin="379" xMax="536" yMax="478">
      <contour>
        <pt x="510" y="408" on="1"/>
        <pt x="447" y="405" on="0"/>
        <pt x="298" y="379" on="0"/>
        <pt x="182" y="379" on="0"/>
        <pt x="160" y="384" on="1"/>
        <pt x="134" y="400" on="0"/>
        <pt x="133" y="429" on="1"/>
        <pt x="135" y="442" on="0"/>
        <pt x="144" y="445" on="1"/>
        <pt x="396" y="478" on="0"/>
        <pt x="518" y="478" on="1"/>
        <pt x="532" y="469" on="0"/>
        <pt x="536" y="426" on="1"/>
        <pt x="535" y="408" on="0"/>
      </contour>
    </TTGlyph>
    <TTGlyph name="i" xMin="85" yMin="-46" xMax="611" yMax="1210">
      <contour>
        <pt x="369" y="922" on="1"/>
        <pt x="364" y="924" on="0"/>
        <pt x="344" y="938" on="1"/>
        <pt x="320" y="955" on="0"/>
        <pt x="320" y="963" on="1"/>
        <pt x="320" y="990" on="0"/>
        <pt x="470" y="1190" on="0"/>
        <pt x="480" y="1210" on="1"/>
        <pt x="505" y="1235" on="0"/>
        <pt x="549" y="1185" on="1"/>
        <pt x="584" y="1143" on="0"/>
        <pt x="571" y="1117" on="1"/>
        <pt x="564" y="1091" on="0"/>
        <pt x="408" y="923" on="0"/>
      </contour>
      <contour>
        <pt x="608" y="294" on="1"/>
        <pt x="571" y="190" on="0"/>
        <pt x="461" y="82" on="1"/>
        <pt x="331" y="-46" on="0"/>
        <pt x="243" y="-46" on="1"/>
        <pt x="124" y="-46" on="0"/>
        <pt x="94" y="89" on="1"/>
        <pt x="85" y="130" on="0"/>
        <pt x="85" y="178" on="1"/>
        <pt x="84" y="333" on="0"/>
        <pt x="144" y="537" on="1"/>
        <pt x="219" y="795" on="0"/>
        <pt x="286" y="795" on="1"/>
        <pt x="319" y="795" on="0"/>
        <pt x="350" y="764" on="0"/>
        <pt x="350" y="757" on="1"/>
        <pt x="350" y="725" on="0"/>
        <pt x="220" y="474" on="0"/>
        <pt x="189" y="361" on="0"/>
        <pt x="174" y="180" on="0"/>
        <pt x="174" y="154" on="1"/>
        <pt x="174" y="66" on="0"/>
        <pt x="217" y="22" on="0"/>
        <pt x="248" y="21" on="1"/>
        <pt x="336" y="21" on="0"/>
        <pt x="458" y="174" on="1"/>
        <pt x="517" y="249" on="0"/>
        <pt x="550" y="312" on="1"/>
        <pt x="565" y="336" on="0"/>
        <pt x="581" y="336" on="1"/>
        <pt x="608" y="332" on="0"/>
        <pt x="611" y="309" on="1"/>
        <pt x="611" y="306" on="0"/>
      </contour>
    </TTGlyph>
    <TTGlyph name="iacute" xMin="74" yMin="-46" xMax="600" yMax="1154">
      <component glyphName="acute" x="126" y="0" flags="0x1004"/>
      <component glyphName="dotlessi" x="0" y="0" flags="0x1004"/>
    </TTGlyph>
    <TTGlyph name="icircumflex" xMin="74" yMin="-46" xMax="600" yMax="1144">
      <component glyphName="circumflex" x="80" y="0" flags="0x1004"/>
      <component glyphName="dotlessi" x="0" y="0" flags="0x1004"/>
    </TTGlyph>
    <TTGlyph name="idieresis" xMin="74" yMin="-46" xMax="600" yMax="1205">
      <component glyphName="dieresis" x="-136" y="0" flags="0x1004"/>
      <component glyphName="dotlessi" x="0" y="0" flags="0x1004"/>
    </TTGlyph>
    <TTGlyph name="igrave" xMin="74" yMin="-46" xMax="600" yMax="1131">
      <component glyphName="grave" x="123" y="0" flags="0x1004"/>
      <component glyphName="dotlessi" x="0" y="0" flags="0x1004"/>
    </TTGlyph>
    <TTGlyph name="j" xMin="-406" yMin="-781" xMax="510" yMax="1214">
      <contour>
        <pt x="312" y="765" on="1"/>
        <pt x="312" y="751" on="0"/>
        <pt x="265" y="563" on="1"/>
        <pt x="120" y="-20" on="1"/>
        <pt x="22" y="-415" on="0"/>
        <pt x="-78" y="-573" on="1"/>
        <pt x="-112" y="-626" on="0"/>
        <pt x="-162" y="-675" on="1"/>
        <pt x="-271" y="-781" on="0"/>
        <pt x="-363" y="-781" on="1"/>
        <pt x="-406" y="-781" on="0"/>
        <pt x="-406" y="-760" on="1"/>
        <pt x="-405" y="-752" on="0"/>
        <pt x="-352" y="-740" on="0"/>
        <pt x="-320" y="-721" on="1"/>
        <pt x="-249" y="-679" on="0"/>
        <pt x="-202" y="-603" on="1"/>
        <pt x="-72" y="-394" on="0"/>
        <pt x="10" y="-21" on="1"/>
        <pt x="67" y="241" on="0"/>
        <pt x="185" y="695" on="0"/>
        <pt x="198" y="762" on="0"/>
        <pt x="204" y="771" on="1"/>
        <pt x="219" y="794" on="0"/>
        <pt x="282" y="794" on="1"/>
        <pt x="310" y="793" on="0"/>
      </contour>
      <contour>
        <pt x="307" y="918" on="1"/>
        <pt x="302" y="919" on="0"/>
        <pt x="282" y="933" on="1"/>
        <pt x="258" y="950" on="0"/>
        <pt x="258" y="960" on="1"/>
        <pt x="258" y="987" on="0"/>
        <pt x="407" y="1187" on="0"/>
        <pt x="418" y="1206" on="1"/>
        <pt x="424" y="1213" on="0"/>
        <pt x="458" y="1214" on="0"/>
        <pt x="484" y="1184" on="1"/>
        <pt x="517" y="1145" on="0"/>
        <pt x="502" y="1088" on="0"/>
        <pt x="346" y="919" on="0"/>
      </contour>
    </TTGlyph>
    <TTGlyph name="k" xMin="6" yMin="-304" xMax="585" yMax="1210">
      <contour>
        <pt x="541" y="1210" on="1"/>
        <pt x="584" y="1180" on="0"/>
        <pt x="585" y="1097" on="0"/>
        <pt x="555" y="1074" on="1"/>
        <pt x="483" y="1022" on="0"/>
        <pt x="407" y="922" on="0"/>
        <pt x="350" y="713" on="0"/>
        <pt x="323" y="650" on="1"/>
        <pt x="332" y="658" on="0"/>
        <pt x="438" y="682" on="0"/>
        <pt x="472" y="682" on="1"/>
        <pt x="575" y="682" on="0"/>
        <pt x="574" y="621" on="1"/>
        <pt x="573" y="571" on="0"/>
        <pt x="425" y="399" on="0"/>
        <pt x="278" y="306" on="1"/>
        <pt x="272" y="269" on="0"/>
        <pt x="272" y="56" on="0"/>
        <pt x="290" y="-39" on="1"/>
        <pt x="327" y="-243" on="0"/>
        <pt x="410" y="-243" on="1"/>
        <pt x="432" y="-242" on="0"/>
        <pt x="492" y="-198" on="0"/>
        <pt x="509" y="-198" on="0"/>
        <pt x="540" y="-216" on="0"/>
        <pt x="540" y="-236" on="1"/>
        <pt x="538" y="-304" on="0"/>
        <pt x="325" y="-303" on="0"/>
        <pt x="265" y="-215" on="1"/>
        <pt x="192" y="-107" on="0"/>
        <pt x="170" y="158" on="1"/>
        <pt x="163" y="248" on="0"/>
        <pt x="158" y="248" on="1"/>
        <pt x="153" y="237" on="0"/>
        <pt x="83" y="29" on="0"/>
        <pt x="53" y="29" on="1"/>
        <pt x="49" y="29" on="0"/>
        <pt x="41" y="32" on="1"/>
        <pt x="6" y="46" on="0"/>
        <pt x="6" y="93" on="0"/>
        <pt x="36" y="168" on="0"/>
        <pt x="50" y="212" on="0"/>
        <pt x="101" y="343" on="1"/>
        <pt x="364" y="1023" on="0"/>
        <pt x="499" y="1205" on="1"/>
        <pt x="516" y="1222" on="0"/>
      </contour>
      <contour>
        <pt x="453" y="574" on="1"/>
        <pt x="453" y="585" on="0"/>
        <pt x="422" y="586" on="0"/>
        <pt x="314" y="544" on="0"/>
        <pt x="269" y="502" on="1"/>
        <pt x="247" y="481" on="0"/>
        <pt x="246" y="437" on="1"/>
        <pt x="249" y="414" on="0"/>
        <pt x="270" y="408" on="1"/>
        <pt x="295" y="409" on="0"/>
        <pt x="454" y="546" on="0"/>
      </contour>
    </TTGlyph>
    <TTGlyph name="l" xMin="3" yMin="-410" xMax="638" yMax="1147">
      <contour>
        <pt x="85" y="-62" on="1"/>
        <pt x="85" y="-143" on="0"/>
        <pt x="117" y="-218" on="1"/>
        <pt x="171" y="-344" on="0"/>
        <pt x="277" y="-344" on="1"/>
        <pt x="360" y="-344" on="0"/>
        <pt x="473" y="-259" on="0"/>
        <pt x="550" y="-162" on="1"/>
        <pt x="574" y="-131" on="0"/>
        <pt x="600" y="-141" on="1"/>
        <pt x="626" y="-150" on="0"/>
        <pt x="626" y="-182" on="1"/>
        <pt x="626" y="-276" on="0"/>
        <pt x="403" y="-410" on="0"/>
        <pt x="302" y="-410" on="1"/>
        <pt x="3" y="-410" on="0"/>
        <pt x="3" y="-56" on="1"/>
        <pt x="3" y="99" on="0"/>
        <pt x="61" y="267" on="1"/>
        <pt x="71" y="296" on="1"/>
        <pt x="258" y="832" on="0"/>
        <pt x="361" y="1015" on="1"/>
        <pt x="433" y="1147" on="0"/>
        <pt x="517" y="1147" on="1"/>
        <pt x="636" y="1146" on="0"/>
        <pt x="638" y="1061" on="1"/>
        <pt x="638" y="1008" on="0"/>
        <pt x="496" y="779" on="0"/>
        <pt x="282" y="494" on="1"/>
        <pt x="228" y="433" on="0"/>
        <pt x="186" y="356" on="1"/>
        <pt x="85" y="166" on="0"/>
      </contour>
      <contour>
        <pt x="269" y="606" on="1"/>
        <pt x="284" y="607" on="0"/>
        <pt x="531" y="1038" on="0"/>
        <pt x="529" y="1053" on="0"/>
        <pt x="515" y="1054" on="0"/>
        <pt x="513" y="1052" on="1"/>
        <pt x="480" y="1032" on="0"/>
        <pt x="267" y="647" on="0"/>
        <pt x="267" y="611" on="1"/>
        <pt x="267" y="608" on="0"/>
      </contour>
    </TTGlyph>
    <TTGlyph name="less" xMin="82" yMin="229" xMax="602" yMax="754">
      <contour>
        <pt x="491" y="229" on="1"/>
        <pt x="460" y="231" on="0"/>
        <pt x="391" y="268" on="1"/>
        <pt x="227" y="364" on="0"/>
        <pt x="99" y="425" on="0"/>
        <pt x="96" y="427" on="1"/>
        <pt x="82" y="436" on="0"/>
        <pt x="82" y="475" on="0"/>
        <pt x="84" y="483" on="1"/>
        <pt x="85" y="490" on="0"/>
        <pt x="98" y="496" on="1"/>
        <pt x="123" y="507" on="0"/>
        <pt x="226" y="568" on="1"/>
        <pt x="334" y="633" on="0"/>
        <pt x="580" y="754" on="0"/>
        <pt x="601" y="754" on="0"/>
        <pt x="602" y="712" on="0"/>
        <pt x="586" y="688" on="1"/>
        <pt x="568" y="666" on="0"/>
        <pt x="524" y="640" on="1"/>
        <pt x="470" y="608" on="1"/>
        <pt x="429" y="583" on="0"/>
        <pt x="227" y="485" on="0"/>
        <pt x="184" y="461" on="1"/>
        <pt x="233" y="444" on="0"/>
        <pt x="422" y="339" on="0"/>
        <pt x="446" y="329" on="1"/>
        <pt x="506" y="304" on="0"/>
        <pt x="506" y="248" on="1"/>
        <pt x="505" y="231" on="0"/>
      </contour>
    </TTGlyph>
    <TTGlyph name="logicalnot" xMin="147" yMin="421" xMax="827" yMax="741">
      <contour>
        <pt x="784" y="690" on="1"/>
        <pt x="784" y="690" on="0"/>
        <pt x="384" y="667" on="1"/>
        <pt x="209" y="667" on="0"/>
        <pt x="156" y="676" on="0"/>
        <pt x="148" y="697" on="1"/>
        <pt x="147" y="701" on="0"/>
        <pt x="147" y="707" on="1"/>
        <pt x="147" y="715" on="0"/>
        <pt x="165" y="715" on="1"/>
        <pt x="593" y="741" on="0"/>
        <pt x="795" y="741" on="1"/>
        <pt x="817" y="741" on="0"/>
        <pt x="826" y="706" on="1"/>
        <pt x="827" y="704" on="1"/>
        <pt x="827" y="701" on="1"/>
        <pt x="826" y="699" on="1"/>
        <pt x="821" y="643" on="0"/>
        <pt x="791" y="540" on="1"/>
        <pt x="758" y="427" on="1"/>
        <pt x="755" y="421" on="0"/>
        <pt x="718" y="422" on="0"/>
        <pt x="717" y="434" on="1"/>
        <pt x="717" y="476" on="0"/>
        <pt x="766" y="657" on="0"/>
        <pt x="785" y="690" on="1"/>
      </contour>
    </TTGlyph>
    <TTGlyph name="m" xMin="-131" yMin="-61" xMax="898" yMax="853">
      <contour>
        <pt x="348" y="728" on="1"/>
        <pt x="362" y="730" on="1"/>
        <pt x="414" y="729" on="0"/>
        <pt x="413" y="701" on="1"/>
        <pt x="412" y="689" on="0"/>
        <pt x="402" y="664" on="0"/>
        <pt x="373" y="602" on="1"/>
        <pt x="337" y="525" on="0"/>
        <pt x="344" y="496" on="1"/>
        <pt x="344" y="490" on="1"/>
        <pt x="418" y="602" on="1"/>
        <pt x="490" y="711" on="0"/>
        <pt x="525" y="760" on="1"/>
        <pt x="535" y="773" on="0"/>
        <pt x="583" y="773" on="0"/>
        <pt x="614" y="748" on="0"/>
        <pt x="615" y="741" on="1"/>
        <pt x="609" y="726" on="1"/>
        <pt x="429" y="289" on="0"/>
        <pt x="429" y="102" on="1"/>
        <pt x="429" y="24" on="0"/>
        <pt x="480" y="9" on="1"/>
        <pt x="527" y="-4" on="0"/>
        <pt x="576" y="37" on="1"/>
        <pt x="713" y="147" on="0"/>
        <pt x="821" y="322" on="1"/>
        <pt x="840" y="354" on="1"/>
        <pt x="850" y="370" on="0"/>
        <pt x="871" y="373" on="1"/>
        <pt x="898" y="373" on="0"/>
        <pt x="898" y="344" on="1"/>
        <pt x="898" y="292" on="0"/>
        <pt x="669" y="23" on="0"/>
        <pt x="558" y="-61" on="0"/>
        <pt x="427" y="-61" on="0"/>
        <pt x="385" y="17" on="1"/>
        <pt x="356" y="71" on="0"/>
        <pt x="356" y="213" on="0"/>
        <pt x="423" y="450" on="0"/>
        <pt x="429" y="498" on="0"/>
        <pt x="428" y="501" on="1"/>
        <pt x="381" y="440" on="0"/>
        <pt x="320" y="330" on="1"/>
        <pt x="240" y="189" on="1"/>
        <pt x="222" y="160" on="0"/>
        <pt x="204" y="160" on="1"/>
        <pt x="154" y="160" on="0"/>
        <pt x="154" y="221" on="1"/>
        <pt x="154" y="249" on="0"/>
        <pt x="232" y="407" on="0"/>
        <pt x="232" y="442" on="1"/>
        <pt x="218" y="419" on="0"/>
        <pt x="184" y="355" on="1"/>
        <pt x="110" y="216" on="0"/>
        <pt x="-11" y="95" on="1"/>
        <pt x="-57" y="50" on="0"/>
        <pt x="-97" y="41" on="1"/>
        <pt x="-156" y="48" on="0"/>
        <pt x="-131" y="72" on="1"/>
        <pt x="-63" y="138" on="0"/>
        <pt x="-21" y="190" on="1"/>
        <pt x="67" y="299" on="0"/>
        <pt x="144" y="582" on="0"/>
        <pt x="154" y="630" on="0"/>
        <pt x="168" y="684" on="1"/>
        <pt x="188" y="755" on="1"/>
        <pt x="203" y="819" on="0"/>
        <pt x="242" y="853" on="0"/>
        <pt x="268" y="853" on="1"/>
        <pt x="317" y="853" on="0"/>
        <pt x="317" y="821" on="1"/>
        <pt x="317" y="791" on="0"/>
        <pt x="165" y="480" on="0"/>
        <pt x="148" y="432" on="1"/>
        <pt x="154" y="439" on="0"/>
        <pt x="212" y="531" on="0"/>
        <pt x="223" y="547" on="0"/>
        <pt x="239" y="575" on="1"/>
        <pt x="324" y="728" on="0"/>
      </contour>
    </TTGlyph>
    <TTGlyph name="macron" xMin="57" yMin="856" xMax="867" yMax="936">
      <contour>
        <pt x="831" y="936" on="1"/>
        <pt x="860" y="936" on="0"/>
        <pt x="867" y="893" on="1"/>
        <pt x="866" y="880" on="0"/>
        <pt x="814" y="880" on="1"/>
        <pt x="340" y="856" on="1"/>
        <pt x="153" y="856" on="0"/>
        <pt x="60" y="871" on="0"/>
        <pt x="57" y="896" on="1"/>
        <pt x="57" y="906" on="0"/>
        <pt x="75" y="910" on="1"/>
        <pt x="75" y="910" on="0"/>
        <pt x="78" y="910" on="1"/>
        <pt x="379" y="923" on="1"/>
        <pt x="664" y="936" on="0"/>
        <pt x="742" y="936" on="1"/>
        <pt x="742" y="936" on="0"/>
      </contour>
    </TTGlyph>
    <TTGlyph name="mu" xMin="-226" yMin="-290" xMax="879" yMax="850">
      <contour>
        <pt x="129" y="139" on="1"/>
        <pt x="28" y="-80" on="0"/>
        <pt x="-11" y="-143" on="0"/>
        <pt x="-63" y="-211" on="0"/>
        <pt x="-182" y="-290" on="0"/>
        <pt x="-225" y="-290" on="0"/>
        <pt x="-226" y="-282" on="1"/>
        <pt x="-223" y="-272" on="0"/>
        <pt x="-199" y="-245" on="1"/>
        <pt x="-113" y="-155" on="0"/>
        <pt x="68" y="193" on="0"/>
        <pt x="299" y="739" on="0"/>
        <pt x="333" y="837" on="0"/>
        <pt x="356" y="850" on="0"/>
        <pt x="389" y="850" on="0"/>
        <pt x="424" y="816" on="0"/>
        <pt x="424" y="806" on="1"/>
        <pt x="426" y="796" on="0"/>
        <pt x="412" y="756" on="1"/>
        <pt x="373" y="647" on="1"/>
        <pt x="239" y="263" on="0"/>
        <pt x="222" y="139" on="1"/>
        <pt x="296" y="252" on="0"/>
        <pt x="505" y="671" on="0"/>
        <pt x="549" y="753" on="0"/>
        <pt x="572" y="811" on="0"/>
        <pt x="592" y="818" on="0"/>
        <pt x="619" y="818" on="1"/>
        <pt x="657" y="818" on="0"/>
        <pt x="660" y="781" on="1"/>
        <pt x="660" y="765" on="0"/>
        <pt x="647" y="734" on="1"/>
        <pt x="588" y="592" on="0"/>
        <pt x="486" y="198" on="0"/>
        <pt x="487" y="54" on="0"/>
        <pt x="500" y="53" on="1"/>
        <pt x="544" y="53" on="0"/>
        <pt x="773" y="304" on="0"/>
        <pt x="826" y="405" on="1"/>
        <pt x="848" y="445" on="0"/>
        <pt x="868" y="446" on="1"/>
        <pt x="878" y="444" on="0"/>
        <pt x="879" y="430" on="1"/>
        <pt x="879" y="346" on="0"/>
        <pt x="656" y="76" on="0"/>
        <pt x="576" y="21" on="1"/>
        <pt x="556" y="8" on="1"/>
        <pt x="521" y="-10" on="0"/>
        <pt x="489" y="-10" on="1"/>
        <pt x="399" y="-8" on="0"/>
        <pt x="399" y="138" on="1"/>
        <pt x="398" y="204" on="0"/>
        <pt x="418" y="274" on="1"/>
        <pt x="441" y="355" on="1"/>
        <pt x="343" y="140" on="0"/>
        <pt x="212" y="-21" on="0"/>
        <pt x="159" y="-21" on="1"/>
        <pt x="119" y="-19" on="0"/>
        <pt x="119" y="51" on="1"/>
        <pt x="119" y="87" on="0"/>
      </contour>
    </TTGlyph>
    <TTGlyph name="multiply" xMin="225" yMin="175" xMax="712" yMax="862">
      <contour>
        <pt x="361" y="862" on="1"/>
        <pt x="377" y="862" on="0"/>
        <pt x="393" y="826" on="1"/>
        <pt x="434" y="717" on="0"/>
        <pt x="482" y="618" on="1"/>
        <pt x="557" y="717" on="0"/>
        <pt x="640" y="813" on="1"/>
        <pt x="646" y="818" on="0"/>
        <pt x="680" y="818" on="0"/>
        <pt x="712" y="793" on="0"/>
        <pt x="712" y="765" on="0"/>
        <pt x="610" y="640" on="0"/>
        <pt x="531" y="518" on="1"/>
        <pt x="555" y="467" on="0"/>
        <pt x="628" y="259" on="0"/>
        <pt x="628" y="208" on="0"/>
        <pt x="587" y="174" on="0"/>
        <pt x="574" y="176" on="0"/>
        <pt x="568" y="187" on="1"/>
        <pt x="462" y="419" on="1"/>
        <pt x="443" y="397" on="1"/>
        <pt x="333" y="269" on="0"/>
        <pt x="289" y="240" on="0"/>
        <pt x="226" y="241" on="0"/>
        <pt x="225" y="262" on="1"/>
        <pt x="226" y="269" on="0"/>
        <pt x="232" y="275" on="1"/>
        <pt x="413" y="526" on="1"/>
        <pt x="304" y="765" on="0"/>
        <pt x="304" y="818" on="1"/>
        <pt x="304" y="837" on="0"/>
        <pt x="354" y="862" on="0"/>
      </contour>
    </TTGlyph>
    <TTGlyph name="n" xMin="-57" yMin="-29" xMax="804" yMax="926">
      <contour>
        <pt x="804" y="374" on="1"/>
        <pt x="804" y="324" on="0"/>
        <pt x="576" y="56" on="0"/>
        <pt x="463" y="-29" on="0"/>
        <pt x="406" y="-29" on="1"/>
        <pt x="300" y="-28" on="0"/>
        <pt x="300" y="139" on="1"/>
        <pt x="300" y="218" on="0"/>
        <pt x="364" y="555" on="0"/>
        <pt x="366" y="570" on="1"/>
        <pt x="260" y="535" on="0"/>
        <pt x="163" y="304" on="1"/>
        <pt x="143" y="255" on="0"/>
        <pt x="99" y="137" on="1"/>
        <pt x="56" y="20" on="0"/>
        <pt x="38" y="-2" on="1"/>
        <pt x="16" y="-28" on="0"/>
        <pt x="-56" y="-28" on="0"/>
        <pt x="-57" y="-2" on="1"/>
        <pt x="-57" y="46" on="0"/>
        <pt x="264" y="794" on="1"/>
        <pt x="314" y="912" on="0"/>
        <pt x="322" y="926" on="1"/>
        <pt x="339" y="959" on="0"/>
        <pt x="393" y="923" on="1"/>
        <pt x="409" y="912" on="0"/>
        <pt x="410" y="890" on="0"/>
        <pt x="394" y="866" on="1"/>
        <pt x="357" y="808" on="0"/>
        <pt x="328" y="731" on="1"/>
        <pt x="290" y="632" on="1"/>
        <pt x="322" y="671" on="1"/>
        <pt x="365" y="724" on="0"/>
        <pt x="417" y="779" on="0"/>
        <pt x="452" y="786" on="0"/>
        <pt x="471" y="786" on="1"/>
        <pt x="512" y="783" on="0"/>
        <pt x="514" y="742" on="1"/>
        <pt x="514" y="722" on="0"/>
        <pt x="500" y="688" on="1"/>
        <pt x="437" y="543" on="0"/>
        <pt x="403" y="249" on="1"/>
        <pt x="394" y="165" on="0"/>
        <pt x="395" y="38" on="0"/>
        <pt x="425" y="37" on="1"/>
        <pt x="467" y="37" on="0"/>
        <pt x="689" y="298" on="0"/>
        <pt x="738" y="384" on="1"/>
        <pt x="751" y="405" on="0"/>
        <pt x="775" y="406" on="1"/>
        <pt x="800" y="400" on="0"/>
      </contour>
    </TTGlyph>
    <TTGlyph name="nine" xMin="68" yMin="-72" xMax="585" yMax="1142">
      <contour>
        <pt x="190" y="806" on="1"/>
        <pt x="191" y="794" on="0"/>
        <pt x="218" y="792" on="0"/>
        <pt x="232" y="795" on="1"/>
        <pt x="311" y="810" on="0"/>
        <pt x="499" y="943" on="0"/>
        <pt x="500" y="998" on="1"/>
        <pt x="499" y="1051" on="0"/>
        <pt x="438" y="1053" on="1"/>
        <pt x="352" y="1053" on="0"/>
        <pt x="193" y="887" on="0"/>
      </contour>
      <contour>
        <pt x="195" y="718" on="1"/>
        <pt x="99" y="718" on="0"/>
        <pt x="99" y="782" on="1"/>
        <pt x="99" y="923" on="0"/>
        <pt x="305" y="1142" on="0"/>
        <pt x="435" y="1142" on="1"/>
        <pt x="476" y="1142" on="0"/>
        <pt x="509" y="1126" on="1"/>
        <pt x="584" y="1090" on="0"/>
        <pt x="585" y="1003" on="1"/>
        <pt x="585" y="774" on="0"/>
        <pt x="421" y="349" on="1"/>
        <pt x="334" y="124" on="0"/>
        <pt x="302" y="76" on="1"/>
        <pt x="202" y="-72" on="0"/>
        <pt x="97" y="-72" on="1"/>
        <pt x="70" y="-72" on="0"/>
        <pt x="69" y="-64" on="0"/>
        <pt x="68" y="-64" on="1"/>
        <pt x="77" y="-60" on="0"/>
        <pt x="100" y="-38" on="1"/>
        <pt x="215" y="77" on="0"/>
        <pt x="353" y="393" on="0"/>
        <pt x="444" y="712" on="1"/>
        <pt x="450" y="733" on="1"/>
        <pt x="455" y="748" on="0"/>
        <pt x="465" y="781" on="0"/>
        <pt x="464" y="801" on="0"/>
        <pt x="432" y="803" on="0"/>
        <pt x="249" y="718" on="0"/>
      </contour>
    </TTGlyph>
    <TTGlyph name="ntilde" xMin="-57" yMin="-29" xMax="874" yMax="1179">
      <component glyphName="tilde" x="346" y="0" flags="0x1004"/>
      <component glyphName="n" x="0" y="0" flags="0x1004"/>
    </TTGlyph>
    <TTGlyph name="numbersign" xMin="-72" yMin="-43" xMax="962" yMax="1141">
      <contour>
        <pt x="56" y="709" on="1"/>
        <pt x="56" y="726" on="0"/>
        <pt x="78" y="726" on="1"/>
        <pt x="344" y="744" on="1"/>
        <pt x="526" y="1116" on="1"/>
        <pt x="529" y="1121" on="0"/>
        <pt x="539" y="1141" on="0"/>
        <pt x="589" y="1141" on="0"/>
        <pt x="609" y="1112" on="0"/>
        <pt x="610" y="1077" on="0"/>
        <pt x="512" y="875" on="0"/>
        <pt x="460" y="752" on="1"/>
        <pt x="588" y="759" on="0"/>
        <pt x="705" y="763" on="1"/>
        <pt x="747" y="854" on="0"/>
        <pt x="883" y="1125" on="1"/>
        <pt x="891" y="1141" on="0"/>
        <pt x="941" y="1141" on="0"/>
        <pt x="961" y="1112" on="0"/>
        <pt x="962" y="1077" on="0"/>
        <pt x="880" y="908" on="0"/>
        <pt x="818" y="766" on="1"/>
        <pt x="886" y="766" on="1"/>
        <pt x="911" y="766" on="0"/>
        <pt x="923" y="725" on="1"/>
        <pt x="926" y="713" on="0"/>
        <pt x="926" y="704" on="1"/>
        <pt x="925" y="685" on="0"/>
        <pt x="869" y="685" on="1"/>
        <pt x="783" y="682" on="1"/>
        <pt x="729" y="548" on="1"/>
        <pt x="687" y="444" on="0"/>
        <pt x="666" y="397" on="1"/>
        <pt x="698" y="398" on="0"/>
        <pt x="758" y="398" on="1"/>
        <pt x="783" y="398" on="0"/>
        <pt x="795" y="357" on="1"/>
        <pt x="798" y="345" on="0"/>
        <pt x="798" y="336" on="1"/>
        <pt x="797" y="317" on="0"/>
        <pt x="664" y="315" on="0"/>
        <pt x="626" y="313" on="1"/>
        <pt x="471" y="2" on="0"/>
        <pt x="464" y="2" on="1"/>
        <pt x="430" y="-42" on="0"/>
        <pt x="387" y="-43" on="0"/>
        <pt x="379" y="-22" on="1"/>
        <pt x="376" y="-8" on="0"/>
        <pt x="384" y="14" on="1"/>
        <pt x="503" y="304" on="1"/>
        <pt x="463" y="301" on="0"/>
        <pt x="305" y="284" on="0"/>
        <pt x="260" y="283" on="1"/>
        <pt x="135" y="33" on="0"/>
        <pt x="78" y="-42" on="0"/>
        <pt x="35" y="-43" on="0"/>
        <pt x="27" y="-22" on="1"/>
        <pt x="24" y="-8" on="0"/>
        <pt x="32" y="14" on="1"/>
        <pt x="142" y="283" on="1"/>
        <pt x="26" y="283" on="0"/>
        <pt x="-11" y="290" on="1"/>
        <pt x="-67" y="307" on="0"/>
        <pt x="-72" y="341" on="1"/>
        <pt x="-72" y="358" on="0"/>
        <pt x="-19" y="360" on="0"/>
        <pt x="59" y="366" on="1"/>
        <pt x="181" y="374" on="1"/>
        <pt x="301" y="651" on="1"/>
        <pt x="149" y="651" on="0"/>
        <pt x="117" y="658" on="1"/>
        <pt x="61" y="675" on="0"/>
      </contour>
      <contour>
        <pt x="307" y="382" on="1"/>
        <pt x="372" y="386" on="0"/>
        <pt x="541" y="394" on="1"/>
        <pt x="664" y="675" on="1"/>
        <pt x="616" y="671" on="0"/>
        <pt x="455" y="655" on="0"/>
        <pt x="418" y="653" on="1"/>
        <pt x="326" y="425" on="0"/>
      </contour>
    </TTGlyph>
    <TTGlyph name="o" xMin="15" yMin="-42" xMax="384" yMax="826">
      <contour>
        <pt x="317" y="702" on="1"/>
        <pt x="267" y="694" on="0"/>
        <pt x="109" y="210" on="0"/>
        <pt x="109" y="122" on="0"/>
        <pt x="117" y="122" on="1"/>
        <pt x="159" y="122" on="0"/>
        <pt x="337" y="483" on="0"/>
        <pt x="337" y="633" on="1"/>
        <pt x="337" y="701" on="0"/>
      </contour>
      <contour>
        <pt x="301" y="826" on="1"/>
        <pt x="329" y="826" on="0"/>
        <pt x="349" y="810" on="1"/>
        <pt x="384" y="780" on="0"/>
        <pt x="384" y="694" on="1"/>
        <pt x="384" y="301" on="0"/>
        <pt x="244" y="105" on="1"/>
        <pt x="230" y="84" on="1"/>
        <pt x="143" y="-42" on="0"/>
        <pt x="90" y="-42" on="1"/>
        <pt x="25" y="-35" on="0"/>
        <pt x="15" y="53" on="1"/>
        <pt x="15" y="126" on="0"/>
        <pt x="134" y="572" on="0"/>
        <pt x="211" y="735" on="1"/>
        <pt x="255" y="825" on="0"/>
      </contour>
    </TTGlyph>
    <TTGlyph name="o.alt1" xMin="5" yMin="-42" xMax="936" yMax="1101">
      <contour>
        <pt x="320" y="702" on="1"/>
        <pt x="278" y="702" on="0"/>
        <pt x="118" y="202" on="0"/>
        <pt x="116" y="129" on="0"/>
        <pt x="122" y="129" on="1"/>
        <pt x="159" y="129" on="0"/>
        <pt x="342" y="490" on="0"/>
        <pt x="342" y="619" on="1"/>
        <pt x="342" y="631" on="1"/>
        <pt x="339" y="702" on="0"/>
      </contour>
      <contour>
        <pt x="861" y="946" on="1"/>
        <pt x="856" y="1064" on="1"/>
        <pt x="857" y="1099" on="0"/>
        <pt x="883" y="1101" on="1"/>
        <pt x="893" y="1101" on="0"/>
        <pt x="903" y="1095" on="1"/>
        <pt x="936" y="1078" on="0"/>
        <pt x="936" y="1042" on="1"/>
        <pt x="936" y="980" on="0"/>
        <pt x="855" y="785" on="0"/>
        <pt x="822" y="738" on="1"/>
        <pt x="740" y="626" on="0"/>
        <pt x="595" y="626" on="1"/>
        <pt x="563" y="626" on="0"/>
        <pt x="430" y="672" on="0"/>
        <pt x="398" y="672" on="1"/>
        <pt x="377" y="671" on="0"/>
        <pt x="365" y="611" on="1"/>
        <pt x="364" y="607" on="0"/>
        <pt x="342" y="450" on="1"/>
        <pt x="309" y="213" on="0"/>
        <pt x="232" y="106" on="1"/>
        <pt x="133" y="-42" on="0"/>
        <pt x="75" y="-42" on="1"/>
        <pt x="12" y="-37" on="0"/>
        <pt x="5" y="48" on="1"/>
        <pt x="10" y="161" on="0"/>
        <pt x="196" y="731" on="0"/>
        <pt x="256" y="810" on="1"/>
        <pt x="275" y="835" on="0"/>
        <pt x="323" y="828" on="1"/>
        <pt x="341" y="824" on="0"/>
        <pt x="342" y="751" on="0"/>
        <pt x="376" y="750" on="1"/>
        <pt x="411" y="750" on="0"/>
        <pt x="580" y="693" on="0"/>
        <pt x="689" y="693" on="0"/>
        <pt x="743" y="721" on="1"/>
        <pt x="861" y="782" on="0"/>
      </contour>
    </TTGlyph>
    <TTGlyph name="o.alt2" xMin="36" yMin="-42" xMax="711" yMax="829">
      <contour>
        <pt x="407" y="750" on="1"/>
        <pt x="459" y="750" on="0"/>
        <pt x="632" y="804" on="0"/>
        <pt x="699" y="798" on="0"/>
        <pt x="722" y="750" on="0"/>
        <pt x="692" y="705" on="0"/>
        <pt x="643" y="702" on="1"/>
        <pt x="486" y="702" on="1"/>
        <pt x="438" y="702" on="0"/>
        <pt x="425" y="671" on="1"/>
        <pt x="423" y="669" on="0"/>
        <pt x="390" y="467" on="0"/>
        <pt x="387" y="453" on="1"/>
        <pt x="338" y="214" on="0"/>
        <pt x="251" y="89" on="1"/>
        <pt x="250" y="88" on="1"/>
        <pt x="160" y="-42" on="0"/>
        <pt x="107" y="-42" on="1"/>
        <pt x="41" y="-39" on="0"/>
        <pt x="36" y="48" on="1"/>
        <pt x="41" y="160" on="0"/>
        <pt x="225" y="725" on="0"/>
        <pt x="286" y="806" on="1"/>
        <pt x="303" y="829" on="0"/>
        <pt x="346" y="829" on="0"/>
        <pt x="352" y="828" on="1"/>
        <pt x="372" y="824" on="0"/>
        <pt x="373" y="751" on="0"/>
      </contour>
      <contour>
        <pt x="337" y="702" on="1"/>
        <pt x="295" y="702" on="0"/>
        <pt x="135" y="202" on="0"/>
        <pt x="132" y="129" on="0"/>
        <pt x="140" y="129" on="1"/>
        <pt x="177" y="129" on="0"/>
        <pt x="359" y="490" on="0"/>
        <pt x="359" y="619" on="1"/>
        <pt x="354" y="695" on="0"/>
      </contour>
    </TTGlyph>
    <TTGlyph name="oacute" xMin="15" yMin="-42" xMax="548" yMax="1154">
      <component glyphName="acute" x="174" y="0" flags="0x1004"/>
      <component glyphName="o" x="0" y="0" flags="0x1004"/>
    </TTGlyph>
    <TTGlyph name="ocircumflex" xMin="15" yMin="-42" xMax="513" yMax="1144">
      <component glyphName="circumflex" x="110" y="0" flags="0x1004"/>
      <component glyphName="o" x="0" y="0" flags="0x1004"/>
    </TTGlyph>
    <TTGlyph name="odieresis" xMin="15" yMin="-42" xMax="610" yMax="1205">
      <component glyphName="dieresis" x="-121" y="0" flags="0x1004"/>
      <component glyphName="o" x="0" y="0" flags="0x1004"/>
    </TTGlyph>
    <TTGlyph name="ograve" xMin="15" yMin="-42" xMax="533" yMax="1131">
      <component glyphName="grave" x="187" y="0" flags="0x1004"/>
      <component glyphName="o" x="0" y="0" flags="0x1004"/>
    </TTGlyph>
    <TTGlyph name="one" xMin="210" yMin="-66" xMax="667" yMax="1114">
      <contour>
        <pt x="222" y="-66" on="1"/>
        <pt x="210" y="-64" on="0"/>
        <pt x="210" y="9" on="0"/>
        <pt x="254" y="134" on="1"/>
        <pt x="340" y="366" on="1"/>
        <pt x="462" y="686" on="0"/>
        <pt x="491" y="837" on="1"/>
        <pt x="442" y="797" on="0"/>
        <pt x="301" y="609" on="0"/>
        <pt x="269" y="573" on="1"/>
        <pt x="219" y="588" on="0"/>
        <pt x="218" y="666" on="0"/>
        <pt x="321" y="795" on="0"/>
        <pt x="328" y="806" on="1"/>
        <pt x="530" y="1070" on="1"/>
        <pt x="554" y="1107" on="0"/>
        <pt x="559" y="1110" on="1"/>
        <pt x="565" y="1113" on="0"/>
        <pt x="571" y="1114" on="1"/>
        <pt x="628" y="1114" on="0"/>
        <pt x="666" y="1076" on="0"/>
        <pt x="667" y="1044" on="0"/>
        <pt x="654" y="1010" on="1"/>
        <pt x="638" y="968" on="1"/>
        <pt x="529" y="628" on="0"/>
        <pt x="344" y="115" on="1"/>
        <pt x="302" y="-2" on="0"/>
        <pt x="256" y="-48" on="1"/>
        <pt x="237" y="-66" on="0"/>
      </contour>
    </TTGlyph>
    <TTGlyph name="onehalf" xMin="101" yMin="-43" xMax="931" yMax="1141">
      <contour>
        <pt x="734" y="1141" on="1"/>
        <pt x="784" y="1140" on="0"/>
        <pt x="786" y="1094" on="1"/>
        <pt x="786" y="1076" on="0"/>
        <pt x="664" y="825" on="0"/>
        <pt x="489" y="391" on="0"/>
        <pt x="453" y="318" on="1"/>
        <pt x="311" y="32" on="0"/>
        <pt x="254" y="-42" on="0"/>
        <pt x="211" y="-43" on="0"/>
        <pt x="203" y="-22" on="1"/>
        <pt x="200" y="-8" on="0"/>
        <pt x="208" y="14" on="1"/>
        <pt x="555" y="811" on="0"/>
        <pt x="619" y="944" on="1"/>
        <pt x="707" y="1125" on="1"/>
        <pt x="715" y="1141" on="0"/>
      </contour>
      <contour>
        <pt x="317" y="933" on="1"/>
        <pt x="254" y="879" on="0"/>
        <pt x="190" y="795" on="1"/>
        <pt x="154" y="749" on="0"/>
        <pt x="130" y="749" on="1"/>
        <pt x="102" y="749" on="0"/>
        <pt x="101" y="760" on="1"/>
        <pt x="101" y="806" on="0"/>
        <pt x="300" y="1028" on="1"/>
        <pt x="301" y="1029" on="1"/>
        <pt x="342" y="1082" on="0"/>
        <pt x="410" y="1082" on="1"/>
        <pt x="432" y="1082" on="0"/>
        <pt x="436" y="1070" on="1"/>
        <pt x="437" y="1068" on="0"/>
        <pt x="437" y="1057" on="0"/>
        <pt x="426" y="1029" on="1"/>
        <pt x="285" y="592" on="1"/>
        <pt x="252" y="489" on="0"/>
        <pt x="208" y="488" on="1"/>
        <pt x="192" y="490" on="0"/>
        <pt x="192" y="535" on="0"/>
        <pt x="206" y="581" on="1"/>
        <pt x="245" y="699" on="1"/>
        <pt x="294" y="851" on="0"/>
      </contour>
      <contour>
        <pt x="814" y="67" on="1"/>
        <pt x="782" y="77" on="1"/>
        <pt x="746" y="77" on="0"/>
        <pt x="622" y="-10" on="0"/>
        <pt x="584" y="-18" on="0"/>
        <pt x="574" y="-19" on="1"/>
        <pt x="549" y="-19" on="0"/>
        <pt x="545" y="21" on="1"/>
        <pt x="545" y="26" on="0"/>
        <pt x="545" y="50" on="1"/>
        <pt x="546" y="74" on="0"/>
        <pt x="566" y="97" on="1"/>
        <pt x="714" y="271" on="1"/>
        <pt x="835" y="413" on="0"/>
        <pt x="835" y="462" on="1"/>
        <pt x="809" y="460" on="0"/>
        <pt x="733" y="414" on="0"/>
        <pt x="697" y="415" on="0"/>
        <pt x="696" y="424" on="1"/>
        <pt x="698" y="437" on="0"/>
        <pt x="715" y="453" on="1"/>
        <pt x="814" y="538" on="0"/>
        <pt x="903" y="538" on="0"/>
        <pt x="923" y="507" on="1"/>
        <pt x="931" y="494" on="0"/>
        <pt x="931" y="480" on="1"/>
        <pt x="931" y="442" on="0"/>
        <pt x="863" y="358" on="1"/>
        <pt x="835" y="322" on="1"/>
        <pt x="808" y="291" on="0"/>
        <pt x="738" y="199" on="1"/>
        <pt x="654" y="90" on="1"/>
        <pt x="725" y="110" on="0"/>
        <pt x="782" y="110" on="1"/>
        <pt x="809" y="110" on="0"/>
        <pt x="819" y="84" on="1"/>
        <pt x="824" y="69" on="0"/>
      </contour>
    </TTGlyph>
    <TTGlyph name="onequarter" xMin="101" yMin="-43" xMax="926" yMax="1141">
      <contour>
        <pt x="770" y="278" on="1"/>
        <pt x="604" y="203" on="0"/>
        <pt x="563" y="204" on="0"/>
        <pt x="560" y="214" on="1"/>
        <pt x="561" y="234" on="0"/>
        <pt x="589" y="269" on="1"/>
        <pt x="696" y="404" on="0"/>
        <pt x="824" y="533" on="1"/>
        <pt x="845" y="549" on="0"/>
        <pt x="925" y="548" on="0"/>
        <pt x="926" y="531" on="1"/>
        <pt x="926" y="523" on="0"/>
        <pt x="821" y="236" on="0"/>
        <pt x="705" y="-28" on="0"/>
        <pt x="699" y="-29" on="1"/>
        <pt x="690" y="-27" on="0"/>
        <pt x="690" y="75" on="0"/>
        <pt x="766" y="266" on="0"/>
      </contour>
      <contour>
        <pt x="782" y="342" on="1"/>
        <pt x="832" y="454" on="1"/>
        <pt x="759" y="381" on="0"/>
        <pt x="690" y="301" on="1"/>
      </contour>
      <contour>
        <pt x="734" y="1141" on="1"/>
        <pt x="784" y="1140" on="0"/>
        <pt x="786" y="1094" on="1"/>
        <pt x="786" y="1076" on="0"/>
        <pt x="664" y="825" on="0"/>
        <pt x="489" y="391" on="0"/>
        <pt x="453" y="318" on="1"/>
        <pt x="311" y="32" on="0"/>
        <pt x="254" y="-42" on="0"/>
        <pt x="211" y="-43" on="0"/>
        <pt x="203" y="-22" on="1"/>
        <pt x="200" y="-8" on="0"/>
        <pt x="208" y="14" on="1"/>
        <pt x="555" y="811" on="0"/>
        <pt x="619" y="944" on="1"/>
        <pt x="707" y="1125" on="1"/>
        <pt x="715" y="1141" on="0"/>
      </contour>
      <contour>
        <pt x="317" y="933" on="1"/>
        <pt x="249" y="875" on="0"/>
        <pt x="181" y="784" on="1"/>
        <pt x="178" y="781" on="0"/>
        <pt x="168" y="767" on="1"/>
        <pt x="155" y="749" on="0"/>
        <pt x="103" y="750" on="0"/>
        <pt x="101" y="760" on="1"/>
        <pt x="101" y="804" on="0"/>
        <pt x="258" y="982" on="1"/>
        <pt x="294" y="1023" on="0"/>
        <pt x="309" y="1038" on="1"/>
        <pt x="345" y="1080" on="0"/>
        <pt x="410" y="1082" on="1"/>
        <pt x="430" y="1082" on="0"/>
        <pt x="437" y="1068" on="0"/>
        <pt x="437" y="1057" on="0"/>
        <pt x="426" y="1029" on="1"/>
        <pt x="285" y="592" on="1"/>
        <pt x="254" y="495" on="0"/>
        <pt x="208" y="488" on="1"/>
        <pt x="178" y="492" on="0"/>
        <pt x="210" y="590" on="1"/>
        <pt x="221" y="627" on="0"/>
        <pt x="294" y="851" on="0"/>
      </contour>
    </TTGlyph>
    <TTGlyph name="onesuperior" xMin="333" yMin="501" xMax="528" yMax="1013">
      <contour>
        <pt x="487" y="1013" on="1"/>
        <pt x="528" y="1013" on="0"/>
        <pt x="528" y="989" on="1"/>
        <pt x="528" y="968" on="0"/>
        <pt x="388" y="579" on="1"/>
        <pt x="359" y="503" on="0"/>
        <pt x="335" y="501" on="1"/>
        <pt x="322" y="507" on="0"/>
        <pt x="346" y="574" on="1"/>
        <pt x="387" y="689" on="1"/>
        <pt x="441" y="832" on="0"/>
        <pt x="452" y="893" on="1"/>
        <pt x="432" y="877" on="0"/>
        <pt x="369" y="792" on="0"/>
        <pt x="356" y="778" on="1"/>
        <pt x="334" y="785" on="0"/>
        <pt x="333" y="818" on="0"/>
        <pt x="378" y="874" on="0"/>
        <pt x="383" y="882" on="1"/>
        <pt x="405" y="913" on="1"/>
        <pt x="479" y="1012" on="0"/>
      </contour>
    </TTGlyph>
</ttFont>
